{"glyphs":{"0":{"ha":769,"x_min":22,"x_max":797,"o":"m 200 -10 q 178 -9 189 -10 q 156 -7 167 -8 q 55 51 88 3 q 22 167 22 99 q 57 330 22 242 q 157 501 92 418 q 314 644 222 583 q 518 725 406 706 q 491 731 504 731 q 479 732 478 732 q 472 739 472 735 q 483 747 472 743 q 503 753 493 751 q 538 753 518 754 q 571 750 557 753 q 601 757 586 754 q 628 760 617 760 q 649 753 649 760 q 633 740 649 749 q 758 665 719 718 q 797 543 797 613 q 765 399 797 475 q 674 251 732 324 q 541 119 617 178 q 378 26 465 61 q 200 -10 290 -10 m 190 18 q 350 53 271 18 q 499 144 429 88 q 622 272 568 201 q 706 414 675 342 q 736 550 736 486 q 701 657 736 611 q 589 719 667 703 q 420 655 499 701 q 278 544 342 608 q 170 409 215 481 q 101 268 125 338 q 76 143 76 199 q 99 58 76 92 q 169 19 122 25 q 180 19 175 19 q 190 18 185 18 z "},"1":{"ha":378,"x_min":-42,"x_max":379,"o":"m -21 -44 q -36 -31 -31 -44 q -42 -8 -42 -18 q -33 6 -42 4 q 25 19 -6 13 q 85 28 56 26 q 117 156 96 81 q 164 313 138 231 q 217 472 190 394 q 264 610 243 550 q 192 568 229 588 q 110 532 154 549 q 103 531 107 531 q 90 543 90 531 q 99 558 90 556 q 202 617 157 582 q 263 665 247 651 l 308 713 q 324 728 313 724 q 347 733 336 733 q 370 727 361 733 q 374 707 379 721 q 245 386 308 549 q 129 38 182 224 q 215 29 169 35 q 306 17 261 24 q 318 3 318 14 q 303 -7 318 -8 q 265 -3 283 -4 q 228 -1 246 -1 q 103 -15 164 -1 q -19 -44 42 -29 l -21 -44 z "},"2":{"ha":821,"x_min":14,"x_max":761,"o":"m 583 -24 q 483 -9 532 -24 q 386 26 433 6 q 293 62 339 46 q 201 79 247 78 q 159 55 182 72 q 112 21 136 38 q 63 -3 88 4 q 49 -5 54 -4 q 38 -6 43 -6 q 14 11 14 -6 q 33 49 14 26 q 75 83 51 71 q 117 98 90 92 q 172 108 144 104 q 215 111 200 113 q 404 231 318 172 q 551 349 490 289 q 637 463 606 401 q 668 576 668 525 q 641 651 668 621 q 553 681 614 681 q 466 667 514 681 q 372 632 418 654 q 291 583 326 610 q 240 531 256 557 q 233 526 236 526 q 228 538 228 526 q 232 551 228 547 q 325 641 263 597 q 467 714 388 685 q 626 743 547 743 q 730 712 699 743 q 761 632 761 681 q 738 533 761 588 q 675 426 715 479 q 582 326 635 372 q 420 203 510 261 q 243 99 331 144 q 360 73 308 93 q 467 35 413 53 q 590 18 521 18 q 679 40 647 18 q 711 89 711 61 q 697 124 711 107 q 647 153 682 140 q 640 161 640 154 q 645 169 640 165 q 658 169 650 172 q 725 133 704 156 q 746 83 746 110 q 722 26 746 50 q 662 -11 699 1 q 583 -24 625 -24 z "},"3":{"ha":765,"x_min":-14,"x_max":742,"o":"m 258 -12 q 119 5 181 -12 q 22 60 57 22 q -14 156 -14 97 q 24 251 -14 213 q 117 309 61 289 q 229 329 174 329 q 243 319 243 329 l 243 318 q 228 308 243 308 q 151 290 190 308 q 84 238 111 271 q 57 157 57 204 q 115 52 57 88 q 261 17 174 17 q 410 35 335 17 q 547 92 485 54 q 644 185 608 129 q 672 313 679 240 q 643 380 669 356 q 578 415 617 404 q 497 425 539 425 q 379 407 429 425 q 357 403 367 403 q 339 410 344 403 q 333 426 333 417 q 342 448 333 438 q 365 458 351 458 q 469 468 408 458 q 581 501 531 478 q 646 554 624 521 q 668 622 668 588 q 649 665 668 646 q 588 685 631 685 q 566 683 578 685 q 542 679 554 682 q 426 642 486 669 q 331 589 367 615 q 322 586 325 586 q 313 604 313 586 q 317 625 313 614 q 331 642 322 636 q 370 668 347 650 q 411 706 393 686 q 422 711 417 711 q 429 701 429 711 l 429 699 q 425 688 429 694 q 422 683 424 685 q 417 678 419 681 q 474 699 439 688 q 551 721 510 711 q 631 731 593 731 q 709 712 676 731 q 742 640 742 693 q 710 560 742 599 q 633 494 678 522 q 547 458 588 467 q 636 439 592 454 q 710 391 681 424 q 740 300 740 358 q 694 169 740 226 q 576 71 649 111 q 420 9 504 31 q 258 -12 336 -12 z "},"4":{"ha":704,"x_min":38,"x_max":728,"o":"m 215 -25 q 201 -14 206 -25 q 197 8 197 -3 q 224 26 199 18 q 282 40 249 35 q 339 47 315 46 l 382 50 q 394 152 382 99 q 421 250 406 206 q 443 314 436 294 q 394 319 421 317 q 335 321 367 321 q 196 313 267 321 q 82 286 125 304 q 56 292 69 281 q 40 317 43 303 q 38 331 38 325 q 54 353 38 347 q 76 359 61 356 q 97 364 92 363 q 195 423 138 388 q 317 501 253 458 q 442 588 382 543 q 545 673 501 632 q 603 744 589 714 q 615 750 604 749 q 631 751 625 751 q 663 744 646 751 q 676 728 681 736 q 613 590 647 664 q 547 449 578 517 q 499 335 517 382 q 542 320 507 332 q 613 308 578 308 q 667 327 651 308 q 682 369 682 346 q 671 415 682 393 q 678 426 667 426 q 710 404 693 426 q 728 351 726 382 q 703 297 728 315 q 617 279 678 279 q 541 289 581 279 q 490 303 501 299 q 465 233 482 278 q 433 138 449 188 q 413 49 418 88 q 457 43 431 47 q 508 35 483 39 q 543 29 532 31 q 556 14 556 28 q 539 3 556 0 q 447 11 489 11 q 340 1 393 11 q 218 -25 286 -10 l 215 -25 m 450 350 q 481 435 464 386 q 517 536 497 485 q 558 626 538 588 q 442 538 511 586 q 303 445 374 490 q 178 367 232 400 q 217 369 197 369 q 257 369 238 369 q 371 364 318 369 q 450 350 424 358 z "},"5":{"ha":774,"x_min":-14,"x_max":801,"o":"m 700 632 q 597 640 646 632 q 498 657 547 649 q 393 665 449 665 q 339 660 371 665 q 288 638 307 654 q 276 633 279 633 q 254 656 260 633 q 253 660 254 658 q 253 665 253 663 q 265 692 253 686 q 314 713 286 707 q 372 718 342 718 q 488 706 424 718 q 613 680 551 693 q 715 667 674 667 q 775 704 775 667 q 774 718 775 713 l 774 721 q 783 733 774 733 q 796 728 793 733 q 800 717 799 722 q 801 707 801 711 q 801 699 801 703 q 769 646 801 660 q 700 632 736 632 m 236 -40 q 121 -25 179 -40 q 24 23 63 -10 q -14 106 -14 56 q 10 177 -14 143 q 75 229 33 211 q 97 235 88 235 q 106 231 106 235 q 92 215 106 224 q 42 124 42 183 q 71 49 42 78 q 144 7 100 21 q 232 -7 188 -7 q 369 16 296 -7 q 506 81 442 39 q 610 183 569 124 q 651 315 651 242 q 596 431 651 400 q 450 461 540 461 q 346 451 396 461 q 269 425 296 440 q 207 386 235 406 q 167 367 179 367 q 153 379 153 367 q 163 407 153 390 l 276 611 q 296 622 279 618 q 326 625 313 625 q 347 622 339 625 q 350 613 354 619 l 235 435 q 288 466 251 451 q 375 489 325 481 q 478 497 425 497 q 601 481 546 497 q 688 428 656 465 q 719 325 719 390 q 679 189 719 254 q 571 72 639 124 q 416 -10 503 19 q 236 -40 329 -40 z "},"6":{"ha":669,"x_min":22,"x_max":647,"o":"m 300 -12 q 92 48 163 -12 q 22 199 22 108 q 47 312 22 251 q 122 432 72 372 q 293 581 192 517 q 492 685 394 646 q 464 697 464 690 q 500 712 467 708 q 561 715 533 715 q 628 707 611 715 q 647 689 646 699 q 629 671 647 679 q 590 657 611 663 q 450 606 528 643 q 296 515 372 569 q 161 394 219 461 q 90 283 114 339 q 65 178 65 226 q 115 63 65 108 q 267 17 165 17 q 368 31 315 17 q 467 71 421 44 q 541 135 513 97 q 569 219 569 172 q 533 287 569 265 q 446 308 496 308 q 384 301 415 308 q 325 278 353 293 q 224 197 268 247 q 168 104 179 147 q 158 94 168 94 q 150 110 147 94 q 208 221 164 169 q 313 303 253 272 q 454 336 378 336 q 575 305 524 336 q 626 211 626 274 q 595 120 626 161 q 514 49 564 79 q 408 3 464 19 q 300 -12 351 -12 z "},"7":{"ha":614,"x_min":71,"x_max":711,"o":"m 142 -49 q 132 -44 138 -49 q 125 -35 126 -40 q 122 -21 124 -28 q 119 -7 121 -14 q 138 99 117 43 q 190 206 158 154 q 247 294 221 258 q 381 456 303 368 q 579 651 460 543 q 478 668 536 658 q 346 678 419 678 q 247 669 292 678 q 169 633 201 661 q 124 549 138 606 q 97 526 118 526 q 71 554 74 526 l 71 565 q 72 569 71 568 q 72 572 72 571 q 88 612 76 585 q 99 653 99 639 l 99 685 q 107 692 101 694 q 110 689 107 692 q 115 679 113 686 q 117 668 117 674 q 118 656 117 663 q 210 712 156 694 q 319 729 265 729 q 392 722 354 729 q 468 706 431 715 q 542 689 506 697 q 608 676 578 681 q 635 699 621 688 q 663 721 649 710 q 667 722 663 722 q 680 718 672 722 q 693 707 688 714 q 707 688 703 697 q 704 674 711 678 q 448 446 546 543 q 286 275 350 349 q 226 192 258 244 q 172 85 193 140 q 153 -15 150 29 q 153 -26 153 -21 q 156 -35 154 -31 l 156 -37 q 142 -49 156 -49 z "},"8":{"ha":729,"x_min":0,"x_max":757,"o":"m 222 -24 q 110 -8 161 -24 q 30 42 60 8 q 0 129 0 76 q 32 226 0 178 q 115 319 64 274 q 224 403 165 364 q 336 474 283 443 q 278 514 301 493 q 251 560 254 535 q 270 631 246 597 q 337 690 294 664 q 428 729 379 715 q 524 743 478 743 q 590 735 556 743 q 647 710 624 728 q 669 663 669 693 q 668 650 669 656 q 699 663 682 656 q 735 678 715 669 l 740 679 l 743 679 q 757 664 754 679 l 757 660 q 731 632 757 642 q 597 581 669 613 q 431 496 525 549 q 546 444 493 472 q 631 379 599 415 q 664 293 664 343 q 623 160 664 219 q 515 60 582 101 q 372 -2 449 19 q 222 -24 294 -24 m 324 578 q 351 538 331 551 q 394 510 372 524 q 497 568 458 547 q 564 603 535 589 q 629 633 593 618 q 633 651 632 643 l 633 660 q 612 691 633 681 q 561 705 590 701 q 511 708 532 708 q 418 693 461 708 q 348 653 375 678 q 321 596 321 628 q 324 578 321 589 m 225 6 q 347 24 283 6 q 465 79 410 43 q 554 165 519 115 q 589 274 589 214 q 560 346 589 317 q 481 400 531 375 q 371 456 432 425 q 315 418 351 443 q 235 359 278 393 q 153 285 192 325 q 89 205 114 246 q 64 124 64 164 q 110 34 64 63 q 225 6 157 6 z "},"9":{"ha":617,"x_min":69,"x_max":686,"o":"m 288 -68 q 278 -64 283 -68 q 269 -54 272 -60 q 258 -26 263 -39 q 254 -3 256 -15 q 253 22 253 10 q 266 113 253 67 q 298 202 279 160 q 333 275 317 244 q 404 392 365 329 q 501 529 443 456 q 365 428 426 468 q 251 372 303 388 q 206 360 228 364 q 167 357 185 357 q 94 381 119 357 q 69 442 69 404 q 98 530 69 482 q 183 621 126 578 q 292 681 231 657 q 418 717 353 704 q 544 735 483 731 q 649 739 604 740 q 678 728 678 739 q 660 708 678 718 q 635 697 642 697 q 483 685 565 699 q 328 644 401 671 q 211 579 256 618 q 149 508 169 543 q 129 444 129 472 q 144 406 129 421 q 188 392 158 392 q 267 413 219 392 q 381 479 319 436 q 503 574 443 522 q 611 676 564 626 q 631 682 617 682 q 666 675 646 682 q 686 653 686 668 q 679 639 686 646 q 636 592 664 621 q 576 524 608 563 q 458 375 503 440 q 376 256 413 310 q 338 187 358 229 q 303 97 317 144 q 289 7 289 50 q 293 -35 289 -15 q 297 -44 294 -40 q 300 -54 300 -49 l 300 -57 q 288 -68 300 -68 z "},"\r":{"ha":260,"x_min":0,"x_max":0,"o":""}," ":{"ha":347,"x_min":0,"x_max":0,"o":""}," ":{"ha":347,"x_min":0,"x_max":0,"o":""},"A":{"ha":825,"x_min":-44,"x_max":725,"o":"m -22 -43 q -36 -42 -28 -43 q -44 -32 -44 -40 q -35 -13 -44 -28 q -17 17 -26 1 q -4 38 -7 32 q 2 52 0 44 q 7 65 4 60 q 24 75 10 75 q 32 74 29 75 q 87 164 57 117 q 142 249 117 211 q 175 297 167 286 q 146 296 161 297 q 114 294 131 294 q 88 297 104 294 q 72 310 72 300 q 73 312 72 311 q 74 314 74 313 q 98 352 85 346 q 142 358 111 358 q 178 358 160 358 q 215 356 197 358 q 329 515 279 449 q 423 631 379 581 q 511 726 467 682 q 608 819 556 771 q 605 835 607 826 q 603 851 603 844 q 621 876 603 863 q 647 889 639 889 q 658 887 653 889 q 664 875 663 885 q 672 784 668 842 q 680 656 676 726 q 685 512 683 585 q 688 375 688 439 l 688 328 l 693 328 q 710 327 696 328 q 725 322 725 326 q 708 306 725 311 q 686 301 690 301 q 685 213 686 254 q 681 125 683 171 q 678 80 679 103 q 674 33 676 57 q 661 12 672 25 q 637 -12 650 -1 q 614 -22 624 -22 q 608 -17 608 -22 q 612 19 608 -14 q 619 82 615 51 q 623 120 621 88 q 628 201 625 153 q 631 299 631 249 q 487 298 597 299 q 214 297 376 297 q 186 256 204 283 q 149 200 168 229 q 118 147 131 171 q 74 74 99 114 q 31 0 50 35 q 17 -24 28 -6 q -3 -42 7 -42 q -4 -42 -3 -42 q -7 -40 -6 -42 q -22 -43 -11 -43 m 633 328 q 633 414 633 356 q 630 541 632 472 q 624 673 628 610 q 617 775 621 736 q 569 734 600 767 q 497 654 538 701 q 413 552 456 607 q 330 444 369 497 q 261 347 290 390 q 285 340 272 344 q 307 331 299 336 q 351 331 326 332 q 403 331 376 331 q 519 330 461 331 q 633 328 576 329 z "},"Æ":{"ha":1268,"x_min":11,"x_max":1240,"o":"m 33 -43 q 19 -42 28 -43 q 11 -32 11 -40 q 20 -13 11 -28 q 39 17 29 1 q 51 38 49 32 q 58 52 56 44 q 63 65 60 60 q 79 75 65 75 q 88 74 85 75 q 156 188 119 133 q 231 297 193 243 q 201 296 217 297 q 169 294 186 294 q 144 297 160 294 q 128 310 128 300 q 128 312 128 311 q 129 314 129 313 q 153 352 140 346 q 197 358 167 358 q 234 358 215 358 q 271 356 253 358 q 357 461 304 404 q 472 576 410 518 q 595 685 533 633 q 712 776 657 736 q 803 836 767 815 q 842 835 811 836 q 914 831 872 833 q 999 825 956 828 q 1077 821 1042 822 q 1128 819 1113 819 l 1136 819 q 1163 825 1156 819 q 1174 836 1169 831 q 1185 842 1178 842 q 1209 832 1194 842 q 1224 811 1224 822 q 1221 804 1224 806 q 1215 800 1218 803 q 1173 740 1182 778 q 1154 667 1164 703 q 1151 654 1153 663 q 1142 646 1149 646 q 1134 654 1136 646 q 1132 668 1132 663 q 1135 706 1132 682 q 1143 755 1139 731 q 1151 792 1147 779 q 1136 789 1147 789 q 1117 790 1126 789 q 1097 792 1107 792 q 1018 797 1058 794 q 938 800 978 800 q 900 799 926 800 q 864 792 874 799 q 853 762 861 789 q 837 694 846 735 q 819 607 828 653 q 801 521 810 561 q 789 456 793 481 l 772 364 q 776 361 774 361 q 804 358 789 358 q 833 357 819 357 l 947 357 q 982 357 956 357 q 1038 356 1008 357 q 1090 351 1068 354 q 1113 339 1113 347 q 1093 329 1113 333 q 1053 324 1074 325 q 1026 321 1032 322 q 931 316 979 318 q 835 314 882 314 l 763 314 q 738 193 751 253 q 724 89 724 133 q 725 63 724 75 q 731 42 726 51 q 764 18 738 25 q 820 9 790 11 q 864 7 850 7 q 883 7 874 7 q 900 8 892 7 q 1001 13 951 10 q 1101 24 1051 17 q 1165 36 1128 28 q 1225 44 1201 44 q 1234 44 1228 44 q 1240 42 1240 44 q 1234 33 1240 38 q 1225 26 1228 29 q 1148 -3 1193 8 q 1057 -20 1103 -15 q 975 -25 1011 -25 l 938 -25 q 896 -24 928 -25 q 824 -21 864 -24 q 744 -15 783 -18 q 678 -6 704 -11 q 649 8 651 0 q 646 35 646 19 q 658 147 646 75 q 689 293 671 218 q 636 292 663 292 q 582 292 610 292 q 424 294 504 292 q 269 297 344 297 q 197 190 233 243 q 129 81 160 138 l 86 0 q 73 -24 83 -6 q 53 -42 63 -42 q 51 -42 53 -42 q 49 -40 50 -42 q 33 -43 44 -43 m 353 329 q 406 331 379 331 q 458 331 432 331 q 577 331 513 331 q 697 329 642 331 l 708 367 l 718 407 q 734 479 726 443 q 749 551 742 515 q 762 663 756 607 q 772 774 768 718 q 686 717 736 754 q 580 631 636 679 q 470 531 524 582 q 373 431 417 479 q 304 347 329 383 q 330 340 317 344 q 353 329 343 336 z "},"Ǽ":{"ha":1268,"x_min":11,"x_max":1240,"o":"m 33 -43 q 19 -42 28 -43 q 11 -32 11 -40 q 20 -13 11 -28 q 39 17 29 1 q 51 38 49 32 q 58 52 56 44 q 63 65 60 60 q 79 75 65 75 q 88 74 85 75 q 156 188 119 133 q 231 297 193 243 q 201 296 217 297 q 169 294 186 294 q 144 297 160 294 q 128 310 128 300 q 128 312 128 311 q 129 314 129 313 q 153 352 140 346 q 197 358 167 358 q 234 358 215 358 q 271 356 253 358 q 357 461 304 404 q 472 576 410 518 q 595 685 533 633 q 712 776 657 736 q 803 836 767 815 q 842 835 811 836 q 914 831 872 833 q 999 825 956 828 q 1077 821 1042 822 q 1128 819 1113 819 l 1136 819 q 1163 825 1156 819 q 1174 836 1169 831 q 1185 842 1178 842 q 1209 832 1194 842 q 1224 811 1224 822 q 1221 804 1224 806 q 1215 800 1218 803 q 1173 740 1182 778 q 1154 667 1164 703 q 1151 654 1153 663 q 1142 646 1149 646 q 1134 654 1136 646 q 1132 668 1132 663 q 1135 706 1132 682 q 1143 755 1139 731 q 1151 792 1147 779 q 1136 789 1147 789 q 1117 790 1126 789 q 1097 792 1107 792 q 1018 797 1058 794 q 938 800 978 800 q 900 799 926 800 q 864 792 874 799 q 853 762 861 789 q 837 694 846 735 q 819 607 828 653 q 801 521 810 561 q 789 456 793 481 l 772 364 q 776 361 774 361 q 804 358 789 358 q 833 357 819 357 l 947 357 q 982 357 956 357 q 1038 356 1008 357 q 1090 351 1068 354 q 1113 339 1113 347 q 1093 329 1113 333 q 1053 324 1074 325 q 1026 321 1032 322 q 931 316 979 318 q 835 314 882 314 l 763 314 q 738 193 751 253 q 724 89 724 133 q 725 63 724 75 q 731 42 726 51 q 764 18 738 25 q 820 9 790 11 q 864 7 850 7 q 883 7 874 7 q 900 8 892 7 q 1001 13 951 10 q 1101 24 1051 17 q 1165 36 1128 28 q 1225 44 1201 44 q 1234 44 1228 44 q 1240 42 1240 44 q 1234 33 1240 38 q 1225 26 1228 29 q 1148 -3 1193 8 q 1057 -20 1103 -15 q 975 -25 1011 -25 l 938 -25 q 896 -24 928 -25 q 824 -21 864 -24 q 744 -15 783 -18 q 678 -6 704 -11 q 649 8 651 0 q 646 35 646 19 q 658 147 646 75 q 689 293 671 218 q 636 292 663 292 q 582 292 610 292 q 424 294 504 292 q 269 297 344 297 q 197 190 233 243 q 129 81 160 138 l 86 0 q 73 -24 83 -6 q 53 -42 63 -42 q 51 -42 53 -42 q 49 -40 50 -42 q 33 -43 44 -43 m 353 329 q 406 331 379 331 q 458 331 432 331 q 577 331 513 331 q 697 329 642 331 l 708 367 l 718 407 q 734 479 726 443 q 749 551 742 515 q 762 663 756 607 q 772 774 768 718 q 686 717 736 754 q 580 631 636 679 q 470 531 524 582 q 373 431 417 479 q 304 347 329 383 q 330 340 317 344 q 353 329 343 336 m 863 936 q 860 938 861 936 q 860 940 858 939 q 869 951 861 946 q 882 960 876 957 q 927 990 896 971 q 990 1028 958 1008 q 1035 1060 1021 1049 q 1050 1070 1042 1067 q 1068 1074 1058 1074 q 1094 1063 1082 1074 q 1104 1040 1107 1051 q 1076 1017 1103 1031 q 1014 989 1049 1004 q 960 967 993 981 q 900 944 928 953 q 863 936 872 935 z "},"Á":{"ha":825,"x_min":-44,"x_max":783,"o":"m -22 -43 q -36 -42 -28 -43 q -44 -32 -44 -40 q -35 -13 -44 -28 q -17 17 -26 1 q -4 38 -7 32 q 2 52 0 44 q 7 65 4 60 q 24 75 10 75 q 32 74 29 75 q 87 164 57 117 q 142 249 117 211 q 175 297 167 286 q 146 296 161 297 q 114 294 131 294 q 88 297 104 294 q 72 310 72 300 q 73 312 72 311 q 74 314 74 313 q 98 352 85 346 q 142 358 111 358 q 178 358 160 358 q 215 356 197 358 q 329 515 279 449 q 423 631 379 581 q 511 726 467 682 q 608 819 556 771 q 605 835 607 826 q 603 851 603 844 q 621 876 603 863 q 647 889 639 889 q 658 887 653 889 q 664 875 663 885 q 672 784 668 842 q 680 656 676 726 q 685 512 683 585 q 688 375 688 439 l 688 328 l 693 328 q 710 327 696 328 q 725 322 725 326 q 708 306 725 311 q 686 301 690 301 q 685 213 686 254 q 681 125 683 171 q 678 80 679 103 q 674 33 676 57 q 661 12 672 25 q 637 -12 650 -1 q 614 -22 624 -22 q 608 -17 608 -22 q 612 19 608 -14 q 619 82 615 51 q 623 120 621 88 q 628 201 625 153 q 631 299 631 249 q 487 298 597 299 q 214 297 376 297 q 186 256 204 283 q 149 200 168 229 q 118 147 131 171 q 74 74 99 114 q 31 0 50 35 q 17 -24 28 -6 q -3 -42 7 -42 q -4 -42 -3 -42 q -7 -40 -6 -42 q -22 -43 -11 -43 m 633 328 q 633 414 633 356 q 630 541 632 472 q 624 673 628 610 q 617 775 621 736 q 569 734 600 767 q 497 654 538 701 q 413 552 456 607 q 330 444 369 497 q 261 347 290 390 q 285 340 272 344 q 307 331 299 336 q 351 331 326 332 q 403 331 376 331 q 519 330 461 331 q 633 328 576 329 m 539 985 q 536 986 538 985 q 536 989 535 988 q 545 1000 538 994 q 558 1008 553 1006 q 603 1038 572 1019 q 666 1077 635 1057 q 711 1108 697 1097 q 726 1119 718 1115 q 744 1122 735 1122 q 771 1111 758 1122 q 781 1089 783 1100 q 752 1066 779 1079 q 690 1038 725 1053 q 637 1015 669 1029 q 576 992 604 1001 q 539 985 549 983 z "},"Ă":{"ha":825,"x_min":-44,"x_max":872,"o":"m -22 -43 q -36 -42 -28 -43 q -44 -32 -44 -40 q -35 -13 -44 -28 q -17 17 -26 1 q -4 38 -7 32 q 2 52 0 44 q 7 65 4 60 q 24 75 10 75 q 32 74 29 75 q 87 164 57 117 q 142 249 117 211 q 175 297 167 286 q 146 296 161 297 q 114 294 131 294 q 88 297 104 294 q 72 310 72 300 q 73 312 72 311 q 74 314 74 313 q 98 352 85 346 q 142 358 111 358 q 178 358 160 358 q 215 356 197 358 q 329 515 279 449 q 423 631 379 581 q 511 726 467 682 q 608 819 556 771 q 605 835 607 826 q 603 851 603 844 q 621 876 603 863 q 647 889 639 889 q 658 887 653 889 q 664 875 663 885 q 672 784 668 842 q 680 656 676 726 q 685 512 683 585 q 688 375 688 439 l 688 328 l 693 328 q 710 327 696 328 q 725 322 725 326 q 708 306 725 311 q 686 301 690 301 q 685 213 686 254 q 681 125 683 171 q 678 80 679 103 q 674 33 676 57 q 661 12 672 25 q 637 -12 650 -1 q 614 -22 624 -22 q 608 -17 608 -22 q 612 19 608 -14 q 619 82 615 51 q 623 120 621 88 q 628 201 625 153 q 631 299 631 249 q 487 298 597 299 q 214 297 376 297 q 186 256 204 283 q 149 200 168 229 q 118 147 131 171 q 74 74 99 114 q 31 0 50 35 q 17 -24 28 -6 q -3 -42 7 -42 q -4 -42 -3 -42 q -7 -40 -6 -42 q -22 -43 -11 -43 m 633 328 q 633 414 633 356 q 630 541 632 472 q 624 673 628 610 q 617 775 621 736 q 569 734 600 767 q 497 654 538 701 q 413 552 456 607 q 330 444 369 497 q 261 347 290 390 q 285 340 272 344 q 307 331 299 336 q 351 331 326 332 q 403 331 376 331 q 519 330 461 331 q 633 328 576 329 m 671 986 q 549 1069 553 986 q 549 1083 549 1076 q 550 1093 549 1089 q 558 1113 553 1108 q 569 1117 564 1117 q 583 1101 578 1117 q 611 1058 589 1078 q 683 1038 633 1038 q 753 1049 717 1038 q 840 1103 790 1060 q 861 1111 849 1111 q 861 1099 872 1111 q 822 1056 849 1083 q 758 1008 796 1029 q 671 986 719 986 z "},"Ắ":{"ha":825,"x_min":-44,"x_max":872,"o":"m -22 -43 q -36 -42 -28 -43 q -44 -32 -44 -40 q -35 -13 -44 -28 q -17 17 -26 1 q -4 38 -7 32 q 2 52 0 44 q 7 65 4 60 q 24 75 10 75 q 32 74 29 75 q 87 164 57 117 q 142 249 117 211 q 175 297 167 286 q 146 296 161 297 q 114 294 131 294 q 88 297 104 294 q 72 310 72 300 q 73 312 72 311 q 74 314 74 313 q 98 352 85 346 q 142 358 111 358 q 178 358 160 358 q 215 356 197 358 q 329 515 279 449 q 423 631 379 581 q 511 726 467 682 q 608 819 556 771 q 605 835 607 826 q 603 851 603 844 q 621 876 603 863 q 647 889 639 889 q 658 887 653 889 q 664 875 663 885 q 672 784 668 842 q 680 656 676 726 q 685 512 683 585 q 688 375 688 439 l 688 328 l 693 328 q 710 327 696 328 q 725 322 725 326 q 708 306 725 311 q 686 301 690 301 q 685 213 686 254 q 681 125 683 171 q 678 80 679 103 q 674 33 676 57 q 661 12 672 25 q 637 -12 650 -1 q 614 -22 624 -22 q 608 -17 608 -22 q 612 19 608 -14 q 619 82 615 51 q 623 120 621 88 q 628 201 625 153 q 631 299 631 249 q 487 298 597 299 q 214 297 376 297 q 186 256 204 283 q 149 200 168 229 q 118 147 131 171 q 74 74 99 114 q 31 0 50 35 q 17 -24 28 -6 q -3 -42 7 -42 q -4 -42 -3 -42 q -7 -40 -6 -42 q -22 -43 -11 -43 m 633 328 q 633 414 633 356 q 630 541 632 472 q 624 673 628 610 q 617 775 621 736 q 569 734 600 767 q 497 654 538 701 q 413 552 456 607 q 330 444 369 497 q 261 347 290 390 q 285 340 272 344 q 307 331 299 336 q 351 331 326 332 q 403 331 376 331 q 519 330 461 331 q 633 328 576 329 m 671 986 q 549 1069 553 986 q 549 1083 549 1076 q 550 1093 549 1089 q 558 1113 553 1108 q 569 1117 564 1117 q 583 1101 578 1117 q 611 1058 589 1078 q 683 1038 633 1038 q 753 1049 717 1038 q 840 1103 790 1060 q 861 1111 849 1111 q 861 1099 872 1111 q 822 1056 849 1083 q 758 1008 796 1029 q 671 986 719 986 m 597 1143 q 594 1144 596 1143 q 594 1147 593 1146 q 603 1158 596 1153 q 617 1167 611 1164 q 662 1197 631 1178 q 724 1235 693 1215 q 769 1267 756 1256 q 785 1277 776 1274 q 803 1281 793 1281 q 829 1269 817 1281 q 839 1247 842 1258 q 810 1224 838 1238 q 749 1196 783 1211 q 695 1174 728 1188 q 635 1151 663 1160 q 597 1143 607 1142 z "},"Ặ":{"ha":825,"x_min":-44,"x_max":872,"o":"m -22 -43 q -36 -42 -28 -43 q -44 -32 -44 -40 q -35 -13 -44 -28 q -17 17 -26 1 q -4 38 -7 32 q 2 52 0 44 q 7 65 4 60 q 24 75 10 75 q 32 74 29 75 q 87 164 57 117 q 142 249 117 211 q 175 297 167 286 q 146 296 161 297 q 114 294 131 294 q 88 297 104 294 q 72 310 72 300 q 73 312 72 311 q 74 314 74 313 q 98 352 85 346 q 142 358 111 358 q 178 358 160 358 q 215 356 197 358 q 329 515 279 449 q 423 631 379 581 q 511 726 467 682 q 608 819 556 771 q 605 835 607 826 q 603 851 603 844 q 621 876 603 863 q 647 889 639 889 q 658 887 653 889 q 664 875 663 885 q 672 784 668 842 q 680 656 676 726 q 685 512 683 585 q 688 375 688 439 l 688 328 l 693 328 q 710 327 696 328 q 725 322 725 326 q 708 306 725 311 q 686 301 690 301 q 685 213 686 254 q 681 125 683 171 q 678 80 679 103 q 674 33 676 57 q 661 12 672 25 q 637 -12 650 -1 q 614 -22 624 -22 q 608 -17 608 -22 q 612 19 608 -14 q 619 82 615 51 q 623 120 621 88 q 628 201 625 153 q 631 299 631 249 q 487 298 597 299 q 214 297 376 297 q 186 256 204 283 q 149 200 168 229 q 118 147 131 171 q 74 74 99 114 q 31 0 50 35 q 17 -24 28 -6 q -3 -42 7 -42 q -4 -42 -3 -42 q -7 -40 -6 -42 q -22 -43 -11 -43 m 633 328 q 633 414 633 356 q 630 541 632 472 q 624 673 628 610 q 617 775 621 736 q 569 734 600 767 q 497 654 538 701 q 413 552 456 607 q 330 444 369 497 q 261 347 290 390 q 285 340 272 344 q 307 331 299 336 q 351 331 326 332 q 403 331 376 331 q 519 330 461 331 q 633 328 576 329 m 268 -211 q 246 -194 256 -211 q 236 -167 236 -176 q 255 -134 236 -150 q 297 -108 274 -118 q 332 -97 319 -97 q 343 -106 343 -97 q 322 -153 343 -121 q 312 -175 317 -161 q 298 -200 307 -189 q 268 -211 289 -211 m 671 986 q 549 1069 553 986 q 549 1083 549 1076 q 550 1093 549 1089 q 558 1113 553 1108 q 569 1117 564 1117 q 583 1101 578 1117 q 611 1058 589 1078 q 683 1038 633 1038 q 753 1049 717 1038 q 840 1103 790 1060 q 861 1111 849 1111 q 861 1099 872 1111 q 822 1056 849 1083 q 758 1008 796 1029 q 671 986 719 986 z "},"Ằ":{"ha":825,"x_min":-44,"x_max":872,"o":"m -22 -43 q -36 -42 -28 -43 q -44 -32 -44 -40 q -35 -13 -44 -28 q -17 17 -26 1 q -4 38 -7 32 q 2 52 0 44 q 7 65 4 60 q 24 75 10 75 q 32 74 29 75 q 87 164 57 117 q 142 249 117 211 q 175 297 167 286 q 146 296 161 297 q 114 294 131 294 q 88 297 104 294 q 72 310 72 300 q 73 312 72 311 q 74 314 74 313 q 98 352 85 346 q 142 358 111 358 q 178 358 160 358 q 215 356 197 358 q 329 515 279 449 q 423 631 379 581 q 511 726 467 682 q 608 819 556 771 q 605 835 607 826 q 603 851 603 844 q 621 876 603 863 q 647 889 639 889 q 658 887 653 889 q 664 875 663 885 q 672 784 668 842 q 680 656 676 726 q 685 512 683 585 q 688 375 688 439 l 688 328 l 693 328 q 710 327 696 328 q 725 322 725 326 q 708 306 725 311 q 686 301 690 301 q 685 213 686 254 q 681 125 683 171 q 678 80 679 103 q 674 33 676 57 q 661 12 672 25 q 637 -12 650 -1 q 614 -22 624 -22 q 608 -17 608 -22 q 612 19 608 -14 q 619 82 615 51 q 623 120 621 88 q 628 201 625 153 q 631 299 631 249 q 487 298 597 299 q 214 297 376 297 q 186 256 204 283 q 149 200 168 229 q 118 147 131 171 q 74 74 99 114 q 31 0 50 35 q 17 -24 28 -6 q -3 -42 7 -42 q -4 -42 -3 -42 q -7 -40 -6 -42 q -22 -43 -11 -43 m 633 328 q 633 414 633 356 q 630 541 632 472 q 624 673 628 610 q 617 775 621 736 q 569 734 600 767 q 497 654 538 701 q 413 552 456 607 q 330 444 369 497 q 261 347 290 390 q 285 340 272 344 q 307 331 299 336 q 351 331 326 332 q 403 331 376 331 q 519 330 461 331 q 633 328 576 329 m 671 986 q 549 1069 553 986 q 549 1083 549 1076 q 550 1093 549 1089 q 558 1113 553 1108 q 569 1117 564 1117 q 583 1101 578 1117 q 611 1058 589 1078 q 683 1038 633 1038 q 753 1049 717 1038 q 840 1103 790 1060 q 861 1111 849 1111 q 861 1099 872 1111 q 822 1056 849 1083 q 758 1008 796 1029 q 671 986 719 986 m 814 1143 q 777 1151 806 1142 q 716 1174 749 1160 q 663 1196 683 1188 q 601 1224 628 1211 q 572 1247 575 1238 q 583 1269 571 1258 q 608 1281 594 1281 q 627 1277 619 1281 q 642 1267 635 1274 q 688 1235 657 1256 q 749 1197 718 1215 q 794 1167 781 1178 q 808 1158 800 1164 q 817 1147 815 1153 q 817 1144 818 1146 q 814 1143 815 1143 z "},"Ẳ":{"ha":825,"x_min":-44,"x_max":872,"o":"m -22 -43 q -36 -42 -28 -43 q -44 -32 -44 -40 q -35 -13 -44 -28 q -17 17 -26 1 q -4 38 -7 32 q 2 52 0 44 q 7 65 4 60 q 24 75 10 75 q 32 74 29 75 q 87 164 57 117 q 142 249 117 211 q 175 297 167 286 q 146 296 161 297 q 114 294 131 294 q 88 297 104 294 q 72 310 72 300 q 73 312 72 311 q 74 314 74 313 q 98 352 85 346 q 142 358 111 358 q 178 358 160 358 q 215 356 197 358 q 329 515 279 449 q 423 631 379 581 q 511 726 467 682 q 608 819 556 771 q 605 835 607 826 q 603 851 603 844 q 621 876 603 863 q 647 889 639 889 q 658 887 653 889 q 664 875 663 885 q 672 784 668 842 q 680 656 676 726 q 685 512 683 585 q 688 375 688 439 l 688 328 l 693 328 q 710 327 696 328 q 725 322 725 326 q 708 306 725 311 q 686 301 690 301 q 685 213 686 254 q 681 125 683 171 q 678 80 679 103 q 674 33 676 57 q 661 12 672 25 q 637 -12 650 -1 q 614 -22 624 -22 q 608 -17 608 -22 q 612 19 608 -14 q 619 82 615 51 q 623 120 621 88 q 628 201 625 153 q 631 299 631 249 q 487 298 597 299 q 214 297 376 297 q 186 256 204 283 q 149 200 168 229 q 118 147 131 171 q 74 74 99 114 q 31 0 50 35 q 17 -24 28 -6 q -3 -42 7 -42 q -4 -42 -3 -42 q -7 -40 -6 -42 q -22 -43 -11 -43 m 633 328 q 633 414 633 356 q 630 541 632 472 q 624 673 628 610 q 617 775 621 736 q 569 734 600 767 q 497 654 538 701 q 413 552 456 607 q 330 444 369 497 q 261 347 290 390 q 285 340 272 344 q 307 331 299 336 q 351 331 326 332 q 403 331 376 331 q 519 330 461 331 q 633 328 576 329 m 671 986 q 549 1069 553 986 q 549 1083 549 1076 q 550 1093 549 1089 q 558 1113 553 1108 q 569 1117 564 1117 q 583 1101 578 1117 q 611 1058 589 1078 q 683 1038 633 1038 q 753 1049 717 1038 q 840 1103 790 1060 q 861 1111 849 1111 q 861 1099 872 1111 q 822 1056 849 1083 q 758 1008 796 1029 q 671 986 719 986 m 715 1138 q 706 1150 706 1138 q 708 1158 706 1154 q 711 1165 710 1161 q 724 1183 718 1176 q 746 1203 729 1189 q 773 1234 765 1218 q 781 1264 781 1250 q 743 1286 781 1286 q 690 1273 713 1286 q 655 1251 667 1260 q 646 1257 643 1243 q 683 1306 651 1285 q 767 1326 715 1326 q 822 1308 803 1326 q 840 1275 840 1290 q 793 1196 840 1229 q 754 1167 767 1178 q 731 1147 742 1157 q 715 1138 724 1138 z "},"Ẵ":{"ha":825,"x_min":-44,"x_max":913,"o":"m -22 -43 q -36 -42 -28 -43 q -44 -32 -44 -40 q -35 -13 -44 -28 q -17 17 -26 1 q -4 38 -7 32 q 2 52 0 44 q 7 65 4 60 q 24 75 10 75 q 32 74 29 75 q 87 164 57 117 q 142 249 117 211 q 175 297 167 286 q 146 296 161 297 q 114 294 131 294 q 88 297 104 294 q 72 310 72 300 q 73 312 72 311 q 74 314 74 313 q 98 352 85 346 q 142 358 111 358 q 178 358 160 358 q 215 356 197 358 q 329 515 279 449 q 423 631 379 581 q 511 726 467 682 q 608 819 556 771 q 605 835 607 826 q 603 851 603 844 q 621 876 603 863 q 647 889 639 889 q 658 887 653 889 q 664 875 663 885 q 672 784 668 842 q 680 656 676 726 q 685 512 683 585 q 688 375 688 439 l 688 328 l 693 328 q 710 327 696 328 q 725 322 725 326 q 708 306 725 311 q 686 301 690 301 q 685 213 686 254 q 681 125 683 171 q 678 80 679 103 q 674 33 676 57 q 661 12 672 25 q 637 -12 650 -1 q 614 -22 624 -22 q 608 -17 608 -22 q 612 19 608 -14 q 619 82 615 51 q 623 120 621 88 q 628 201 625 153 q 631 299 631 249 q 487 298 597 299 q 214 297 376 297 q 186 256 204 283 q 149 200 168 229 q 118 147 131 171 q 74 74 99 114 q 31 0 50 35 q 17 -24 28 -6 q -3 -42 7 -42 q -4 -42 -3 -42 q -7 -40 -6 -42 q -22 -43 -11 -43 m 633 328 q 633 414 633 356 q 630 541 632 472 q 624 673 628 610 q 617 775 621 736 q 569 734 600 767 q 497 654 538 701 q 413 552 456 607 q 330 444 369 497 q 261 347 290 390 q 285 340 272 344 q 307 331 299 336 q 351 331 326 332 q 403 331 376 331 q 519 330 461 331 q 633 328 576 329 m 671 986 q 549 1069 553 986 q 549 1083 549 1076 q 550 1093 549 1089 q 558 1113 553 1108 q 569 1117 564 1117 q 583 1101 578 1117 q 611 1058 589 1078 q 683 1038 633 1038 q 753 1049 717 1038 q 840 1103 790 1060 q 861 1111 849 1111 q 861 1099 872 1111 q 822 1056 849 1083 q 758 1008 796 1029 q 671 986 719 986 m 825 1138 q 767 1149 800 1138 q 703 1170 735 1160 q 647 1181 671 1181 q 613 1171 629 1181 q 584 1151 596 1161 q 567 1142 572 1142 q 563 1149 563 1142 q 579 1177 565 1158 q 615 1213 593 1196 q 661 1229 638 1229 q 715 1219 685 1229 q 779 1200 746 1210 q 846 1190 813 1190 q 885 1206 868 1190 q 907 1222 901 1221 q 910 1204 913 1222 q 876 1160 897 1182 q 825 1138 854 1138 z "},"Ǎ":{"ha":825,"x_min":-44,"x_max":907,"o":"m 904 1153 q 906 1152 904 1153 q 907 1150 907 1151 q 896 1137 906 1144 q 881 1126 886 1129 q 819 1086 853 1108 q 754 1043 785 1064 q 706 1007 724 1022 q 661 986 685 986 q 629 1007 639 986 q 594 1064 619 1029 q 551 1126 569 1099 q 546 1137 550 1129 q 543 1150 542 1144 q 549 1153 546 1153 q 570 1140 554 1153 q 607 1108 586 1126 q 646 1072 628 1089 q 672 1044 664 1054 q 737 1078 700 1060 q 809 1114 774 1097 q 871 1142 844 1131 q 904 1153 897 1153 m -22 -43 q -36 -42 -28 -43 q -44 -32 -44 -40 q -35 -13 -44 -28 q -17 17 -26 1 q -4 38 -7 32 q 2 52 0 44 q 7 65 4 60 q 24 75 10 75 q 32 74 29 75 q 87 164 57 117 q 142 249 117 211 q 175 297 167 286 q 146 296 161 297 q 114 294 131 294 q 88 297 104 294 q 72 310 72 300 q 73 312 72 311 q 74 314 74 313 q 98 352 85 346 q 142 358 111 358 q 178 358 160 358 q 215 356 197 358 q 329 515 279 449 q 423 631 379 581 q 511 726 467 682 q 608 819 556 771 q 605 835 607 826 q 603 851 603 844 q 621 876 603 863 q 647 889 639 889 q 658 887 653 889 q 664 875 663 885 q 672 784 668 842 q 680 656 676 726 q 685 512 683 585 q 688 375 688 439 l 688 328 l 693 328 q 710 327 696 328 q 725 322 725 326 q 708 306 725 311 q 686 301 690 301 q 685 213 686 254 q 681 125 683 171 q 678 80 679 103 q 674 33 676 57 q 661 12 672 25 q 637 -12 650 -1 q 614 -22 624 -22 q 608 -17 608 -22 q 612 19 608 -14 q 619 82 615 51 q 623 120 621 88 q 628 201 625 153 q 631 299 631 249 q 487 298 597 299 q 214 297 376 297 q 186 256 204 283 q 149 200 168 229 q 118 147 131 171 q 74 74 99 114 q 31 0 50 35 q 17 -24 28 -6 q -3 -42 7 -42 q -4 -42 -3 -42 q -7 -40 -6 -42 q -22 -43 -11 -43 m 633 328 q 633 414 633 356 q 630 541 632 472 q 624 673 628 610 q 617 775 621 736 q 569 734 600 767 q 497 654 538 701 q 413 552 456 607 q 330 444 369 497 q 261 347 290 390 q 285 340 272 344 q 307 331 299 336 q 351 331 326 332 q 403 331 376 331 q 519 330 461 331 q 633 328 576 329 z "},"Â":{"ha":825,"x_min":-44,"x_max":842,"o":"m -22 -43 q -36 -42 -28 -43 q -44 -32 -44 -40 q -35 -13 -44 -28 q -17 17 -26 1 q -4 38 -7 32 q 2 52 0 44 q 7 65 4 60 q 24 75 10 75 q 32 74 29 75 q 87 164 57 117 q 142 249 117 211 q 175 297 167 286 q 146 296 161 297 q 114 294 131 294 q 88 297 104 294 q 72 310 72 300 q 73 312 72 311 q 74 314 74 313 q 98 352 85 346 q 142 358 111 358 q 178 358 160 358 q 215 356 197 358 q 329 515 279 449 q 423 631 379 581 q 511 726 467 682 q 608 819 556 771 q 605 835 607 826 q 603 851 603 844 q 621 876 603 863 q 647 889 639 889 q 658 887 653 889 q 664 875 663 885 q 672 784 668 842 q 680 656 676 726 q 685 512 683 585 q 688 375 688 439 l 688 328 l 693 328 q 710 327 696 328 q 725 322 725 326 q 708 306 725 311 q 686 301 690 301 q 685 213 686 254 q 681 125 683 171 q 678 80 679 103 q 674 33 676 57 q 661 12 672 25 q 637 -12 650 -1 q 614 -22 624 -22 q 608 -17 608 -22 q 612 19 608 -14 q 619 82 615 51 q 623 120 621 88 q 628 201 625 153 q 631 299 631 249 q 487 298 597 299 q 214 297 376 297 q 186 256 204 283 q 149 200 168 229 q 118 147 131 171 q 74 74 99 114 q 31 0 50 35 q 17 -24 28 -6 q -3 -42 7 -42 q -4 -42 -3 -42 q -7 -40 -6 -42 q -22 -43 -11 -43 m 633 328 q 633 414 633 356 q 630 541 632 472 q 624 673 628 610 q 617 775 621 736 q 569 734 600 767 q 497 654 538 701 q 413 552 456 607 q 330 444 369 497 q 261 347 290 390 q 285 340 272 344 q 307 331 299 336 q 351 331 326 332 q 403 331 376 331 q 519 330 461 331 q 633 328 576 329 m 478 976 q 476 977 478 976 q 475 979 475 978 q 487 993 478 986 q 501 1003 496 1000 q 563 1044 529 1022 q 628 1087 597 1065 q 676 1122 660 1108 q 721 1143 697 1143 q 753 1122 743 1143 q 788 1065 764 1100 q 831 1003 813 1031 q 838 993 833 1000 q 839 979 842 986 q 833 976 836 976 q 812 990 828 976 q 775 1022 796 1003 q 736 1058 754 1040 q 710 1085 718 1075 q 645 1051 682 1069 q 573 1015 608 1032 q 511 988 538 999 q 478 976 485 976 z "},"Ấ":{"ha":825,"x_min":-44,"x_max":1114,"o":"m -22 -43 q -36 -42 -28 -43 q -44 -32 -44 -40 q -35 -13 -44 -28 q -17 17 -26 1 q -4 38 -7 32 q 2 52 0 44 q 7 65 4 60 q 24 75 10 75 q 32 74 29 75 q 87 164 57 117 q 142 249 117 211 q 175 297 167 286 q 146 296 161 297 q 114 294 131 294 q 88 297 104 294 q 72 310 72 300 q 73 312 72 311 q 74 314 74 313 q 98 352 85 346 q 142 358 111 358 q 178 358 160 358 q 215 356 197 358 q 329 515 279 449 q 423 631 379 581 q 511 726 467 682 q 608 819 556 771 q 605 835 607 826 q 603 851 603 844 q 621 876 603 863 q 647 889 639 889 q 658 887 653 889 q 664 875 663 885 q 672 784 668 842 q 680 656 676 726 q 685 512 683 585 q 688 375 688 439 l 688 328 l 693 328 q 710 327 696 328 q 725 322 725 326 q 708 306 725 311 q 686 301 690 301 q 685 213 686 254 q 681 125 683 171 q 678 80 679 103 q 674 33 676 57 q 661 12 672 25 q 637 -12 650 -1 q 614 -22 624 -22 q 608 -17 608 -22 q 612 19 608 -14 q 619 82 615 51 q 623 120 621 88 q 628 201 625 153 q 631 299 631 249 q 487 298 597 299 q 214 297 376 297 q 186 256 204 283 q 149 200 168 229 q 118 147 131 171 q 74 74 99 114 q 31 0 50 35 q 17 -24 28 -6 q -3 -42 7 -42 q -4 -42 -3 -42 q -7 -40 -6 -42 q -22 -43 -11 -43 m 633 328 q 633 414 633 356 q 630 541 632 472 q 624 673 628 610 q 617 775 621 736 q 569 734 600 767 q 497 654 538 701 q 413 552 456 607 q 330 444 369 497 q 261 347 290 390 q 285 340 272 344 q 307 331 299 336 q 351 331 326 332 q 403 331 376 331 q 519 330 461 331 q 633 328 576 329 m 478 976 q 476 977 478 976 q 475 979 475 978 q 487 993 478 986 q 501 1003 496 1000 q 563 1044 529 1022 q 628 1087 597 1065 q 676 1122 660 1108 q 721 1143 697 1143 q 753 1122 743 1143 q 788 1065 764 1100 q 831 1003 813 1031 q 838 993 833 1000 q 839 979 842 986 q 833 976 836 976 q 812 990 828 976 q 775 1022 796 1003 q 736 1058 754 1040 q 710 1085 718 1075 q 645 1051 682 1069 q 573 1015 608 1032 q 511 988 538 999 q 478 976 485 976 m 869 1078 q 867 1079 868 1078 q 867 1082 865 1081 q 876 1093 868 1088 q 889 1101 883 1099 q 934 1131 903 1113 q 997 1170 965 1150 q 1042 1201 1028 1190 q 1057 1212 1049 1208 q 1075 1215 1065 1215 q 1101 1204 1089 1215 q 1111 1182 1114 1193 q 1083 1159 1110 1172 q 1021 1131 1056 1146 q 967 1108 1000 1122 q 907 1085 935 1094 q 869 1078 879 1076 z "},"Ậ":{"ha":825,"x_min":-44,"x_max":842,"o":"m -22 -43 q -36 -42 -28 -43 q -44 -32 -44 -40 q -35 -13 -44 -28 q -17 17 -26 1 q -4 38 -7 32 q 2 52 0 44 q 7 65 4 60 q 24 75 10 75 q 32 74 29 75 q 87 164 57 117 q 142 249 117 211 q 175 297 167 286 q 146 296 161 297 q 114 294 131 294 q 88 297 104 294 q 72 310 72 300 q 73 312 72 311 q 74 314 74 313 q 98 352 85 346 q 142 358 111 358 q 178 358 160 358 q 215 356 197 358 q 329 515 279 449 q 423 631 379 581 q 511 726 467 682 q 608 819 556 771 q 605 835 607 826 q 603 851 603 844 q 621 876 603 863 q 647 889 639 889 q 658 887 653 889 q 664 875 663 885 q 672 784 668 842 q 680 656 676 726 q 685 512 683 585 q 688 375 688 439 l 688 328 l 693 328 q 710 327 696 328 q 725 322 725 326 q 708 306 725 311 q 686 301 690 301 q 685 213 686 254 q 681 125 683 171 q 678 80 679 103 q 674 33 676 57 q 661 12 672 25 q 637 -12 650 -1 q 614 -22 624 -22 q 608 -17 608 -22 q 612 19 608 -14 q 619 82 615 51 q 623 120 621 88 q 628 201 625 153 q 631 299 631 249 q 487 298 597 299 q 214 297 376 297 q 186 256 204 283 q 149 200 168 229 q 118 147 131 171 q 74 74 99 114 q 31 0 50 35 q 17 -24 28 -6 q -3 -42 7 -42 q -4 -42 -3 -42 q -7 -40 -6 -42 q -22 -43 -11 -43 m 633 328 q 633 414 633 356 q 630 541 632 472 q 624 673 628 610 q 617 775 621 736 q 569 734 600 767 q 497 654 538 701 q 413 552 456 607 q 330 444 369 497 q 261 347 290 390 q 285 340 272 344 q 307 331 299 336 q 351 331 326 332 q 403 331 376 331 q 519 330 461 331 q 633 328 576 329 m 268 -211 q 246 -194 256 -211 q 236 -167 236 -176 q 255 -134 236 -150 q 297 -108 274 -118 q 332 -97 319 -97 q 343 -106 343 -97 q 322 -153 343 -121 q 312 -175 317 -161 q 298 -200 307 -189 q 268 -211 289 -211 m 478 976 q 476 977 478 976 q 475 979 475 978 q 487 993 478 986 q 501 1003 496 1000 q 563 1044 529 1022 q 628 1087 597 1065 q 676 1122 660 1108 q 721 1143 697 1143 q 753 1122 743 1143 q 788 1065 764 1100 q 831 1003 813 1031 q 838 993 833 1000 q 839 979 842 986 q 833 976 836 976 q 812 990 828 976 q 775 1022 796 1003 q 736 1058 754 1040 q 710 1085 718 1075 q 645 1051 682 1069 q 573 1015 608 1032 q 511 988 538 999 q 478 976 485 976 z "},"Ầ":{"ha":825,"x_min":-44,"x_max":942,"o":"m -22 -43 q -36 -42 -28 -43 q -44 -32 -44 -40 q -35 -13 -44 -28 q -17 17 -26 1 q -4 38 -7 32 q 2 52 0 44 q 7 65 4 60 q 24 75 10 75 q 32 74 29 75 q 87 164 57 117 q 142 249 117 211 q 175 297 167 286 q 146 296 161 297 q 114 294 131 294 q 88 297 104 294 q 72 310 72 300 q 73 312 72 311 q 74 314 74 313 q 98 352 85 346 q 142 358 111 358 q 178 358 160 358 q 215 356 197 358 q 329 515 279 449 q 423 631 379 581 q 511 726 467 682 q 608 819 556 771 q 605 835 607 826 q 603 851 603 844 q 621 876 603 863 q 647 889 639 889 q 658 887 653 889 q 664 875 663 885 q 672 784 668 842 q 680 656 676 726 q 685 512 683 585 q 688 375 688 439 l 688 328 l 693 328 q 710 327 696 328 q 725 322 725 326 q 708 306 725 311 q 686 301 690 301 q 685 213 686 254 q 681 125 683 171 q 678 80 679 103 q 674 33 676 57 q 661 12 672 25 q 637 -12 650 -1 q 614 -22 624 -22 q 608 -17 608 -22 q 612 19 608 -14 q 619 82 615 51 q 623 120 621 88 q 628 201 625 153 q 631 299 631 249 q 487 298 597 299 q 214 297 376 297 q 186 256 204 283 q 149 200 168 229 q 118 147 131 171 q 74 74 99 114 q 31 0 50 35 q 17 -24 28 -6 q -3 -42 7 -42 q -4 -42 -3 -42 q -7 -40 -6 -42 q -22 -43 -11 -43 m 633 328 q 633 414 633 356 q 630 541 632 472 q 624 673 628 610 q 617 775 621 736 q 569 734 600 767 q 497 654 538 701 q 413 552 456 607 q 330 444 369 497 q 261 347 290 390 q 285 340 272 344 q 307 331 299 336 q 351 331 326 332 q 403 331 376 331 q 519 330 461 331 q 633 328 576 329 m 478 976 q 476 977 478 976 q 475 979 475 978 q 487 993 478 986 q 501 1003 496 1000 q 563 1044 529 1022 q 628 1087 597 1065 q 676 1122 660 1108 q 721 1143 697 1143 q 753 1122 743 1143 q 788 1065 764 1100 q 831 1003 813 1031 q 838 993 833 1000 q 839 979 842 986 q 833 976 836 976 q 812 990 828 976 q 775 1022 796 1003 q 736 1058 754 1040 q 710 1085 718 1075 q 645 1051 682 1069 q 573 1015 608 1032 q 511 988 538 999 q 478 976 485 976 m 938 1119 q 901 1127 929 1118 q 840 1150 872 1136 q 786 1172 807 1164 q 725 1201 751 1188 q 696 1224 699 1214 q 706 1246 694 1235 q 732 1257 718 1257 q 751 1253 743 1257 q 765 1243 758 1250 q 811 1212 781 1232 q 873 1173 842 1192 q 918 1143 904 1154 q 931 1135 924 1140 q 940 1124 939 1129 q 940 1121 942 1122 q 938 1119 939 1119 z "},"Ẩ":{"ha":825,"x_min":-44,"x_max":972,"o":"m -22 -43 q -36 -42 -28 -43 q -44 -32 -44 -40 q -35 -13 -44 -28 q -17 17 -26 1 q -4 38 -7 32 q 2 52 0 44 q 7 65 4 60 q 24 75 10 75 q 32 74 29 75 q 87 164 57 117 q 142 249 117 211 q 175 297 167 286 q 146 296 161 297 q 114 294 131 294 q 88 297 104 294 q 72 310 72 300 q 73 312 72 311 q 74 314 74 313 q 98 352 85 346 q 142 358 111 358 q 178 358 160 358 q 215 356 197 358 q 329 515 279 449 q 423 631 379 581 q 511 726 467 682 q 608 819 556 771 q 605 835 607 826 q 603 851 603 844 q 621 876 603 863 q 647 889 639 889 q 658 887 653 889 q 664 875 663 885 q 672 784 668 842 q 680 656 676 726 q 685 512 683 585 q 688 375 688 439 l 688 328 l 693 328 q 710 327 696 328 q 725 322 725 326 q 708 306 725 311 q 686 301 690 301 q 685 213 686 254 q 681 125 683 171 q 678 80 679 103 q 674 33 676 57 q 661 12 672 25 q 637 -12 650 -1 q 614 -22 624 -22 q 608 -17 608 -22 q 612 19 608 -14 q 619 82 615 51 q 623 120 621 88 q 628 201 625 153 q 631 299 631 249 q 487 298 597 299 q 214 297 376 297 q 186 256 204 283 q 149 200 168 229 q 118 147 131 171 q 74 74 99 114 q 31 0 50 35 q 17 -24 28 -6 q -3 -42 7 -42 q -4 -42 -3 -42 q -7 -40 -6 -42 q -22 -43 -11 -43 m 633 328 q 633 414 633 356 q 630 541 632 472 q 624 673 628 610 q 617 775 621 736 q 569 734 600 767 q 497 654 538 701 q 413 552 456 607 q 330 444 369 497 q 261 347 290 390 q 285 340 272 344 q 307 331 299 336 q 351 331 326 332 q 403 331 376 331 q 519 330 461 331 q 633 328 576 329 m 478 976 q 476 977 478 976 q 475 979 475 978 q 487 993 478 986 q 501 1003 496 1000 q 563 1044 529 1022 q 628 1087 597 1065 q 676 1122 660 1108 q 721 1143 697 1143 q 753 1122 743 1143 q 788 1065 764 1100 q 831 1003 813 1031 q 838 993 833 1000 q 839 979 842 986 q 833 976 836 976 q 812 990 828 976 q 775 1022 796 1003 q 736 1058 754 1040 q 710 1085 718 1075 q 645 1051 682 1069 q 573 1015 608 1032 q 511 988 538 999 q 478 976 485 976 m 847 1110 q 838 1122 838 1110 q 840 1130 838 1126 q 843 1138 842 1133 q 856 1155 850 1149 q 878 1175 861 1161 q 905 1206 897 1190 q 913 1236 913 1222 q 875 1258 913 1258 q 822 1245 844 1258 q 787 1224 799 1232 q 778 1229 775 1215 q 815 1278 783 1257 q 899 1299 847 1299 q 953 1281 935 1299 q 972 1247 972 1263 q 925 1168 972 1201 q 886 1140 899 1150 q 863 1119 874 1129 q 847 1110 856 1110 z "},"Ẫ":{"ha":825,"x_min":-44,"x_max":913,"o":"m -22 -43 q -36 -42 -28 -43 q -44 -32 -44 -40 q -35 -13 -44 -28 q -17 17 -26 1 q -4 38 -7 32 q 2 52 0 44 q 7 65 4 60 q 24 75 10 75 q 32 74 29 75 q 87 164 57 117 q 142 249 117 211 q 175 297 167 286 q 146 296 161 297 q 114 294 131 294 q 88 297 104 294 q 72 310 72 300 q 73 312 72 311 q 74 314 74 313 q 98 352 85 346 q 142 358 111 358 q 178 358 160 358 q 215 356 197 358 q 329 515 279 449 q 423 631 379 581 q 511 726 467 682 q 608 819 556 771 q 605 835 607 826 q 603 851 603 844 q 621 876 603 863 q 647 889 639 889 q 658 887 653 889 q 664 875 663 885 q 672 784 668 842 q 680 656 676 726 q 685 512 683 585 q 688 375 688 439 l 688 328 l 693 328 q 710 327 696 328 q 725 322 725 326 q 708 306 725 311 q 686 301 690 301 q 685 213 686 254 q 681 125 683 171 q 678 80 679 103 q 674 33 676 57 q 661 12 672 25 q 637 -12 650 -1 q 614 -22 624 -22 q 608 -17 608 -22 q 612 19 608 -14 q 619 82 615 51 q 623 120 621 88 q 628 201 625 153 q 631 299 631 249 q 487 298 597 299 q 214 297 376 297 q 186 256 204 283 q 149 200 168 229 q 118 147 131 171 q 74 74 99 114 q 31 0 50 35 q 17 -24 28 -6 q -3 -42 7 -42 q -4 -42 -3 -42 q -7 -40 -6 -42 q -22 -43 -11 -43 m 633 328 q 633 414 633 356 q 630 541 632 472 q 624 673 628 610 q 617 775 621 736 q 569 734 600 767 q 497 654 538 701 q 413 552 456 607 q 330 444 369 497 q 261 347 290 390 q 285 340 272 344 q 307 331 299 336 q 351 331 326 332 q 403 331 376 331 q 519 330 461 331 q 633 328 576 329 m 478 976 q 476 977 478 976 q 475 979 475 978 q 487 993 478 986 q 501 1003 496 1000 q 563 1044 529 1022 q 628 1087 597 1065 q 676 1122 660 1108 q 721 1143 697 1143 q 753 1122 743 1143 q 788 1065 764 1100 q 831 1003 813 1031 q 838 993 833 1000 q 839 979 842 986 q 833 976 836 976 q 812 990 828 976 q 775 1022 796 1003 q 736 1058 754 1040 q 710 1085 718 1075 q 645 1051 682 1069 q 573 1015 608 1032 q 511 988 538 999 q 478 976 485 976 m 825 1171 q 767 1182 800 1171 q 703 1203 735 1193 q 647 1214 671 1214 q 613 1204 629 1214 q 584 1185 596 1194 q 567 1175 572 1175 q 563 1182 563 1175 q 579 1210 565 1192 q 615 1246 593 1229 q 661 1263 638 1263 q 715 1253 685 1263 q 779 1233 746 1243 q 846 1224 813 1224 q 885 1239 868 1224 q 907 1256 901 1254 q 910 1238 913 1256 q 876 1193 897 1215 q 825 1171 854 1171 z "},"Ȁ":{"ha":825,"x_min":-44,"x_max":725,"o":"m 596 986 q 562 1001 588 986 q 508 1037 536 1017 q 458 1069 479 1057 q 423 1096 446 1079 q 400 1122 400 1113 q 413 1141 400 1133 q 436 1149 426 1149 q 457 1142 449 1149 q 472 1126 465 1136 q 506 1090 485 1113 q 549 1047 528 1068 q 582 1013 571 1026 q 593 1003 586 1010 q 600 989 600 996 q 596 986 600 986 m 681 972 q 649 994 671 974 q 603 1040 628 1014 q 563 1082 579 1065 q 533 1114 553 1093 q 517 1146 514 1135 q 533 1162 519 1157 q 557 1164 547 1167 q 576 1153 569 1161 q 588 1135 583 1146 q 613 1092 597 1118 q 646 1041 629 1067 q 672 1000 663 1015 q 681 988 675 996 q 685 974 686 979 q 681 972 683 971 m -22 -43 q -36 -42 -28 -43 q -44 -32 -44 -40 q -35 -13 -44 -28 q -17 17 -26 1 q -4 38 -7 32 q 2 52 0 44 q 7 65 4 60 q 24 75 10 75 q 32 74 29 75 q 87 164 57 117 q 142 249 117 211 q 175 297 167 286 q 146 296 161 297 q 114 294 131 294 q 88 297 104 294 q 72 310 72 300 q 73 312 72 311 q 74 314 74 313 q 98 352 85 346 q 142 358 111 358 q 178 358 160 358 q 215 356 197 358 q 329 515 279 449 q 423 631 379 581 q 511 726 467 682 q 608 819 556 771 q 605 835 607 826 q 603 851 603 844 q 621 876 603 863 q 647 889 639 889 q 658 887 653 889 q 664 875 663 885 q 672 784 668 842 q 680 656 676 726 q 685 512 683 585 q 688 375 688 439 l 688 328 l 693 328 q 710 327 696 328 q 725 322 725 326 q 708 306 725 311 q 686 301 690 301 q 685 213 686 254 q 681 125 683 171 q 678 80 679 103 q 674 33 676 57 q 661 12 672 25 q 637 -12 650 -1 q 614 -22 624 -22 q 608 -17 608 -22 q 612 19 608 -14 q 619 82 615 51 q 623 120 621 88 q 628 201 625 153 q 631 299 631 249 q 487 298 597 299 q 214 297 376 297 q 186 256 204 283 q 149 200 168 229 q 118 147 131 171 q 74 74 99 114 q 31 0 50 35 q 17 -24 28 -6 q -3 -42 7 -42 q -4 -42 -3 -42 q -7 -40 -6 -42 q -22 -43 -11 -43 m 633 328 q 633 414 633 356 q 630 541 632 472 q 624 673 628 610 q 617 775 621 736 q 569 734 600 767 q 497 654 538 701 q 413 552 456 607 q 330 444 369 497 q 261 347 290 390 q 285 340 272 344 q 307 331 299 336 q 351 331 326 332 q 403 331 376 331 q 519 330 461 331 q 633 328 576 329 m 596 986 q 562 1001 588 986 q 508 1037 536 1017 q 458 1069 479 1057 q 423 1096 446 1079 q 400 1122 400 1113 q 413 1141 400 1133 q 436 1149 426 1149 q 457 1142 449 1149 q 472 1126 465 1136 q 506 1090 485 1113 q 549 1047 528 1068 q 582 1013 571 1026 q 593 1003 586 1010 q 600 989 600 996 q 596 986 600 986 z "},"Ä":{"ha":825,"x_min":-44,"x_max":803,"o":"m 735 986 q 715 1001 724 986 q 707 1026 707 1015 q 724 1054 707 1040 q 760 1077 740 1068 q 792 1086 781 1086 q 803 1081 803 1086 q 783 1036 803 1064 q 769 1006 775 1026 q 735 986 763 986 m 569 988 q 550 1002 558 988 q 542 1028 542 1017 q 558 1056 542 1042 q 595 1078 575 1069 q 626 1088 615 1088 q 638 1082 638 1088 q 618 1038 638 1065 q 603 1008 610 1028 q 569 988 597 988 m -22 -43 q -36 -42 -28 -43 q -44 -32 -44 -40 q -35 -13 -44 -28 q -17 17 -26 1 q -4 38 -7 32 q 2 52 0 44 q 7 65 4 60 q 24 75 10 75 q 32 74 29 75 q 87 164 57 117 q 142 249 117 211 q 175 297 167 286 q 146 296 161 297 q 114 294 131 294 q 88 297 104 294 q 72 310 72 300 q 73 312 72 311 q 74 314 74 313 q 98 352 85 346 q 142 358 111 358 q 178 358 160 358 q 215 356 197 358 q 329 515 279 449 q 423 631 379 581 q 511 726 467 682 q 608 819 556 771 q 605 835 607 826 q 603 851 603 844 q 621 876 603 863 q 647 889 639 889 q 658 887 653 889 q 664 875 663 885 q 672 784 668 842 q 680 656 676 726 q 685 512 683 585 q 688 375 688 439 l 688 328 l 693 328 q 710 327 696 328 q 725 322 725 326 q 708 306 725 311 q 686 301 690 301 q 685 213 686 254 q 681 125 683 171 q 678 80 679 103 q 674 33 676 57 q 661 12 672 25 q 637 -12 650 -1 q 614 -22 624 -22 q 608 -17 608 -22 q 612 19 608 -14 q 619 82 615 51 q 623 120 621 88 q 628 201 625 153 q 631 299 631 249 q 487 298 597 299 q 214 297 376 297 q 186 256 204 283 q 149 200 168 229 q 118 147 131 171 q 74 74 99 114 q 31 0 50 35 q 17 -24 28 -6 q -3 -42 7 -42 q -4 -42 -3 -42 q -7 -40 -6 -42 q -22 -43 -11 -43 m 633 328 q 633 414 633 356 q 630 541 632 472 q 624 673 628 610 q 617 775 621 736 q 569 734 600 767 q 497 654 538 701 q 413 552 456 607 q 330 444 369 497 q 261 347 290 390 q 285 340 272 344 q 307 331 299 336 q 351 331 326 332 q 403 331 376 331 q 519 330 461 331 q 633 328 576 329 z "},"Ạ":{"ha":825,"x_min":-44,"x_max":725,"o":"m -22 -43 q -36 -42 -28 -43 q -44 -32 -44 -40 q -35 -13 -44 -28 q -17 17 -26 1 q -4 38 -7 32 q 2 52 0 44 q 7 65 4 60 q 24 75 10 75 q 32 74 29 75 q 87 164 57 117 q 142 249 117 211 q 175 297 167 286 q 146 296 161 297 q 114 294 131 294 q 88 297 104 294 q 72 310 72 300 q 73 312 72 311 q 74 314 74 313 q 98 352 85 346 q 142 358 111 358 q 178 358 160 358 q 215 356 197 358 q 329 515 279 449 q 423 631 379 581 q 511 726 467 682 q 608 819 556 771 q 605 835 607 826 q 603 851 603 844 q 621 876 603 863 q 647 889 639 889 q 658 887 653 889 q 664 875 663 885 q 672 784 668 842 q 680 656 676 726 q 685 512 683 585 q 688 375 688 439 l 688 328 l 693 328 q 710 327 696 328 q 725 322 725 326 q 708 306 725 311 q 686 301 690 301 q 685 213 686 254 q 681 125 683 171 q 678 80 679 103 q 674 33 676 57 q 661 12 672 25 q 637 -12 650 -1 q 614 -22 624 -22 q 608 -17 608 -22 q 612 19 608 -14 q 619 82 615 51 q 623 120 621 88 q 628 201 625 153 q 631 299 631 249 q 487 298 597 299 q 214 297 376 297 q 186 256 204 283 q 149 200 168 229 q 118 147 131 171 q 74 74 99 114 q 31 0 50 35 q 17 -24 28 -6 q -3 -42 7 -42 q -4 -42 -3 -42 q -7 -40 -6 -42 q -22 -43 -11 -43 m 633 328 q 633 414 633 356 q 630 541 632 472 q 624 673 628 610 q 617 775 621 736 q 569 734 600 767 q 497 654 538 701 q 413 552 456 607 q 330 444 369 497 q 261 347 290 390 q 285 340 272 344 q 307 331 299 336 q 351 331 326 332 q 403 331 376 331 q 519 330 461 331 q 633 328 576 329 m 268 -211 q 246 -194 256 -211 q 236 -167 236 -176 q 255 -134 236 -150 q 297 -108 274 -118 q 332 -97 319 -97 q 343 -106 343 -97 q 322 -153 343 -121 q 312 -175 317 -161 q 298 -200 307 -189 q 268 -211 289 -211 z "},"À":{"ha":825,"x_min":-44,"x_max":760,"o":"m -22 -43 q -36 -42 -28 -43 q -44 -32 -44 -40 q -35 -13 -44 -28 q -17 17 -26 1 q -4 38 -7 32 q 2 52 0 44 q 7 65 4 60 q 24 75 10 75 q 32 74 29 75 q 87 164 57 117 q 142 249 117 211 q 175 297 167 286 q 146 296 161 297 q 114 294 131 294 q 88 297 104 294 q 72 310 72 300 q 73 312 72 311 q 74 314 74 313 q 98 352 85 346 q 142 358 111 358 q 178 358 160 358 q 215 356 197 358 q 329 515 279 449 q 423 631 379 581 q 511 726 467 682 q 608 819 556 771 q 605 835 607 826 q 603 851 603 844 q 621 876 603 863 q 647 889 639 889 q 658 887 653 889 q 664 875 663 885 q 672 784 668 842 q 680 656 676 726 q 685 512 683 585 q 688 375 688 439 l 688 328 l 693 328 q 710 327 696 328 q 725 322 725 326 q 708 306 725 311 q 686 301 690 301 q 685 213 686 254 q 681 125 683 171 q 678 80 679 103 q 674 33 676 57 q 661 12 672 25 q 637 -12 650 -1 q 614 -22 624 -22 q 608 -17 608 -22 q 612 19 608 -14 q 619 82 615 51 q 623 120 621 88 q 628 201 625 153 q 631 299 631 249 q 487 298 597 299 q 214 297 376 297 q 186 256 204 283 q 149 200 168 229 q 118 147 131 171 q 74 74 99 114 q 31 0 50 35 q 17 -24 28 -6 q -3 -42 7 -42 q -4 -42 -3 -42 q -7 -40 -6 -42 q -22 -43 -11 -43 m 633 328 q 633 414 633 356 q 630 541 632 472 q 624 673 628 610 q 617 775 621 736 q 569 734 600 767 q 497 654 538 701 q 413 552 456 607 q 330 444 369 497 q 261 347 290 390 q 285 340 272 344 q 307 331 299 336 q 351 331 326 332 q 403 331 376 331 q 519 330 461 331 q 633 328 576 329 m 756 985 q 719 992 747 983 q 658 1015 690 1001 q 604 1038 625 1029 q 543 1066 569 1053 q 514 1089 517 1079 q 524 1111 513 1100 q 550 1122 536 1122 q 569 1119 561 1122 q 583 1108 576 1115 q 629 1077 599 1097 q 691 1038 660 1057 q 736 1008 722 1019 q 749 1000 742 1006 q 758 989 757 994 q 758 986 760 988 q 756 985 757 985 z "},"Ả":{"ha":825,"x_min":-44,"x_max":782,"o":"m -22 -43 q -36 -42 -28 -43 q -44 -32 -44 -40 q -35 -13 -44 -28 q -17 17 -26 1 q -4 38 -7 32 q 2 52 0 44 q 7 65 4 60 q 24 75 10 75 q 32 74 29 75 q 87 164 57 117 q 142 249 117 211 q 175 297 167 286 q 146 296 161 297 q 114 294 131 294 q 88 297 104 294 q 72 310 72 300 q 73 312 72 311 q 74 314 74 313 q 98 352 85 346 q 142 358 111 358 q 178 358 160 358 q 215 356 197 358 q 329 515 279 449 q 423 631 379 581 q 511 726 467 682 q 608 819 556 771 q 605 835 607 826 q 603 851 603 844 q 621 876 603 863 q 647 889 639 889 q 658 887 653 889 q 664 875 663 885 q 672 784 668 842 q 680 656 676 726 q 685 512 683 585 q 688 375 688 439 l 688 328 l 693 328 q 710 327 696 328 q 725 322 725 326 q 708 306 725 311 q 686 301 690 301 q 685 213 686 254 q 681 125 683 171 q 678 80 679 103 q 674 33 676 57 q 661 12 672 25 q 637 -12 650 -1 q 614 -22 624 -22 q 608 -17 608 -22 q 612 19 608 -14 q 619 82 615 51 q 623 120 621 88 q 628 201 625 153 q 631 299 631 249 q 487 298 597 299 q 214 297 376 297 q 186 256 204 283 q 149 200 168 229 q 118 147 131 171 q 74 74 99 114 q 31 0 50 35 q 17 -24 28 -6 q -3 -42 7 -42 q -4 -42 -3 -42 q -7 -40 -6 -42 q -22 -43 -11 -43 m 633 328 q 633 414 633 356 q 630 541 632 472 q 624 673 628 610 q 617 775 621 736 q 569 734 600 767 q 497 654 538 701 q 413 552 456 607 q 330 444 369 497 q 261 347 290 390 q 285 340 272 344 q 307 331 299 336 q 351 331 326 332 q 403 331 376 331 q 519 330 461 331 q 633 328 576 329 m 657 979 q 647 992 647 979 q 649 999 647 996 q 653 1007 651 1003 q 665 1024 660 1018 q 688 1044 671 1031 q 715 1076 707 1060 q 722 1106 722 1092 q 685 1128 722 1128 q 631 1115 654 1128 q 597 1093 608 1101 q 588 1099 585 1085 q 625 1147 593 1126 q 708 1168 657 1168 q 763 1150 744 1168 q 782 1117 782 1132 q 735 1038 782 1071 q 696 1009 708 1019 q 672 989 683 999 q 657 979 665 979 z "},"Ȃ":{"ha":825,"x_min":-44,"x_max":811,"o":"m 689 1108 q 811 1025 807 1108 q 811 1012 811 1018 q 810 1001 811 1006 q 801 983 807 988 q 790 978 796 978 q 776 993 782 978 q 749 1037 771 1017 q 676 1057 726 1057 q 606 1047 643 1057 q 519 992 569 1036 q 499 983 511 983 q 499 996 488 983 q 538 1039 511 1013 q 602 1087 564 1065 q 689 1108 640 1108 m -22 -43 q -36 -42 -28 -43 q -44 -32 -44 -40 q -35 -13 -44 -28 q -17 17 -26 1 q -4 38 -7 32 q 2 52 0 44 q 7 65 4 60 q 24 75 10 75 q 32 74 29 75 q 87 164 57 117 q 142 249 117 211 q 175 297 167 286 q 146 296 161 297 q 114 294 131 294 q 88 297 104 294 q 72 310 72 300 q 73 312 72 311 q 74 314 74 313 q 98 352 85 346 q 142 358 111 358 q 178 358 160 358 q 215 356 197 358 q 329 515 279 449 q 423 631 379 581 q 511 726 467 682 q 608 819 556 771 q 605 835 607 826 q 603 851 603 844 q 621 876 603 863 q 647 889 639 889 q 658 887 653 889 q 664 875 663 885 q 672 784 668 842 q 680 656 676 726 q 685 512 683 585 q 688 375 688 439 l 688 328 l 693 328 q 710 327 696 328 q 725 322 725 326 q 708 306 725 311 q 686 301 690 301 q 685 213 686 254 q 681 125 683 171 q 678 80 679 103 q 674 33 676 57 q 661 12 672 25 q 637 -12 650 -1 q 614 -22 624 -22 q 608 -17 608 -22 q 612 19 608 -14 q 619 82 615 51 q 623 120 621 88 q 628 201 625 153 q 631 299 631 249 q 487 298 597 299 q 214 297 376 297 q 186 256 204 283 q 149 200 168 229 q 118 147 131 171 q 74 74 99 114 q 31 0 50 35 q 17 -24 28 -6 q -3 -42 7 -42 q -4 -42 -3 -42 q -7 -40 -6 -42 q -22 -43 -11 -43 m 633 328 q 633 414 633 356 q 630 541 632 472 q 624 673 628 610 q 617 775 621 736 q 569 734 600 767 q 497 654 538 701 q 413 552 456 607 q 330 444 369 497 q 261 347 290 390 q 285 340 272 344 q 307 331 299 336 q 351 331 326 332 q 403 331 376 331 q 519 330 461 331 q 633 328 576 329 z "},"Ā":{"ha":825,"x_min":-44,"x_max":821,"o":"m -22 -43 q -36 -42 -28 -43 q -44 -32 -44 -40 q -35 -13 -44 -28 q -17 17 -26 1 q -4 38 -7 32 q 2 52 0 44 q 7 65 4 60 q 24 75 10 75 q 32 74 29 75 q 87 164 57 117 q 142 249 117 211 q 175 297 167 286 q 146 296 161 297 q 114 294 131 294 q 88 297 104 294 q 72 310 72 300 q 73 312 72 311 q 74 314 74 313 q 98 352 85 346 q 142 358 111 358 q 178 358 160 358 q 215 356 197 358 q 329 515 279 449 q 423 631 379 581 q 511 726 467 682 q 608 819 556 771 q 605 835 607 826 q 603 851 603 844 q 621 876 603 863 q 647 889 639 889 q 658 887 653 889 q 664 875 663 885 q 672 784 668 842 q 680 656 676 726 q 685 512 683 585 q 688 375 688 439 l 688 328 l 693 328 q 710 327 696 328 q 725 322 725 326 q 708 306 725 311 q 686 301 690 301 q 685 213 686 254 q 681 125 683 171 q 678 80 679 103 q 674 33 676 57 q 661 12 672 25 q 637 -12 650 -1 q 614 -22 624 -22 q 608 -17 608 -22 q 612 19 608 -14 q 619 82 615 51 q 623 120 621 88 q 628 201 625 153 q 631 299 631 249 q 487 298 597 299 q 214 297 376 297 q 186 256 204 283 q 149 200 168 229 q 118 147 131 171 q 74 74 99 114 q 31 0 50 35 q 17 -24 28 -6 q -3 -42 7 -42 q -4 -42 -3 -42 q -7 -40 -6 -42 q -22 -43 -11 -43 m 633 328 q 633 414 633 356 q 630 541 632 472 q 624 673 628 610 q 617 775 621 736 q 569 734 600 767 q 497 654 538 701 q 413 552 456 607 q 330 444 369 497 q 261 347 290 390 q 285 340 272 344 q 307 331 299 336 q 351 331 326 332 q 403 331 376 331 q 519 330 461 331 q 633 328 576 329 m 506 981 q 492 992 497 981 q 486 1013 486 1003 l 488 1015 q 536 1023 503 1021 q 603 1026 569 1025 q 654 1028 638 1028 q 698 1026 671 1028 q 753 1024 725 1025 q 799 1019 782 1022 q 821 1010 821 1018 q 796 994 821 999 q 733 989 772 992 q 649 984 693 986 q 567 981 606 982 q 506 981 528 981 z "},"Ą":{"ha":825,"x_min":-44,"x_max":764,"o":"m -22 -43 q -36 -42 -28 -43 q -44 -32 -44 -40 q -35 -13 -44 -28 q -17 17 -26 1 q -4 38 -7 32 q 2 52 0 44 q 7 65 4 60 q 24 75 10 75 q 32 74 29 75 q 87 164 57 117 q 142 249 117 211 q 175 297 167 286 q 146 296 161 297 q 114 294 131 294 q 88 297 104 294 q 72 310 72 300 q 73 312 72 311 q 74 314 74 313 q 98 352 85 346 q 142 358 111 358 q 178 358 160 358 q 215 356 197 358 q 329 515 279 449 q 423 631 379 581 q 511 726 467 682 q 608 819 556 771 q 605 835 607 826 q 603 851 603 844 q 621 876 603 863 q 647 889 639 889 q 658 887 653 889 q 664 875 663 885 q 672 784 668 842 q 680 656 676 726 q 685 512 683 585 q 688 375 688 439 l 688 328 l 693 328 q 710 327 696 328 q 725 322 725 326 q 708 306 725 311 q 686 301 690 301 q 685 213 686 254 q 681 125 683 171 q 678 80 679 103 q 674 33 676 57 q 661 12 672 25 q 637 -12 650 -1 q 614 -22 624 -22 q 608 -17 608 -22 q 612 19 608 -14 q 619 82 615 51 q 623 120 621 88 q 628 201 625 153 q 631 299 631 249 q 487 298 597 299 q 214 297 376 297 q 186 256 204 283 q 149 200 168 229 q 118 147 131 171 q 74 74 99 114 q 31 0 50 35 q 17 -24 28 -6 q -3 -42 7 -42 q -4 -42 -3 -42 q -7 -40 -6 -42 q -22 -43 -11 -43 m 633 328 q 633 414 633 356 q 630 541 632 472 q 624 673 628 610 q 617 775 621 736 q 569 734 600 767 q 497 654 538 701 q 413 552 456 607 q 330 444 369 497 q 261 347 290 390 q 285 340 272 344 q 307 331 299 336 q 351 331 326 332 q 403 331 376 331 q 519 330 461 331 q 633 328 576 329 m 619 -204 q 566 -193 594 -204 q 538 -151 538 -182 q 547 -110 538 -136 q 572 -55 557 -83 q 605 -6 588 -26 q 639 14 622 14 l 654 10 q 617 -46 636 -8 q 597 -111 597 -83 q 613 -147 597 -135 q 649 -158 629 -158 q 701 -153 674 -158 q 751 -133 729 -147 q 753 -132 753 -132 q 754 -132 754 -132 q 761 -137 758 -132 q 764 -146 764 -142 q 739 -172 764 -158 q 680 -195 714 -186 q 619 -204 646 -204 z "},"Å":{"ha":825,"x_min":-44,"x_max":793,"o":"m -22 -43 q -36 -42 -28 -43 q -44 -32 -44 -40 q -35 -13 -44 -28 q -17 17 -26 1 q -4 38 -7 32 q 2 52 0 44 q 7 65 4 60 q 24 75 10 75 q 32 74 29 75 q 87 164 57 117 q 142 249 117 211 q 175 297 167 286 q 146 296 161 297 q 114 294 131 294 q 88 297 104 294 q 72 310 72 300 q 73 312 72 311 q 74 314 74 313 q 98 352 85 346 q 142 358 111 358 q 178 358 160 358 q 215 356 197 358 q 329 515 279 449 q 423 631 379 581 q 511 726 467 682 q 608 819 556 771 q 605 835 607 826 q 603 851 603 844 q 621 876 603 863 q 647 889 639 889 q 658 887 653 889 q 664 875 663 885 q 672 784 668 842 q 680 656 676 726 q 685 512 683 585 q 688 375 688 439 l 688 328 l 693 328 q 710 327 696 328 q 725 322 725 326 q 708 306 725 311 q 686 301 690 301 q 685 213 686 254 q 681 125 683 171 q 678 80 679 103 q 674 33 676 57 q 661 12 672 25 q 637 -12 650 -1 q 614 -22 624 -22 q 608 -17 608 -22 q 612 19 608 -14 q 619 82 615 51 q 623 120 621 88 q 628 201 625 153 q 631 299 631 249 q 487 298 597 299 q 214 297 376 297 q 186 256 204 283 q 149 200 168 229 q 118 147 131 171 q 74 74 99 114 q 31 0 50 35 q 17 -24 28 -6 q -3 -42 7 -42 q -4 -42 -3 -42 q -7 -40 -6 -42 q -22 -43 -11 -43 m 633 328 q 633 414 633 356 q 630 541 632 472 q 624 673 628 610 q 617 775 621 736 q 569 734 600 767 q 497 654 538 701 q 413 552 456 607 q 330 444 369 497 q 261 347 290 390 q 285 340 272 344 q 307 331 299 336 q 351 331 326 332 q 403 331 376 331 q 519 330 461 331 q 633 328 576 329 m 658 982 q 607 993 632 982 q 582 1039 582 1004 q 601 1101 582 1074 q 651 1146 621 1129 q 714 1163 682 1163 q 768 1145 743 1163 q 793 1092 793 1128 q 773 1035 793 1060 q 722 996 753 1010 q 658 982 692 982 m 667 1004 q 723 1033 703 1004 q 743 1086 743 1061 q 735 1121 743 1101 q 703 1140 726 1140 q 656 1113 678 1140 q 635 1053 635 1085 q 642 1019 635 1035 q 667 1004 649 1004 z "},"Ǻ":{"ha":825,"x_min":-44,"x_max":885,"o":"m -22 -43 q -36 -42 -28 -43 q -44 -32 -44 -40 q -35 -13 -44 -28 q -17 17 -26 1 q -4 38 -7 32 q 2 52 0 44 q 7 65 4 60 q 24 75 10 75 q 32 74 29 75 q 87 164 57 117 q 142 249 117 211 q 175 297 167 286 q 146 296 161 297 q 114 294 131 294 q 88 297 104 294 q 72 310 72 300 q 73 312 72 311 q 74 314 74 313 q 98 352 85 346 q 142 358 111 358 q 178 358 160 358 q 215 356 197 358 q 329 515 279 449 q 423 631 379 581 q 511 726 467 682 q 608 819 556 771 q 605 835 607 826 q 603 851 603 844 q 621 876 603 863 q 647 889 639 889 q 658 887 653 889 q 664 875 663 885 q 672 784 668 842 q 680 656 676 726 q 685 512 683 585 q 688 375 688 439 l 688 328 l 693 328 q 710 327 696 328 q 725 322 725 326 q 708 306 725 311 q 686 301 690 301 q 685 213 686 254 q 681 125 683 171 q 678 80 679 103 q 674 33 676 57 q 661 12 672 25 q 637 -12 650 -1 q 614 -22 624 -22 q 608 -17 608 -22 q 612 19 608 -14 q 619 82 615 51 q 623 120 621 88 q 628 201 625 153 q 631 299 631 249 q 487 298 597 299 q 214 297 376 297 q 186 256 204 283 q 149 200 168 229 q 118 147 131 171 q 74 74 99 114 q 31 0 50 35 q 17 -24 28 -6 q -3 -42 7 -42 q -4 -42 -3 -42 q -7 -40 -6 -42 q -22 -43 -11 -43 m 633 328 q 633 414 633 356 q 630 541 632 472 q 624 673 628 610 q 617 775 621 736 q 569 734 600 767 q 497 654 538 701 q 413 552 456 607 q 330 444 369 497 q 261 347 290 390 q 285 340 272 344 q 307 331 299 336 q 351 331 326 332 q 403 331 376 331 q 519 330 461 331 q 633 328 576 329 m 658 982 q 607 993 632 982 q 582 1039 582 1004 q 601 1101 582 1074 q 651 1146 621 1129 q 714 1163 682 1163 q 768 1145 743 1163 q 793 1092 793 1128 q 773 1035 793 1060 q 722 996 753 1010 q 658 982 692 982 m 667 1004 q 723 1033 703 1004 q 743 1086 743 1061 q 735 1121 743 1101 q 703 1140 726 1140 q 656 1113 678 1140 q 635 1053 635 1085 q 642 1019 635 1035 q 667 1004 649 1004 m 640 1197 q 638 1199 639 1197 q 638 1201 636 1200 q 647 1213 639 1207 q 660 1221 654 1218 q 705 1251 674 1232 q 767 1290 736 1269 q 813 1321 799 1310 q 828 1331 819 1328 q 846 1335 836 1335 q 872 1324 860 1335 q 882 1301 885 1313 q 853 1278 881 1292 q 792 1250 826 1265 q 738 1228 771 1242 q 678 1205 706 1214 q 640 1197 650 1196 z "},"Ã":{"ha":825,"x_min":-44,"x_max":854,"o":"m -22 -43 q -36 -42 -28 -43 q -44 -32 -44 -40 q -35 -13 -44 -28 q -17 17 -26 1 q -4 38 -7 32 q 2 52 0 44 q 7 65 4 60 q 24 75 10 75 q 32 74 29 75 q 87 164 57 117 q 142 249 117 211 q 175 297 167 286 q 146 296 161 297 q 114 294 131 294 q 88 297 104 294 q 72 310 72 300 q 73 312 72 311 q 74 314 74 313 q 98 352 85 346 q 142 358 111 358 q 178 358 160 358 q 215 356 197 358 q 329 515 279 449 q 423 631 379 581 q 511 726 467 682 q 608 819 556 771 q 605 835 607 826 q 603 851 603 844 q 621 876 603 863 q 647 889 639 889 q 658 887 653 889 q 664 875 663 885 q 672 784 668 842 q 680 656 676 726 q 685 512 683 585 q 688 375 688 439 l 688 328 l 693 328 q 710 327 696 328 q 725 322 725 326 q 708 306 725 311 q 686 301 690 301 q 685 213 686 254 q 681 125 683 171 q 678 80 679 103 q 674 33 676 57 q 661 12 672 25 q 637 -12 650 -1 q 614 -22 624 -22 q 608 -17 608 -22 q 612 19 608 -14 q 619 82 615 51 q 623 120 621 88 q 628 201 625 153 q 631 299 631 249 q 487 298 597 299 q 214 297 376 297 q 186 256 204 283 q 149 200 168 229 q 118 147 131 171 q 74 74 99 114 q 31 0 50 35 q 17 -24 28 -6 q -3 -42 7 -42 q -4 -42 -3 -42 q -7 -40 -6 -42 q -22 -43 -11 -43 m 633 328 q 633 414 633 356 q 630 541 632 472 q 624 673 628 610 q 617 775 621 736 q 569 734 600 767 q 497 654 538 701 q 413 552 456 607 q 330 444 369 497 q 261 347 290 390 q 285 340 272 344 q 307 331 299 336 q 351 331 326 332 q 403 331 376 331 q 519 330 461 331 q 633 328 576 329 m 767 979 q 709 990 742 979 q 644 1012 676 1001 q 589 1022 613 1022 q 554 1013 571 1022 q 526 993 538 1003 q 508 983 514 983 q 504 990 504 983 q 521 1019 507 1000 q 557 1054 535 1038 q 603 1071 579 1071 q 657 1061 626 1071 q 721 1042 688 1051 q 788 1032 754 1032 q 826 1047 810 1032 q 849 1064 843 1063 q 851 1046 854 1064 q 817 1001 839 1024 q 767 979 796 979 z "},"B":{"ha":844,"x_min":76,"x_max":758,"o":"m 165 -103 q 101 -51 125 -103 q 76 96 76 0 q 90 226 76 149 q 124 390 103 303 q 170 560 144 478 q 222 709 196 643 q 268 810 247 775 q 229 816 250 814 q 204 825 208 818 q 210 846 197 836 q 257 856 224 856 q 271 856 264 856 q 286 854 278 856 q 301 875 293 865 q 322 885 308 885 q 342 872 336 885 q 347 843 347 858 q 447 812 389 833 q 563 758 506 790 q 659 684 621 726 q 697 588 697 642 q 664 497 697 536 q 582 431 631 458 q 486 388 533 404 q 411 363 439 371 q 581 340 501 363 q 709 275 660 318 q 758 169 758 232 q 725 80 758 118 q 635 17 692 42 q 507 -20 578 -8 q 361 -32 436 -32 q 337 -32 349 -32 q 313 -31 325 -32 q 253 -26 285 -29 q 203 -19 222 -24 q 185 -12 196 -18 q 174 7 174 -6 q 192 18 174 22 q 244 7 215 13 q 315 -3 272 1 q 344 -5 329 -4 q 375 -6 360 -6 q 484 4 428 -6 q 588 34 540 14 q 664 85 635 54 q 693 158 693 115 q 669 222 693 194 q 610 270 646 250 q 538 303 575 290 q 472 322 500 317 q 396 334 435 331 q 318 338 357 338 q 229 333 274 338 q 169 325 185 328 q 151 242 163 294 q 132 133 140 190 q 124 32 124 76 q 141 -51 124 -19 q 174 -85 158 -82 q 179 -90 179 -85 q 165 -103 179 -103 m 179 360 q 272 367 214 360 q 393 390 329 374 q 513 431 457 406 q 606 492 569 456 q 642 575 642 528 q 606 658 642 621 q 518 722 571 694 q 413 767 465 749 q 324 793 360 785 q 242 579 276 688 q 179 360 208 471 z "},"C":{"ha":907,"x_min":56,"x_max":844,"o":"m 424 -29 q 217 19 299 -29 q 95 144 135 68 q 56 301 56 221 q 90 499 56 401 q 192 677 125 597 q 357 805 260 757 q 581 853 454 853 q 729 826 671 853 q 816 758 788 800 q 844 667 844 715 q 826 592 844 614 q 783 569 807 569 q 756 585 765 569 q 747 614 747 601 q 757 653 747 640 q 776 677 767 665 q 785 713 785 689 q 725 790 785 758 q 571 821 665 821 q 403 786 483 821 q 260 685 322 751 q 163 525 199 619 q 126 313 126 431 q 158 161 126 232 q 257 47 190 90 q 428 3 324 3 q 649 65 551 3 q 813 225 747 128 q 833 240 824 240 q 842 231 842 240 q 836 208 842 218 q 662 27 765 83 q 424 -29 558 -29 z "},"Ć":{"ha":907,"x_min":56,"x_max":844,"o":"m 424 -29 q 217 19 299 -29 q 95 144 135 68 q 56 301 56 221 q 90 499 56 401 q 192 677 125 597 q 357 805 260 757 q 581 853 454 853 q 729 826 671 853 q 816 758 788 800 q 844 667 844 715 q 826 592 844 614 q 783 569 807 569 q 756 585 765 569 q 747 614 747 601 q 757 653 747 640 q 776 677 767 665 q 785 713 785 689 q 725 790 785 758 q 571 821 665 821 q 403 786 483 821 q 260 685 322 751 q 163 525 199 619 q 126 313 126 431 q 158 161 126 232 q 257 47 190 90 q 428 3 324 3 q 649 65 551 3 q 813 225 747 128 q 833 240 824 240 q 842 231 842 240 q 836 208 842 218 q 662 27 765 83 q 424 -29 558 -29 m 478 936 q 475 938 476 936 q 475 940 474 939 q 484 951 476 946 q 497 960 492 957 q 542 990 511 971 q 605 1028 574 1008 q 650 1060 636 1049 q 665 1070 657 1067 q 683 1074 674 1074 q 710 1063 697 1074 q 719 1040 722 1051 q 691 1017 718 1031 q 629 989 664 1004 q 576 967 608 981 q 515 944 543 953 q 478 936 488 935 z "},"Č":{"ha":907,"x_min":56,"x_max":846,"o":"m 843 1104 q 844 1103 843 1104 q 846 1101 846 1103 q 835 1088 844 1096 q 819 1078 825 1081 q 758 1038 792 1060 q 693 994 724 1015 q 644 958 663 974 q 600 938 624 938 q 568 958 578 938 q 533 1015 558 981 q 490 1078 508 1050 q 485 1088 489 1081 q 482 1101 481 1096 q 488 1104 485 1104 q 509 1091 493 1104 q 546 1059 525 1078 q 585 1023 567 1040 q 611 996 603 1006 q 676 1030 639 1011 q 748 1065 713 1049 q 810 1093 783 1082 q 843 1104 836 1104 m 424 -29 q 217 19 299 -29 q 95 144 135 68 q 56 301 56 221 q 90 499 56 401 q 192 677 125 597 q 357 805 260 757 q 581 853 454 853 q 729 826 671 853 q 816 758 788 800 q 844 667 844 715 q 826 592 844 614 q 783 569 807 569 q 756 585 765 569 q 747 614 747 601 q 757 653 747 640 q 776 677 767 665 q 785 713 785 689 q 725 790 785 758 q 571 821 665 821 q 403 786 483 821 q 260 685 322 751 q 163 525 199 619 q 126 313 126 431 q 158 161 126 232 q 257 47 190 90 q 428 3 324 3 q 649 65 551 3 q 813 225 747 128 q 833 240 824 240 q 842 231 842 240 q 836 208 842 218 q 662 27 765 83 q 424 -29 558 -29 z "},"Ç":{"ha":907,"x_min":56,"x_max":844,"o":"m 424 -29 q 217 19 299 -29 q 95 144 135 68 q 56 301 56 221 q 90 499 56 401 q 192 677 125 597 q 357 805 260 757 q 581 853 454 853 q 729 826 671 853 q 816 758 788 800 q 844 667 844 715 q 826 592 844 614 q 783 569 807 569 q 756 585 765 569 q 747 614 747 601 q 757 653 747 640 q 776 677 767 665 q 785 713 785 689 q 725 790 785 758 q 571 821 665 821 q 403 786 483 821 q 260 685 322 751 q 163 525 199 619 q 126 313 126 431 q 158 161 126 232 q 257 47 190 90 q 428 3 324 3 q 649 65 551 3 q 813 225 747 128 q 833 240 824 240 q 842 231 842 240 q 836 208 842 218 q 662 27 765 83 q 424 -29 558 -29 m 311 -304 q 303 -300 306 -304 q 301 -293 301 -296 q 306 -287 301 -289 q 311 -285 310 -285 q 378 -267 347 -279 q 408 -215 408 -254 q 398 -181 408 -197 q 376 -147 388 -164 q 365 -111 365 -129 q 391 -49 365 -79 q 461 -19 417 -19 q 472 -26 474 -19 q 435 -49 450 -29 q 421 -92 421 -69 q 433 -122 421 -106 q 458 -156 446 -137 q 469 -197 469 -175 q 442 -258 469 -233 q 378 -293 415 -282 q 311 -304 340 -304 z "},"Ĉ":{"ha":907,"x_min":56,"x_max":844,"o":"m 424 -29 q 217 19 299 -29 q 95 144 135 68 q 56 301 56 221 q 90 499 56 401 q 192 677 125 597 q 357 805 260 757 q 581 853 454 853 q 729 826 671 853 q 816 758 788 800 q 844 667 844 715 q 826 592 844 614 q 783 569 807 569 q 756 585 765 569 q 747 614 747 601 q 757 653 747 640 q 776 677 767 665 q 785 713 785 689 q 725 790 785 758 q 571 821 665 821 q 403 786 483 821 q 260 685 322 751 q 163 525 199 619 q 126 313 126 431 q 158 161 126 232 q 257 47 190 90 q 428 3 324 3 q 649 65 551 3 q 813 225 747 128 q 833 240 824 240 q 842 231 842 240 q 836 208 842 218 q 662 27 765 83 q 424 -29 558 -29 m 417 928 q 415 928 417 928 q 414 931 414 929 q 426 944 417 938 q 440 954 435 951 q 502 995 468 974 q 567 1038 536 1017 q 615 1074 599 1060 q 660 1094 636 1094 q 692 1074 682 1094 q 727 1017 703 1051 q 769 954 751 982 q 776 944 772 951 q 778 931 781 938 q 772 928 775 928 q 751 941 767 928 q 714 973 735 954 q 675 1009 693 992 q 649 1036 657 1026 q 584 1002 621 1021 q 512 967 547 983 q 450 939 476 950 q 417 928 424 928 z "},"Ċ":{"ha":907,"x_min":56,"x_max":844,"o":"m 424 -29 q 217 19 299 -29 q 95 144 135 68 q 56 301 56 221 q 90 499 56 401 q 192 677 125 597 q 357 805 260 757 q 581 853 454 853 q 729 826 671 853 q 816 758 788 800 q 844 667 844 715 q 826 592 844 614 q 783 569 807 569 q 756 585 765 569 q 747 614 747 601 q 757 653 747 640 q 776 677 767 665 q 785 713 785 689 q 725 790 785 758 q 571 821 665 821 q 403 786 483 821 q 260 685 322 751 q 163 525 199 619 q 126 313 126 431 q 158 161 126 232 q 257 47 190 90 q 428 3 324 3 q 649 65 551 3 q 813 225 747 128 q 833 240 824 240 q 842 231 842 240 q 836 208 842 218 q 662 27 765 83 q 424 -29 558 -29 m 593 938 q 576 951 583 938 q 568 974 568 964 q 583 999 568 986 q 616 1019 597 1011 q 644 1028 635 1028 q 654 1022 654 1028 q 636 985 654 1007 q 624 956 629 975 q 593 938 618 938 z "},"D":{"ha":1011,"x_min":69,"x_max":961,"o":"m 151 -103 q 111 -81 128 -103 q 85 -32 94 -60 q 74 14 76 -4 q 69 96 69 54 q 84 260 69 169 q 124 447 99 351 q 180 628 149 542 q 244 778 211 714 q 229 775 236 775 q 217 778 224 775 q 210 788 210 781 q 222 806 210 799 q 249 818 233 814 q 271 824 264 822 q 281 845 275 831 q 297 872 288 860 q 315 885 306 885 q 336 874 329 885 q 343 853 343 864 q 342 841 343 847 q 340 829 342 835 l 367 829 q 511 817 435 829 q 662 778 588 806 q 801 706 736 751 q 908 594 865 661 q 947 513 933 556 q 961 424 961 469 q 919 264 961 336 q 808 137 878 192 q 655 44 739 82 q 485 -12 571 7 q 324 -32 399 -32 q 260 -28 296 -32 q 199 -10 224 -24 q 183 -1 196 -8 q 169 14 169 7 q 174 17 169 17 q 179 18 178 18 q 215 8 196 18 q 301 -4 260 -4 q 437 15 363 -4 q 586 66 511 33 q 724 142 661 99 q 822 235 786 185 q 885 341 858 282 q 913 460 913 400 q 881 576 913 526 q 798 662 849 626 q 688 720 747 697 q 572 756 628 743 q 469 771 521 767 q 365 775 418 775 q 338 774 351 775 q 308 772 324 774 q 257 642 283 717 q 206 483 231 567 q 160 316 181 399 q 128 161 140 233 q 117 39 117 89 q 117 19 117 29 q 118 -3 117 8 q 124 -37 121 -21 q 139 -68 128 -53 q 156 -80 147 -78 q 171 -89 164 -82 q 172 -92 172 -89 q 164 -99 172 -96 q 151 -103 156 -103 z "},"Ǆ":{"ha":1826,"x_min":69,"x_max":1804,"o":"m 1750 1104 q 1751 1103 1750 1104 q 1753 1101 1753 1103 q 1742 1088 1751 1096 q 1726 1078 1732 1081 q 1665 1038 1699 1060 q 1600 994 1631 1015 q 1551 958 1569 974 q 1507 938 1531 938 q 1475 958 1485 938 q 1440 1015 1465 981 q 1397 1078 1415 1050 q 1392 1088 1396 1081 q 1389 1101 1388 1096 q 1394 1104 1392 1104 q 1416 1091 1400 1104 q 1453 1059 1432 1078 q 1492 1023 1474 1040 q 1518 996 1510 1006 q 1583 1030 1546 1011 q 1655 1065 1619 1049 q 1717 1093 1690 1082 q 1750 1104 1743 1104 m 151 -103 q 111 -81 128 -103 q 85 -32 94 -60 q 74 14 76 -4 q 69 96 69 54 q 84 260 69 169 q 124 447 99 351 q 180 628 149 542 q 244 778 211 714 q 229 775 236 775 q 217 778 224 775 q 210 788 210 781 q 222 806 210 799 q 249 818 233 814 q 271 824 264 822 q 281 845 275 831 q 297 872 288 860 q 315 885 306 885 q 336 874 329 885 q 343 853 343 864 q 342 841 343 847 q 340 829 342 835 l 367 829 q 511 817 435 829 q 662 778 588 806 q 801 706 736 751 q 908 594 865 661 q 947 513 933 556 q 961 424 961 469 q 919 264 961 336 q 808 137 878 192 q 655 44 739 82 q 485 -12 571 7 q 324 -32 399 -32 q 260 -28 296 -32 q 199 -10 224 -24 q 183 -1 196 -8 q 169 14 169 7 q 174 17 169 17 q 179 18 178 18 q 215 8 196 18 q 301 -4 260 -4 q 437 15 363 -4 q 586 66 511 33 q 724 142 661 99 q 822 235 786 185 q 885 341 858 282 q 913 460 913 400 q 881 576 913 526 q 798 662 849 626 q 688 720 747 697 q 572 756 628 743 q 469 771 521 767 q 365 775 418 775 q 338 774 351 775 q 308 772 324 774 q 257 642 283 717 q 206 483 231 567 q 160 316 181 399 q 128 161 140 233 q 117 39 117 89 q 117 19 117 29 q 118 -3 117 8 q 124 -37 121 -21 q 139 -68 128 -53 q 156 -80 147 -78 q 171 -89 164 -82 q 172 -92 172 -89 q 164 -99 172 -96 q 151 -103 156 -103 m 1111 -7 q 1085 -4 1096 -7 q 1069 0 1074 -1 q 1047 19 1061 6 q 1033 46 1033 32 q 1038 67 1033 57 q 1102 152 1050 96 q 1228 280 1154 208 q 1382 426 1303 351 q 1501 541 1443 485 q 1608 646 1560 597 q 1687 731 1656 694 q 1725 783 1718 767 q 1709 798 1728 790 q 1640 810 1690 806 q 1549 814 1610 814 q 1413 807 1489 814 q 1275 781 1338 800 q 1220 762 1246 772 q 1185 740 1194 751 q 1173 747 1176 740 q 1169 760 1169 753 q 1181 792 1169 771 q 1199 818 1192 813 q 1266 835 1214 829 q 1390 844 1318 842 q 1533 847 1461 847 q 1693 843 1622 847 q 1781 832 1764 839 q 1799 806 1794 826 q 1804 772 1804 786 q 1728 673 1788 733 q 1588 540 1669 613 q 1422 392 1507 467 q 1277 255 1346 322 q 1165 132 1208 188 q 1115 42 1121 76 q 1244 47 1181 44 q 1368 49 1308 49 q 1544 44 1464 49 q 1675 33 1624 40 q 1695 31 1681 33 q 1723 22 1710 28 q 1736 8 1736 17 q 1726 -1 1736 1 q 1713 -3 1717 -3 q 1588 2 1667 0 q 1422 4 1508 4 q 1264 2 1342 4 q 1131 -6 1186 0 q 1120 -6 1125 -6 q 1111 -7 1115 -7 z "},"Ď":{"ha":1011,"x_min":69,"x_max":961,"o":"m 876 1104 q 878 1103 876 1104 q 879 1101 879 1103 q 868 1088 878 1096 q 853 1078 858 1081 q 791 1038 825 1060 q 726 994 757 1015 q 678 958 696 974 q 633 938 657 938 q 601 958 611 938 q 567 1015 592 981 q 524 1078 542 1050 q 518 1088 522 1081 q 515 1101 514 1096 q 521 1104 518 1104 q 542 1091 526 1104 q 579 1059 558 1078 q 618 1023 600 1040 q 644 996 636 1006 q 709 1030 672 1011 q 781 1065 746 1049 q 843 1093 817 1082 q 876 1104 869 1104 m 151 -103 q 111 -81 128 -103 q 85 -32 94 -60 q 74 14 76 -4 q 69 96 69 54 q 84 260 69 169 q 124 447 99 351 q 180 628 149 542 q 244 778 211 714 q 229 775 236 775 q 217 778 224 775 q 210 788 210 781 q 222 806 210 799 q 249 818 233 814 q 271 824 264 822 q 281 845 275 831 q 297 872 288 860 q 315 885 306 885 q 336 874 329 885 q 343 853 343 864 q 342 841 343 847 q 340 829 342 835 l 367 829 q 511 817 435 829 q 662 778 588 806 q 801 706 736 751 q 908 594 865 661 q 947 513 933 556 q 961 424 961 469 q 919 264 961 336 q 808 137 878 192 q 655 44 739 82 q 485 -12 571 7 q 324 -32 399 -32 q 260 -28 296 -32 q 199 -10 224 -24 q 183 -1 196 -8 q 169 14 169 7 q 174 17 169 17 q 179 18 178 18 q 215 8 196 18 q 301 -4 260 -4 q 437 15 363 -4 q 586 66 511 33 q 724 142 661 99 q 822 235 786 185 q 885 341 858 282 q 913 460 913 400 q 881 576 913 526 q 798 662 849 626 q 688 720 747 697 q 572 756 628 743 q 469 771 521 767 q 365 775 418 775 q 338 774 351 775 q 308 772 324 774 q 257 642 283 717 q 206 483 231 567 q 160 316 181 399 q 128 161 140 233 q 117 39 117 89 q 117 19 117 29 q 118 -3 117 8 q 124 -37 121 -21 q 139 -68 128 -53 q 156 -80 147 -78 q 171 -89 164 -82 q 172 -92 172 -89 q 164 -99 172 -96 q 151 -103 156 -103 z "},"Đ":{"ha":1106,"x_min":69,"x_max":1056,"o":"m 244 -103 q 204 -81 221 -103 q 178 -32 188 -60 q 167 14 169 -4 q 163 96 163 54 q 165 165 163 128 q 174 242 168 203 q 137 241 156 242 q 100 238 118 240 q 82 249 92 240 q 69 264 72 258 l 72 265 q 126 269 100 268 q 178 271 151 269 q 215 451 192 360 q 269 626 239 543 q 333 772 300 710 q 325 770 329 771 q 317 769 321 769 q 305 772 313 769 q 297 782 297 775 q 309 801 297 793 q 336 813 321 808 q 358 818 351 817 q 369 841 363 825 q 386 871 376 857 q 406 885 396 885 q 424 872 418 885 q 431 847 431 858 q 425 824 431 833 l 439 824 q 593 813 513 824 q 751 776 674 801 q 893 706 828 750 q 1001 594 958 661 q 1041 513 1026 556 q 1056 424 1056 469 q 1014 264 1056 336 q 903 137 972 192 q 749 44 833 82 q 578 -12 664 7 q 417 -32 492 -32 q 353 -28 389 -32 q 292 -10 317 -24 q 276 -1 289 -8 q 263 14 263 7 q 267 17 263 17 q 272 18 271 18 q 308 8 289 18 q 394 -4 353 -4 q 530 15 456 -4 q 679 66 604 33 q 817 142 754 99 q 917 235 879 185 q 979 341 953 282 q 1006 460 1006 400 q 974 576 1006 526 q 891 662 942 626 q 781 720 840 697 q 667 756 722 743 q 456 778 565 778 q 428 777 442 778 q 400 775 414 776 q 283 440 325 614 q 263 356 274 397 q 242 272 253 314 q 316 269 274 271 q 381 260 358 267 q 385 256 385 258 q 376 250 385 250 q 306 249 340 250 q 236 246 271 247 q 217 143 225 194 q 210 39 210 92 q 210 19 210 29 q 211 -3 210 8 q 217 -37 214 -21 q 233 -68 221 -53 q 250 -80 242 -78 q 264 -89 258 -82 q 265 -92 265 -89 q 257 -99 265 -96 q 244 -103 249 -103 z "},"∆":{"ha":628,"x_min":35,"x_max":594,"o":"m 35 -3 q 92 99 60 43 q 160 215 125 156 q 229 328 196 274 l 419 638 q 431 660 422 643 q 452 696 440 676 q 474 730 464 715 q 490 744 485 744 q 496 733 496 744 q 510 564 500 660 q 533 365 519 468 q 562 167 546 263 q 594 -3 578 71 q 555 -2 594 -3 q 448 -1 515 -1 q 297 0 381 0 q 169 0 236 0 q 35 -3 101 0 m 319 42 q 461 44 399 42 q 533 46 524 46 q 526 119 532 68 q 512 235 519 169 q 496 365 504 301 q 476 526 486 450 q 464 644 467 601 q 458 659 463 657 q 450 653 454 661 q 345 483 403 576 q 233 297 288 389 q 162 174 196 233 q 101 64 128 115 q 97 52 100 58 q 104 46 94 46 q 206 43 149 44 q 319 42 264 42 z "},"ǅ":{"ha":1365,"x_min":69,"x_max":1449,"o":"m 1446 725 q 1447 724 1446 725 q 1449 722 1449 724 q 1438 709 1447 717 q 1422 699 1428 701 q 1377 663 1406 686 q 1321 617 1349 640 q 1275 579 1293 594 q 1231 558 1254 558 q 1199 579 1208 558 q 1180 617 1192 594 q 1156 663 1168 640 q 1135 699 1143 686 q 1129 709 1133 701 q 1126 722 1125 717 q 1132 725 1129 725 q 1160 703 1139 725 q 1206 656 1182 682 q 1240 617 1229 629 q 1322 663 1278 638 q 1401 707 1367 689 q 1446 725 1436 725 m 151 -103 q 111 -81 128 -103 q 85 -32 94 -60 q 74 14 76 -4 q 69 96 69 54 q 84 260 69 169 q 124 447 99 351 q 180 628 149 542 q 244 778 211 714 q 229 775 236 775 q 217 778 224 775 q 210 788 210 781 q 222 806 210 799 q 249 818 233 814 q 271 824 264 822 q 281 845 275 831 q 297 872 288 860 q 315 885 306 885 q 336 874 329 885 q 343 853 343 864 q 342 841 343 847 q 340 829 342 835 l 367 829 q 511 817 435 829 q 662 778 588 806 q 801 706 736 751 q 908 594 865 661 q 947 513 933 556 q 961 424 961 469 q 919 264 961 336 q 808 137 878 192 q 655 44 739 82 q 485 -12 571 7 q 324 -32 399 -32 q 260 -28 296 -32 q 199 -10 224 -24 q 183 -1 196 -8 q 169 14 169 7 q 174 17 169 17 q 179 18 178 18 q 215 8 196 18 q 301 -4 260 -4 q 437 15 363 -4 q 586 66 511 33 q 724 142 661 99 q 822 235 786 185 q 885 341 858 282 q 913 460 913 400 q 881 576 913 526 q 798 662 849 626 q 688 720 747 697 q 572 756 628 743 q 469 771 521 767 q 365 775 418 775 q 338 774 351 775 q 308 772 324 774 q 257 642 283 717 q 206 483 231 567 q 160 316 181 399 q 128 161 140 233 q 117 39 117 89 q 117 19 117 29 q 118 -3 117 8 q 124 -37 121 -21 q 139 -68 128 -53 q 156 -80 147 -78 q 171 -89 164 -82 q 172 -92 172 -89 q 164 -99 172 -96 q 151 -103 156 -103 m 1240 -60 q 1235 -53 1235 -60 q 1244 -35 1235 -44 q 1263 -16 1254 -26 q 1272 4 1272 -6 q 1258 20 1272 15 q 1226 26 1243 25 q 1201 26 1208 26 q 1044 18 1124 26 q 997 12 1021 17 q 949 7 972 7 l 936 7 q 928 29 928 18 q 930 42 928 36 q 933 53 932 47 q 971 104 943 71 q 1037 179 999 138 q 1116 264 1075 221 q 1192 344 1157 307 q 1249 406 1226 382 q 1271 433 1271 431 l 1265 431 q 1226 435 1246 433 q 1186 438 1206 438 q 1124 430 1149 438 q 1071 396 1099 422 q 1060 386 1065 390 q 1047 383 1054 382 q 1042 396 1042 388 q 1056 433 1042 415 q 1083 461 1069 450 q 1135 469 1108 468 q 1188 471 1161 471 q 1265 469 1226 471 q 1342 468 1303 468 q 1358 463 1351 468 q 1365 447 1365 457 q 1342 406 1365 424 q 1296 383 1318 388 q 1221 313 1264 354 q 1134 226 1178 272 q 1054 134 1090 179 q 997 51 1018 89 q 1122 70 1058 61 q 1246 79 1185 79 q 1288 73 1265 79 q 1311 42 1311 67 q 1297 2 1311 26 q 1267 -41 1283 -22 q 1240 -60 1250 -60 z "},"E":{"ha":700,"x_min":69,"x_max":644,"o":"m 272 -21 q 155 -13 210 -21 q 82 8 100 -6 q 72 33 74 17 q 69 58 69 49 q 76 134 69 92 q 90 217 82 176 q 105 285 99 257 q 111 321 111 314 q 100 337 111 332 q 89 353 89 342 q 102 365 89 364 q 124 367 115 365 q 139 429 129 385 q 160 529 149 474 q 182 640 172 585 q 199 736 192 694 q 206 792 206 778 q 192 804 206 804 q 165 804 179 804 q 151 817 151 804 q 167 836 151 831 q 204 844 183 842 q 240 846 225 846 q 394 839 318 846 q 549 832 471 832 l 556 832 q 583 838 575 832 q 594 849 590 843 q 606 854 599 854 q 629 844 614 854 q 644 824 644 833 q 642 817 644 818 q 636 813 639 815 q 594 752 603 790 q 575 679 585 714 q 572 667 574 675 q 563 658 569 658 q 555 667 557 658 q 553 681 553 675 q 556 718 553 694 q 564 766 560 742 q 572 803 568 790 q 558 801 571 801 q 501 804 539 801 q 423 810 463 807 q 358 813 383 813 q 321 812 347 813 q 285 804 294 811 q 274 772 282 803 q 256 692 267 740 q 233 591 244 644 q 210 488 221 538 q 194 405 200 439 q 188 365 188 371 q 208 358 188 360 q 250 357 229 357 l 390 357 q 447 356 415 357 q 503 351 479 356 q 528 339 528 347 q 508 329 528 333 q 469 324 489 325 q 443 321 449 322 q 347 316 396 318 q 250 314 299 314 l 172 314 q 156 257 164 293 q 142 181 147 221 q 136 107 136 142 q 144 49 136 69 q 174 30 150 36 q 233 22 199 24 q 301 19 267 19 q 414 22 367 19 q 510 33 461 25 q 628 53 558 40 q 642 44 642 53 q 628 30 642 35 q 611 24 614 25 q 526 1 581 11 q 406 -15 472 -8 q 272 -21 340 -21 z "},"É":{"ha":700,"x_min":69,"x_max":644,"o":"m 272 -21 q 155 -13 210 -21 q 82 8 100 -6 q 72 33 74 17 q 69 58 69 49 q 76 134 69 92 q 90 217 82 176 q 105 285 99 257 q 111 321 111 314 q 100 337 111 332 q 89 353 89 342 q 102 365 89 364 q 124 367 115 365 q 139 429 129 385 q 160 529 149 474 q 182 640 172 585 q 199 736 192 694 q 206 792 206 778 q 192 804 206 804 q 165 804 179 804 q 151 817 151 804 q 167 836 151 831 q 204 844 183 842 q 240 846 225 846 q 394 839 318 846 q 549 832 471 832 l 556 832 q 583 838 575 832 q 594 849 590 843 q 606 854 599 854 q 629 844 614 854 q 644 824 644 833 q 642 817 644 818 q 636 813 639 815 q 594 752 603 790 q 575 679 585 714 q 572 667 574 675 q 563 658 569 658 q 555 667 557 658 q 553 681 553 675 q 556 718 553 694 q 564 766 560 742 q 572 803 568 790 q 558 801 571 801 q 501 804 539 801 q 423 810 463 807 q 358 813 383 813 q 321 812 347 813 q 285 804 294 811 q 274 772 282 803 q 256 692 267 740 q 233 591 244 644 q 210 488 221 538 q 194 405 200 439 q 188 365 188 371 q 208 358 188 360 q 250 357 229 357 l 390 357 q 447 356 415 357 q 503 351 479 356 q 528 339 528 347 q 508 329 528 333 q 469 324 489 325 q 443 321 449 322 q 347 316 396 318 q 250 314 299 314 l 172 314 q 156 257 164 293 q 142 181 147 221 q 136 107 136 142 q 144 49 136 69 q 174 30 150 36 q 233 22 199 24 q 301 19 267 19 q 414 22 367 19 q 510 33 461 25 q 628 53 558 40 q 642 44 642 53 q 628 30 642 35 q 611 24 614 25 q 526 1 581 11 q 406 -15 472 -8 q 272 -21 340 -21 m 300 936 q 297 938 299 936 q 297 940 296 939 q 306 951 299 946 q 319 960 314 957 q 365 990 333 971 q 427 1028 396 1008 q 472 1060 458 1049 q 488 1070 479 1067 q 506 1074 496 1074 q 532 1063 519 1074 q 542 1040 544 1051 q 513 1017 540 1031 q 451 989 486 1004 q 398 967 431 981 q 338 944 365 953 q 300 936 310 935 z "},"Ĕ":{"ha":700,"x_min":69,"x_max":644,"o":"m 272 -21 q 155 -13 210 -21 q 82 8 100 -6 q 72 33 74 17 q 69 58 69 49 q 76 134 69 92 q 90 217 82 176 q 105 285 99 257 q 111 321 111 314 q 100 337 111 332 q 89 353 89 342 q 102 365 89 364 q 124 367 115 365 q 139 429 129 385 q 160 529 149 474 q 182 640 172 585 q 199 736 192 694 q 206 792 206 778 q 192 804 206 804 q 165 804 179 804 q 151 817 151 804 q 167 836 151 831 q 204 844 183 842 q 240 846 225 846 q 394 839 318 846 q 549 832 471 832 l 556 832 q 583 838 575 832 q 594 849 590 843 q 606 854 599 854 q 629 844 614 854 q 644 824 644 833 q 642 817 644 818 q 636 813 639 815 q 594 752 603 790 q 575 679 585 714 q 572 667 574 675 q 563 658 569 658 q 555 667 557 658 q 553 681 553 675 q 556 718 553 694 q 564 766 560 742 q 572 803 568 790 q 558 801 571 801 q 501 804 539 801 q 423 810 463 807 q 358 813 383 813 q 321 812 347 813 q 285 804 294 811 q 274 772 282 803 q 256 692 267 740 q 233 591 244 644 q 210 488 221 538 q 194 405 200 439 q 188 365 188 371 q 208 358 188 360 q 250 357 229 357 l 390 357 q 447 356 415 357 q 503 351 479 356 q 528 339 528 347 q 508 329 528 333 q 469 324 489 325 q 443 321 449 322 q 347 316 396 318 q 250 314 299 314 l 172 314 q 156 257 164 293 q 142 181 147 221 q 136 107 136 142 q 144 49 136 69 q 174 30 150 36 q 233 22 199 24 q 301 19 267 19 q 414 22 367 19 q 510 33 461 25 q 628 53 558 40 q 642 44 642 53 q 628 30 642 35 q 611 24 614 25 q 526 1 581 11 q 406 -15 472 -8 q 272 -21 340 -21 m 432 938 q 310 1021 314 938 q 310 1034 310 1028 q 311 1044 310 1040 q 319 1064 314 1060 q 331 1068 325 1068 q 344 1053 339 1068 q 372 1009 350 1029 q 444 989 394 989 q 515 1000 478 989 q 601 1054 551 1011 q 622 1063 610 1063 q 622 1050 633 1063 q 583 1008 610 1035 q 519 959 557 981 q 432 938 481 938 z "},"Ě":{"ha":700,"x_min":69,"x_max":668,"o":"m 665 1104 q 667 1103 665 1104 q 668 1101 668 1103 q 657 1088 667 1096 q 642 1078 647 1081 q 580 1038 614 1060 q 515 994 546 1015 q 467 958 485 974 q 422 938 446 938 q 390 958 400 938 q 356 1015 381 981 q 313 1078 331 1050 q 307 1088 311 1081 q 304 1101 303 1096 q 310 1104 307 1104 q 331 1091 315 1104 q 368 1059 347 1078 q 407 1023 389 1040 q 433 996 425 1006 q 498 1030 461 1011 q 570 1065 535 1049 q 632 1093 606 1082 q 665 1104 658 1104 m 272 -21 q 155 -13 210 -21 q 82 8 100 -6 q 72 33 74 17 q 69 58 69 49 q 76 134 69 92 q 90 217 82 176 q 105 285 99 257 q 111 321 111 314 q 100 337 111 332 q 89 353 89 342 q 102 365 89 364 q 124 367 115 365 q 139 429 129 385 q 160 529 149 474 q 182 640 172 585 q 199 736 192 694 q 206 792 206 778 q 192 804 206 804 q 165 804 179 804 q 151 817 151 804 q 167 836 151 831 q 204 844 183 842 q 240 846 225 846 q 394 839 318 846 q 549 832 471 832 l 556 832 q 583 838 575 832 q 594 849 590 843 q 606 854 599 854 q 629 844 614 854 q 644 824 644 833 q 642 817 644 818 q 636 813 639 815 q 594 752 603 790 q 575 679 585 714 q 572 667 574 675 q 563 658 569 658 q 555 667 557 658 q 553 681 553 675 q 556 718 553 694 q 564 766 560 742 q 572 803 568 790 q 558 801 571 801 q 501 804 539 801 q 423 810 463 807 q 358 813 383 813 q 321 812 347 813 q 285 804 294 811 q 274 772 282 803 q 256 692 267 740 q 233 591 244 644 q 210 488 221 538 q 194 405 200 439 q 188 365 188 371 q 208 358 188 360 q 250 357 229 357 l 390 357 q 447 356 415 357 q 503 351 479 356 q 528 339 528 347 q 508 329 528 333 q 469 324 489 325 q 443 321 449 322 q 347 316 396 318 q 250 314 299 314 l 172 314 q 156 257 164 293 q 142 181 147 221 q 136 107 136 142 q 144 49 136 69 q 174 30 150 36 q 233 22 199 24 q 301 19 267 19 q 414 22 367 19 q 510 33 461 25 q 628 53 558 40 q 642 44 642 53 q 628 30 642 35 q 611 24 614 25 q 526 1 581 11 q 406 -15 472 -8 q 272 -21 340 -21 z "},"Ê":{"ha":700,"x_min":69,"x_max":644,"o":"m 272 -21 q 155 -13 210 -21 q 82 8 100 -6 q 72 33 74 17 q 69 58 69 49 q 76 134 69 92 q 90 217 82 176 q 105 285 99 257 q 111 321 111 314 q 100 337 111 332 q 89 353 89 342 q 102 365 89 364 q 124 367 115 365 q 139 429 129 385 q 160 529 149 474 q 182 640 172 585 q 199 736 192 694 q 206 792 206 778 q 192 804 206 804 q 165 804 179 804 q 151 817 151 804 q 167 836 151 831 q 204 844 183 842 q 240 846 225 846 q 394 839 318 846 q 549 832 471 832 l 556 832 q 583 838 575 832 q 594 849 590 843 q 606 854 599 854 q 629 844 614 854 q 644 824 644 833 q 642 817 644 818 q 636 813 639 815 q 594 752 603 790 q 575 679 585 714 q 572 667 574 675 q 563 658 569 658 q 555 667 557 658 q 553 681 553 675 q 556 718 553 694 q 564 766 560 742 q 572 803 568 790 q 558 801 571 801 q 501 804 539 801 q 423 810 463 807 q 358 813 383 813 q 321 812 347 813 q 285 804 294 811 q 274 772 282 803 q 256 692 267 740 q 233 591 244 644 q 210 488 221 538 q 194 405 200 439 q 188 365 188 371 q 208 358 188 360 q 250 357 229 357 l 390 357 q 447 356 415 357 q 503 351 479 356 q 528 339 528 347 q 508 329 528 333 q 469 324 489 325 q 443 321 449 322 q 347 316 396 318 q 250 314 299 314 l 172 314 q 156 257 164 293 q 142 181 147 221 q 136 107 136 142 q 144 49 136 69 q 174 30 150 36 q 233 22 199 24 q 301 19 267 19 q 414 22 367 19 q 510 33 461 25 q 628 53 558 40 q 642 44 642 53 q 628 30 642 35 q 611 24 614 25 q 526 1 581 11 q 406 -15 472 -8 q 272 -21 340 -21 m 239 928 q 238 928 239 928 q 236 931 236 929 q 248 944 239 938 q 263 954 257 951 q 324 995 290 974 q 390 1038 358 1017 q 438 1074 421 1060 q 482 1094 458 1094 q 514 1074 504 1094 q 549 1017 525 1051 q 592 954 574 982 q 599 944 594 951 q 600 931 603 938 q 594 928 597 928 q 573 941 589 928 q 536 973 557 954 q 497 1009 515 992 q 471 1036 479 1026 q 406 1002 443 1021 q 334 967 369 983 q 272 939 299 950 q 239 928 246 928 z "},"Ế":{"ha":700,"x_min":69,"x_max":875,"o":"m 272 -21 q 155 -13 210 -21 q 82 8 100 -6 q 72 33 74 17 q 69 58 69 49 q 76 134 69 92 q 90 217 82 176 q 105 285 99 257 q 111 321 111 314 q 100 337 111 332 q 89 353 89 342 q 102 365 89 364 q 124 367 115 365 q 139 429 129 385 q 160 529 149 474 q 182 640 172 585 q 199 736 192 694 q 206 792 206 778 q 192 804 206 804 q 165 804 179 804 q 151 817 151 804 q 167 836 151 831 q 204 844 183 842 q 240 846 225 846 q 394 839 318 846 q 549 832 471 832 l 556 832 q 583 838 575 832 q 594 849 590 843 q 606 854 599 854 q 629 844 614 854 q 644 824 644 833 q 642 817 644 818 q 636 813 639 815 q 594 752 603 790 q 575 679 585 714 q 572 667 574 675 q 563 658 569 658 q 555 667 557 658 q 553 681 553 675 q 556 718 553 694 q 564 766 560 742 q 572 803 568 790 q 558 801 571 801 q 501 804 539 801 q 423 810 463 807 q 358 813 383 813 q 321 812 347 813 q 285 804 294 811 q 274 772 282 803 q 256 692 267 740 q 233 591 244 644 q 210 488 221 538 q 194 405 200 439 q 188 365 188 371 q 208 358 188 360 q 250 357 229 357 l 390 357 q 447 356 415 357 q 503 351 479 356 q 528 339 528 347 q 508 329 528 333 q 469 324 489 325 q 443 321 449 322 q 347 316 396 318 q 250 314 299 314 l 172 314 q 156 257 164 293 q 142 181 147 221 q 136 107 136 142 q 144 49 136 69 q 174 30 150 36 q 233 22 199 24 q 301 19 267 19 q 414 22 367 19 q 510 33 461 25 q 628 53 558 40 q 642 44 642 53 q 628 30 642 35 q 611 24 614 25 q 526 1 581 11 q 406 -15 472 -8 q 272 -21 340 -21 m 239 928 q 238 928 239 928 q 236 931 236 929 q 248 944 239 938 q 263 954 257 951 q 324 995 290 974 q 390 1038 358 1017 q 438 1074 421 1060 q 482 1094 458 1094 q 514 1074 504 1094 q 549 1017 525 1051 q 592 954 574 982 q 599 944 594 951 q 600 931 603 938 q 594 928 597 928 q 573 941 589 928 q 536 973 557 954 q 497 1009 515 992 q 471 1036 479 1026 q 406 1002 443 1021 q 334 967 369 983 q 272 939 299 950 q 239 928 246 928 m 631 1029 q 628 1031 629 1029 q 628 1033 626 1032 q 637 1044 629 1039 q 650 1053 644 1050 q 695 1083 664 1064 q 758 1122 726 1101 q 803 1153 789 1142 q 818 1163 810 1160 q 836 1167 826 1167 q 863 1156 850 1167 q 872 1133 875 1144 q 844 1110 871 1124 q 782 1082 817 1097 q 728 1060 761 1074 q 668 1037 696 1046 q 631 1029 640 1028 z "},"Ệ":{"ha":700,"x_min":69,"x_max":644,"o":"m 272 -21 q 155 -13 210 -21 q 82 8 100 -6 q 72 33 74 17 q 69 58 69 49 q 76 134 69 92 q 90 217 82 176 q 105 285 99 257 q 111 321 111 314 q 100 337 111 332 q 89 353 89 342 q 102 365 89 364 q 124 367 115 365 q 139 429 129 385 q 160 529 149 474 q 182 640 172 585 q 199 736 192 694 q 206 792 206 778 q 192 804 206 804 q 165 804 179 804 q 151 817 151 804 q 167 836 151 831 q 204 844 183 842 q 240 846 225 846 q 394 839 318 846 q 549 832 471 832 l 556 832 q 583 838 575 832 q 594 849 590 843 q 606 854 599 854 q 629 844 614 854 q 644 824 644 833 q 642 817 644 818 q 636 813 639 815 q 594 752 603 790 q 575 679 585 714 q 572 667 574 675 q 563 658 569 658 q 555 667 557 658 q 553 681 553 675 q 556 718 553 694 q 564 766 560 742 q 572 803 568 790 q 558 801 571 801 q 501 804 539 801 q 423 810 463 807 q 358 813 383 813 q 321 812 347 813 q 285 804 294 811 q 274 772 282 803 q 256 692 267 740 q 233 591 244 644 q 210 488 221 538 q 194 405 200 439 q 188 365 188 371 q 208 358 188 360 q 250 357 229 357 l 390 357 q 447 356 415 357 q 503 351 479 356 q 528 339 528 347 q 508 329 528 333 q 469 324 489 325 q 443 321 449 322 q 347 316 396 318 q 250 314 299 314 l 172 314 q 156 257 164 293 q 142 181 147 221 q 136 107 136 142 q 144 49 136 69 q 174 30 150 36 q 233 22 199 24 q 301 19 267 19 q 414 22 367 19 q 510 33 461 25 q 628 53 558 40 q 642 44 642 53 q 628 30 642 35 q 611 24 614 25 q 526 1 581 11 q 406 -15 472 -8 q 272 -21 340 -21 m 272 -229 q 250 -212 260 -229 q 240 -185 240 -194 q 259 -152 240 -168 q 301 -126 278 -136 q 336 -115 324 -115 q 347 -124 347 -115 q 326 -171 347 -139 q 316 -193 321 -179 q 302 -218 311 -207 q 272 -229 293 -229 m 239 928 q 238 928 239 928 q 236 931 236 929 q 248 944 239 938 q 263 954 257 951 q 324 995 290 974 q 390 1038 358 1017 q 438 1074 421 1060 q 482 1094 458 1094 q 514 1074 504 1094 q 549 1017 525 1051 q 592 954 574 982 q 599 944 594 951 q 600 931 603 938 q 594 928 597 928 q 573 941 589 928 q 536 973 557 954 q 497 1009 515 992 q 471 1036 479 1026 q 406 1002 443 1021 q 334 967 369 983 q 272 939 299 950 q 239 928 246 928 z "},"Ề":{"ha":700,"x_min":69,"x_max":703,"o":"m 272 -21 q 155 -13 210 -21 q 82 8 100 -6 q 72 33 74 17 q 69 58 69 49 q 76 134 69 92 q 90 217 82 176 q 105 285 99 257 q 111 321 111 314 q 100 337 111 332 q 89 353 89 342 q 102 365 89 364 q 124 367 115 365 q 139 429 129 385 q 160 529 149 474 q 182 640 172 585 q 199 736 192 694 q 206 792 206 778 q 192 804 206 804 q 165 804 179 804 q 151 817 151 804 q 167 836 151 831 q 204 844 183 842 q 240 846 225 846 q 394 839 318 846 q 549 832 471 832 l 556 832 q 583 838 575 832 q 594 849 590 843 q 606 854 599 854 q 629 844 614 854 q 644 824 644 833 q 642 817 644 818 q 636 813 639 815 q 594 752 603 790 q 575 679 585 714 q 572 667 574 675 q 563 658 569 658 q 555 667 557 658 q 553 681 553 675 q 556 718 553 694 q 564 766 560 742 q 572 803 568 790 q 558 801 571 801 q 501 804 539 801 q 423 810 463 807 q 358 813 383 813 q 321 812 347 813 q 285 804 294 811 q 274 772 282 803 q 256 692 267 740 q 233 591 244 644 q 210 488 221 538 q 194 405 200 439 q 188 365 188 371 q 208 358 188 360 q 250 357 229 357 l 390 357 q 447 356 415 357 q 503 351 479 356 q 528 339 528 347 q 508 329 528 333 q 469 324 489 325 q 443 321 449 322 q 347 316 396 318 q 250 314 299 314 l 172 314 q 156 257 164 293 q 142 181 147 221 q 136 107 136 142 q 144 49 136 69 q 174 30 150 36 q 233 22 199 24 q 301 19 267 19 q 414 22 367 19 q 510 33 461 25 q 628 53 558 40 q 642 44 642 53 q 628 30 642 35 q 611 24 614 25 q 526 1 581 11 q 406 -15 472 -8 q 272 -21 340 -21 m 239 928 q 238 928 239 928 q 236 931 236 929 q 248 944 239 938 q 263 954 257 951 q 324 995 290 974 q 390 1038 358 1017 q 438 1074 421 1060 q 482 1094 458 1094 q 514 1074 504 1094 q 549 1017 525 1051 q 592 954 574 982 q 599 944 594 951 q 600 931 603 938 q 594 928 597 928 q 573 941 589 928 q 536 973 557 954 q 497 1009 515 992 q 471 1036 479 1026 q 406 1002 443 1021 q 334 967 369 983 q 272 939 299 950 q 239 928 246 928 m 699 1071 q 662 1078 690 1069 q 601 1101 633 1088 q 547 1124 568 1115 q 486 1152 513 1139 q 457 1175 460 1165 q 467 1197 456 1186 q 493 1208 479 1208 q 512 1205 504 1208 q 526 1194 519 1201 q 572 1163 542 1183 q 634 1124 603 1143 q 679 1094 665 1106 q 692 1086 685 1092 q 701 1075 700 1081 q 701 1072 703 1074 q 699 1071 700 1071 z "},"Ể":{"ha":700,"x_min":69,"x_max":733,"o":"m 272 -21 q 155 -13 210 -21 q 82 8 100 -6 q 72 33 74 17 q 69 58 69 49 q 76 134 69 92 q 90 217 82 176 q 105 285 99 257 q 111 321 111 314 q 100 337 111 332 q 89 353 89 342 q 102 365 89 364 q 124 367 115 365 q 139 429 129 385 q 160 529 149 474 q 182 640 172 585 q 199 736 192 694 q 206 792 206 778 q 192 804 206 804 q 165 804 179 804 q 151 817 151 804 q 167 836 151 831 q 204 844 183 842 q 240 846 225 846 q 394 839 318 846 q 549 832 471 832 l 556 832 q 583 838 575 832 q 594 849 590 843 q 606 854 599 854 q 629 844 614 854 q 644 824 644 833 q 642 817 644 818 q 636 813 639 815 q 594 752 603 790 q 575 679 585 714 q 572 667 574 675 q 563 658 569 658 q 555 667 557 658 q 553 681 553 675 q 556 718 553 694 q 564 766 560 742 q 572 803 568 790 q 558 801 571 801 q 501 804 539 801 q 423 810 463 807 q 358 813 383 813 q 321 812 347 813 q 285 804 294 811 q 274 772 282 803 q 256 692 267 740 q 233 591 244 644 q 210 488 221 538 q 194 405 200 439 q 188 365 188 371 q 208 358 188 360 q 250 357 229 357 l 390 357 q 447 356 415 357 q 503 351 479 356 q 528 339 528 347 q 508 329 528 333 q 469 324 489 325 q 443 321 449 322 q 347 316 396 318 q 250 314 299 314 l 172 314 q 156 257 164 293 q 142 181 147 221 q 136 107 136 142 q 144 49 136 69 q 174 30 150 36 q 233 22 199 24 q 301 19 267 19 q 414 22 367 19 q 510 33 461 25 q 628 53 558 40 q 642 44 642 53 q 628 30 642 35 q 611 24 614 25 q 526 1 581 11 q 406 -15 472 -8 q 272 -21 340 -21 m 239 928 q 238 928 239 928 q 236 931 236 929 q 248 944 239 938 q 263 954 257 951 q 324 995 290 974 q 390 1038 358 1017 q 438 1074 421 1060 q 482 1094 458 1094 q 514 1074 504 1094 q 549 1017 525 1051 q 592 954 574 982 q 599 944 594 951 q 600 931 603 938 q 594 928 597 928 q 573 941 589 928 q 536 973 557 954 q 497 1009 515 992 q 471 1036 479 1026 q 406 1002 443 1021 q 334 967 369 983 q 272 939 299 950 q 239 928 246 928 m 608 1061 q 599 1074 599 1061 q 601 1081 599 1078 q 604 1089 603 1085 q 617 1106 611 1100 q 639 1126 622 1113 q 666 1158 658 1142 q 674 1188 674 1174 q 636 1210 674 1210 q 583 1197 606 1210 q 548 1175 560 1183 q 539 1181 536 1167 q 576 1229 544 1208 q 660 1250 608 1250 q 715 1232 696 1250 q 733 1199 733 1214 q 686 1119 733 1153 q 647 1091 660 1101 q 624 1071 635 1081 q 608 1061 617 1061 z "},"Ễ":{"ha":700,"x_min":69,"x_max":674,"o":"m 272 -21 q 155 -13 210 -21 q 82 8 100 -6 q 72 33 74 17 q 69 58 69 49 q 76 134 69 92 q 90 217 82 176 q 105 285 99 257 q 111 321 111 314 q 100 337 111 332 q 89 353 89 342 q 102 365 89 364 q 124 367 115 365 q 139 429 129 385 q 160 529 149 474 q 182 640 172 585 q 199 736 192 694 q 206 792 206 778 q 192 804 206 804 q 165 804 179 804 q 151 817 151 804 q 167 836 151 831 q 204 844 183 842 q 240 846 225 846 q 394 839 318 846 q 549 832 471 832 l 556 832 q 583 838 575 832 q 594 849 590 843 q 606 854 599 854 q 629 844 614 854 q 644 824 644 833 q 642 817 644 818 q 636 813 639 815 q 594 752 603 790 q 575 679 585 714 q 572 667 574 675 q 563 658 569 658 q 555 667 557 658 q 553 681 553 675 q 556 718 553 694 q 564 766 560 742 q 572 803 568 790 q 558 801 571 801 q 501 804 539 801 q 423 810 463 807 q 358 813 383 813 q 321 812 347 813 q 285 804 294 811 q 274 772 282 803 q 256 692 267 740 q 233 591 244 644 q 210 488 221 538 q 194 405 200 439 q 188 365 188 371 q 208 358 188 360 q 250 357 229 357 l 390 357 q 447 356 415 357 q 503 351 479 356 q 528 339 528 347 q 508 329 528 333 q 469 324 489 325 q 443 321 449 322 q 347 316 396 318 q 250 314 299 314 l 172 314 q 156 257 164 293 q 142 181 147 221 q 136 107 136 142 q 144 49 136 69 q 174 30 150 36 q 233 22 199 24 q 301 19 267 19 q 414 22 367 19 q 510 33 461 25 q 628 53 558 40 q 642 44 642 53 q 628 30 642 35 q 611 24 614 25 q 526 1 581 11 q 406 -15 472 -8 q 272 -21 340 -21 m 239 928 q 238 928 239 928 q 236 931 236 929 q 248 944 239 938 q 263 954 257 951 q 324 995 290 974 q 390 1038 358 1017 q 438 1074 421 1060 q 482 1094 458 1094 q 514 1074 504 1094 q 549 1017 525 1051 q 592 954 574 982 q 599 944 594 951 q 600 931 603 938 q 594 928 597 928 q 573 941 589 928 q 536 973 557 954 q 497 1009 515 992 q 471 1036 479 1026 q 406 1002 443 1021 q 334 967 369 983 q 272 939 299 950 q 239 928 246 928 m 586 1122 q 528 1133 561 1122 q 464 1155 496 1144 q 408 1165 432 1165 q 374 1156 390 1165 q 345 1136 357 1146 q 328 1126 333 1126 q 324 1133 324 1126 q 340 1162 326 1143 q 376 1197 354 1181 q 422 1214 399 1214 q 476 1204 446 1214 q 540 1185 507 1194 q 607 1175 574 1175 q 646 1190 629 1175 q 668 1207 663 1206 q 671 1189 674 1207 q 637 1144 658 1167 q 586 1122 615 1122 z "},"Ȅ":{"ha":700,"x_min":69,"x_max":644,"o":"m 357 938 q 323 953 349 938 q 269 988 297 968 q 219 1021 240 1008 q 184 1047 207 1031 q 161 1074 161 1064 q 174 1092 161 1085 q 197 1100 188 1100 q 218 1094 210 1100 q 233 1078 226 1088 q 267 1042 246 1064 q 310 999 289 1019 q 343 964 332 978 q 354 954 347 961 q 361 940 361 947 q 357 938 361 938 m 442 924 q 410 945 432 925 q 365 991 389 965 q 324 1033 340 1017 q 294 1065 314 1044 q 278 1097 275 1086 q 294 1113 281 1108 q 318 1115 308 1118 q 338 1105 331 1113 q 349 1086 344 1097 q 374 1044 358 1069 q 407 992 390 1018 q 433 951 424 967 q 442 939 436 947 q 446 925 447 931 q 442 924 444 922 m 272 -21 q 155 -13 210 -21 q 82 8 100 -6 q 72 33 74 17 q 69 58 69 49 q 76 134 69 92 q 90 217 82 176 q 105 285 99 257 q 111 321 111 314 q 100 337 111 332 q 89 353 89 342 q 102 365 89 364 q 124 367 115 365 q 139 429 129 385 q 160 529 149 474 q 182 640 172 585 q 199 736 192 694 q 206 792 206 778 q 192 804 206 804 q 165 804 179 804 q 151 817 151 804 q 167 836 151 831 q 204 844 183 842 q 240 846 225 846 q 394 839 318 846 q 549 832 471 832 l 556 832 q 583 838 575 832 q 594 849 590 843 q 606 854 599 854 q 629 844 614 854 q 644 824 644 833 q 642 817 644 818 q 636 813 639 815 q 594 752 603 790 q 575 679 585 714 q 572 667 574 675 q 563 658 569 658 q 555 667 557 658 q 553 681 553 675 q 556 718 553 694 q 564 766 560 742 q 572 803 568 790 q 558 801 571 801 q 501 804 539 801 q 423 810 463 807 q 358 813 383 813 q 321 812 347 813 q 285 804 294 811 q 274 772 282 803 q 256 692 267 740 q 233 591 244 644 q 210 488 221 538 q 194 405 200 439 q 188 365 188 371 q 208 358 188 360 q 250 357 229 357 l 390 357 q 447 356 415 357 q 503 351 479 356 q 528 339 528 347 q 508 329 528 333 q 469 324 489 325 q 443 321 449 322 q 347 316 396 318 q 250 314 299 314 l 172 314 q 156 257 164 293 q 142 181 147 221 q 136 107 136 142 q 144 49 136 69 q 174 30 150 36 q 233 22 199 24 q 301 19 267 19 q 414 22 367 19 q 510 33 461 25 q 628 53 558 40 q 642 44 642 53 q 628 30 642 35 q 611 24 614 25 q 526 1 581 11 q 406 -15 472 -8 q 272 -21 340 -21 m 357 938 q 323 953 349 938 q 269 988 297 968 q 219 1021 240 1008 q 184 1047 207 1031 q 161 1074 161 1064 q 174 1092 161 1085 q 197 1100 188 1100 q 218 1094 210 1100 q 233 1078 226 1088 q 267 1042 246 1064 q 310 999 289 1019 q 343 964 332 978 q 354 954 347 961 q 361 940 361 947 q 357 938 361 938 z "},"Ë":{"ha":700,"x_min":69,"x_max":644,"o":"m 496 938 q 476 952 485 938 q 468 978 468 967 q 485 1006 468 992 q 522 1028 501 1019 q 553 1038 542 1038 q 564 1032 564 1038 q 544 988 564 1015 q 530 958 536 978 q 496 938 524 938 m 331 939 q 311 953 319 939 q 303 979 303 968 q 319 1007 303 993 q 356 1030 336 1021 q 388 1039 376 1039 q 399 1033 399 1039 q 379 989 399 1017 q 365 959 371 979 q 331 939 358 939 m 272 -21 q 155 -13 210 -21 q 82 8 100 -6 q 72 33 74 17 q 69 58 69 49 q 76 134 69 92 q 90 217 82 176 q 105 285 99 257 q 111 321 111 314 q 100 337 111 332 q 89 353 89 342 q 102 365 89 364 q 124 367 115 365 q 139 429 129 385 q 160 529 149 474 q 182 640 172 585 q 199 736 192 694 q 206 792 206 778 q 192 804 206 804 q 165 804 179 804 q 151 817 151 804 q 167 836 151 831 q 204 844 183 842 q 240 846 225 846 q 394 839 318 846 q 549 832 471 832 l 556 832 q 583 838 575 832 q 594 849 590 843 q 606 854 599 854 q 629 844 614 854 q 644 824 644 833 q 642 817 644 818 q 636 813 639 815 q 594 752 603 790 q 575 679 585 714 q 572 667 574 675 q 563 658 569 658 q 555 667 557 658 q 553 681 553 675 q 556 718 553 694 q 564 766 560 742 q 572 803 568 790 q 558 801 571 801 q 501 804 539 801 q 423 810 463 807 q 358 813 383 813 q 321 812 347 813 q 285 804 294 811 q 274 772 282 803 q 256 692 267 740 q 233 591 244 644 q 210 488 221 538 q 194 405 200 439 q 188 365 188 371 q 208 358 188 360 q 250 357 229 357 l 390 357 q 447 356 415 357 q 503 351 479 356 q 528 339 528 347 q 508 329 528 333 q 469 324 489 325 q 443 321 449 322 q 347 316 396 318 q 250 314 299 314 l 172 314 q 156 257 164 293 q 142 181 147 221 q 136 107 136 142 q 144 49 136 69 q 174 30 150 36 q 233 22 199 24 q 301 19 267 19 q 414 22 367 19 q 510 33 461 25 q 628 53 558 40 q 642 44 642 53 q 628 30 642 35 q 611 24 614 25 q 526 1 581 11 q 406 -15 472 -8 q 272 -21 340 -21 z "},"Ė":{"ha":700,"x_min":69,"x_max":644,"o":"m 272 -21 q 155 -13 210 -21 q 82 8 100 -6 q 72 33 74 17 q 69 58 69 49 q 76 134 69 92 q 90 217 82 176 q 105 285 99 257 q 111 321 111 314 q 100 337 111 332 q 89 353 89 342 q 102 365 89 364 q 124 367 115 365 q 139 429 129 385 q 160 529 149 474 q 182 640 172 585 q 199 736 192 694 q 206 792 206 778 q 192 804 206 804 q 165 804 179 804 q 151 817 151 804 q 167 836 151 831 q 204 844 183 842 q 240 846 225 846 q 394 839 318 846 q 549 832 471 832 l 556 832 q 583 838 575 832 q 594 849 590 843 q 606 854 599 854 q 629 844 614 854 q 644 824 644 833 q 642 817 644 818 q 636 813 639 815 q 594 752 603 790 q 575 679 585 714 q 572 667 574 675 q 563 658 569 658 q 555 667 557 658 q 553 681 553 675 q 556 718 553 694 q 564 766 560 742 q 572 803 568 790 q 558 801 571 801 q 501 804 539 801 q 423 810 463 807 q 358 813 383 813 q 321 812 347 813 q 285 804 294 811 q 274 772 282 803 q 256 692 267 740 q 233 591 244 644 q 210 488 221 538 q 194 405 200 439 q 188 365 188 371 q 208 358 188 360 q 250 357 229 357 l 390 357 q 447 356 415 357 q 503 351 479 356 q 528 339 528 347 q 508 329 528 333 q 469 324 489 325 q 443 321 449 322 q 347 316 396 318 q 250 314 299 314 l 172 314 q 156 257 164 293 q 142 181 147 221 q 136 107 136 142 q 144 49 136 69 q 174 30 150 36 q 233 22 199 24 q 301 19 267 19 q 414 22 367 19 q 510 33 461 25 q 628 53 558 40 q 642 44 642 53 q 628 30 642 35 q 611 24 614 25 q 526 1 581 11 q 406 -15 472 -8 q 272 -21 340 -21 m 415 938 q 398 951 406 938 q 390 974 390 964 q 405 999 390 986 q 438 1019 419 1011 q 467 1028 457 1028 q 476 1022 476 1028 q 458 985 476 1007 q 446 956 451 975 q 415 938 440 938 z "},"Ẹ":{"ha":700,"x_min":69,"x_max":644,"o":"m 272 -21 q 155 -13 210 -21 q 82 8 100 -6 q 72 33 74 17 q 69 58 69 49 q 76 134 69 92 q 90 217 82 176 q 105 285 99 257 q 111 321 111 314 q 100 337 111 332 q 89 353 89 342 q 102 365 89 364 q 124 367 115 365 q 139 429 129 385 q 160 529 149 474 q 182 640 172 585 q 199 736 192 694 q 206 792 206 778 q 192 804 206 804 q 165 804 179 804 q 151 817 151 804 q 167 836 151 831 q 204 844 183 842 q 240 846 225 846 q 394 839 318 846 q 549 832 471 832 l 556 832 q 583 838 575 832 q 594 849 590 843 q 606 854 599 854 q 629 844 614 854 q 644 824 644 833 q 642 817 644 818 q 636 813 639 815 q 594 752 603 790 q 575 679 585 714 q 572 667 574 675 q 563 658 569 658 q 555 667 557 658 q 553 681 553 675 q 556 718 553 694 q 564 766 560 742 q 572 803 568 790 q 558 801 571 801 q 501 804 539 801 q 423 810 463 807 q 358 813 383 813 q 321 812 347 813 q 285 804 294 811 q 274 772 282 803 q 256 692 267 740 q 233 591 244 644 q 210 488 221 538 q 194 405 200 439 q 188 365 188 371 q 208 358 188 360 q 250 357 229 357 l 390 357 q 447 356 415 357 q 503 351 479 356 q 528 339 528 347 q 508 329 528 333 q 469 324 489 325 q 443 321 449 322 q 347 316 396 318 q 250 314 299 314 l 172 314 q 156 257 164 293 q 142 181 147 221 q 136 107 136 142 q 144 49 136 69 q 174 30 150 36 q 233 22 199 24 q 301 19 267 19 q 414 22 367 19 q 510 33 461 25 q 628 53 558 40 q 642 44 642 53 q 628 30 642 35 q 611 24 614 25 q 526 1 581 11 q 406 -15 472 -8 q 272 -21 340 -21 m 272 -229 q 250 -212 260 -229 q 240 -185 240 -194 q 259 -152 240 -168 q 301 -126 278 -136 q 336 -115 324 -115 q 347 -124 347 -115 q 326 -171 347 -139 q 316 -193 321 -179 q 302 -218 311 -207 q 272 -229 293 -229 z "},"È":{"ha":700,"x_min":69,"x_max":644,"o":"m 272 -21 q 155 -13 210 -21 q 82 8 100 -6 q 72 33 74 17 q 69 58 69 49 q 76 134 69 92 q 90 217 82 176 q 105 285 99 257 q 111 321 111 314 q 100 337 111 332 q 89 353 89 342 q 102 365 89 364 q 124 367 115 365 q 139 429 129 385 q 160 529 149 474 q 182 640 172 585 q 199 736 192 694 q 206 792 206 778 q 192 804 206 804 q 165 804 179 804 q 151 817 151 804 q 167 836 151 831 q 204 844 183 842 q 240 846 225 846 q 394 839 318 846 q 549 832 471 832 l 556 832 q 583 838 575 832 q 594 849 590 843 q 606 854 599 854 q 629 844 614 854 q 644 824 644 833 q 642 817 644 818 q 636 813 639 815 q 594 752 603 790 q 575 679 585 714 q 572 667 574 675 q 563 658 569 658 q 555 667 557 658 q 553 681 553 675 q 556 718 553 694 q 564 766 560 742 q 572 803 568 790 q 558 801 571 801 q 501 804 539 801 q 423 810 463 807 q 358 813 383 813 q 321 812 347 813 q 285 804 294 811 q 274 772 282 803 q 256 692 267 740 q 233 591 244 644 q 210 488 221 538 q 194 405 200 439 q 188 365 188 371 q 208 358 188 360 q 250 357 229 357 l 390 357 q 447 356 415 357 q 503 351 479 356 q 528 339 528 347 q 508 329 528 333 q 469 324 489 325 q 443 321 449 322 q 347 316 396 318 q 250 314 299 314 l 172 314 q 156 257 164 293 q 142 181 147 221 q 136 107 136 142 q 144 49 136 69 q 174 30 150 36 q 233 22 199 24 q 301 19 267 19 q 414 22 367 19 q 510 33 461 25 q 628 53 558 40 q 642 44 642 53 q 628 30 642 35 q 611 24 614 25 q 526 1 581 11 q 406 -15 472 -8 q 272 -21 340 -21 m 517 936 q 480 944 508 935 q 419 967 451 953 q 365 989 386 981 q 304 1017 331 1004 q 275 1040 278 1031 q 285 1063 274 1051 q 311 1074 297 1074 q 330 1070 322 1074 q 344 1060 338 1067 q 390 1028 360 1049 q 452 990 421 1008 q 497 960 483 971 q 510 951 503 957 q 519 940 518 946 q 519 938 521 939 q 517 936 518 936 z "},"Ẻ":{"ha":700,"x_min":69,"x_max":644,"o":"m 272 -21 q 155 -13 210 -21 q 82 8 100 -6 q 72 33 74 17 q 69 58 69 49 q 76 134 69 92 q 90 217 82 176 q 105 285 99 257 q 111 321 111 314 q 100 337 111 332 q 89 353 89 342 q 102 365 89 364 q 124 367 115 365 q 139 429 129 385 q 160 529 149 474 q 182 640 172 585 q 199 736 192 694 q 206 792 206 778 q 192 804 206 804 q 165 804 179 804 q 151 817 151 804 q 167 836 151 831 q 204 844 183 842 q 240 846 225 846 q 394 839 318 846 q 549 832 471 832 l 556 832 q 583 838 575 832 q 594 849 590 843 q 606 854 599 854 q 629 844 614 854 q 644 824 644 833 q 642 817 644 818 q 636 813 639 815 q 594 752 603 790 q 575 679 585 714 q 572 667 574 675 q 563 658 569 658 q 555 667 557 658 q 553 681 553 675 q 556 718 553 694 q 564 766 560 742 q 572 803 568 790 q 558 801 571 801 q 501 804 539 801 q 423 810 463 807 q 358 813 383 813 q 321 812 347 813 q 285 804 294 811 q 274 772 282 803 q 256 692 267 740 q 233 591 244 644 q 210 488 221 538 q 194 405 200 439 q 188 365 188 371 q 208 358 188 360 q 250 357 229 357 l 390 357 q 447 356 415 357 q 503 351 479 356 q 528 339 528 347 q 508 329 528 333 q 469 324 489 325 q 443 321 449 322 q 347 316 396 318 q 250 314 299 314 l 172 314 q 156 257 164 293 q 142 181 147 221 q 136 107 136 142 q 144 49 136 69 q 174 30 150 36 q 233 22 199 24 q 301 19 267 19 q 414 22 367 19 q 510 33 461 25 q 628 53 558 40 q 642 44 642 53 q 628 30 642 35 q 611 24 614 25 q 526 1 581 11 q 406 -15 472 -8 q 272 -21 340 -21 m 418 931 q 408 943 408 931 q 410 951 408 947 q 414 958 413 954 q 426 976 421 969 q 449 996 432 982 q 476 1027 468 1011 q 483 1057 483 1043 q 446 1079 483 1079 q 392 1066 415 1079 q 358 1044 369 1053 q 349 1050 346 1036 q 386 1099 354 1078 q 469 1119 418 1119 q 524 1101 506 1119 q 543 1068 543 1083 q 496 989 543 1022 q 457 960 469 971 q 433 940 444 950 q 418 931 426 931 z "},"Ȇ":{"ha":700,"x_min":69,"x_max":644,"o":"m 450 1060 q 572 976 568 1060 q 572 963 572 969 q 571 953 572 957 q 563 934 568 939 q 551 929 557 929 q 538 944 543 929 q 510 988 532 968 q 438 1008 488 1008 q 367 998 404 1008 q 281 943 331 988 q 260 935 272 935 q 260 947 249 935 q 299 990 272 964 q 363 1038 325 1017 q 450 1060 401 1060 m 272 -21 q 155 -13 210 -21 q 82 8 100 -6 q 72 33 74 17 q 69 58 69 49 q 76 134 69 92 q 90 217 82 176 q 105 285 99 257 q 111 321 111 314 q 100 337 111 332 q 89 353 89 342 q 102 365 89 364 q 124 367 115 365 q 139 429 129 385 q 160 529 149 474 q 182 640 172 585 q 199 736 192 694 q 206 792 206 778 q 192 804 206 804 q 165 804 179 804 q 151 817 151 804 q 167 836 151 831 q 204 844 183 842 q 240 846 225 846 q 394 839 318 846 q 549 832 471 832 l 556 832 q 583 838 575 832 q 594 849 590 843 q 606 854 599 854 q 629 844 614 854 q 644 824 644 833 q 642 817 644 818 q 636 813 639 815 q 594 752 603 790 q 575 679 585 714 q 572 667 574 675 q 563 658 569 658 q 555 667 557 658 q 553 681 553 675 q 556 718 553 694 q 564 766 560 742 q 572 803 568 790 q 558 801 571 801 q 501 804 539 801 q 423 810 463 807 q 358 813 383 813 q 321 812 347 813 q 285 804 294 811 q 274 772 282 803 q 256 692 267 740 q 233 591 244 644 q 210 488 221 538 q 194 405 200 439 q 188 365 188 371 q 208 358 188 360 q 250 357 229 357 l 390 357 q 447 356 415 357 q 503 351 479 356 q 528 339 528 347 q 508 329 528 333 q 469 324 489 325 q 443 321 449 322 q 347 316 396 318 q 250 314 299 314 l 172 314 q 156 257 164 293 q 142 181 147 221 q 136 107 136 142 q 144 49 136 69 q 174 30 150 36 q 233 22 199 24 q 301 19 267 19 q 414 22 367 19 q 510 33 461 25 q 628 53 558 40 q 642 44 642 53 q 628 30 642 35 q 611 24 614 25 q 526 1 581 11 q 406 -15 472 -8 q 272 -21 340 -21 z "},"Ē":{"ha":700,"x_min":69,"x_max":644,"o":"m 272 -21 q 155 -13 210 -21 q 82 8 100 -6 q 72 33 74 17 q 69 58 69 49 q 76 134 69 92 q 90 217 82 176 q 105 285 99 257 q 111 321 111 314 q 100 337 111 332 q 89 353 89 342 q 102 365 89 364 q 124 367 115 365 q 139 429 129 385 q 160 529 149 474 q 182 640 172 585 q 199 736 192 694 q 206 792 206 778 q 192 804 206 804 q 165 804 179 804 q 151 817 151 804 q 167 836 151 831 q 204 844 183 842 q 240 846 225 846 q 394 839 318 846 q 549 832 471 832 l 556 832 q 583 838 575 832 q 594 849 590 843 q 606 854 599 854 q 629 844 614 854 q 644 824 644 833 q 642 817 644 818 q 636 813 639 815 q 594 752 603 790 q 575 679 585 714 q 572 667 574 675 q 563 658 569 658 q 555 667 557 658 q 553 681 553 675 q 556 718 553 694 q 564 766 560 742 q 572 803 568 790 q 558 801 571 801 q 501 804 539 801 q 423 810 463 807 q 358 813 383 813 q 321 812 347 813 q 285 804 294 811 q 274 772 282 803 q 256 692 267 740 q 233 591 244 644 q 210 488 221 538 q 194 405 200 439 q 188 365 188 371 q 208 358 188 360 q 250 357 229 357 l 390 357 q 447 356 415 357 q 503 351 479 356 q 528 339 528 347 q 508 329 528 333 q 469 324 489 325 q 443 321 449 322 q 347 316 396 318 q 250 314 299 314 l 172 314 q 156 257 164 293 q 142 181 147 221 q 136 107 136 142 q 144 49 136 69 q 174 30 150 36 q 233 22 199 24 q 301 19 267 19 q 414 22 367 19 q 510 33 461 25 q 628 53 558 40 q 642 44 642 53 q 628 30 642 35 q 611 24 614 25 q 526 1 581 11 q 406 -15 472 -8 q 272 -21 340 -21 m 267 932 q 253 943 258 932 q 247 964 247 954 l 249 967 q 297 974 264 972 q 365 978 331 976 q 415 979 399 979 q 459 978 432 979 q 515 975 486 976 q 560 971 543 974 q 582 961 582 969 q 557 946 582 950 q 494 940 533 943 q 410 935 454 938 q 328 933 367 933 q 267 932 289 932 z "},"Ŋ":{"ha":819,"x_min":32,"x_max":828,"o":"m 393 -436 q 300 -407 346 -436 q 236 -333 254 -378 q 225 -275 225 -304 q 232 -231 225 -250 q 249 -211 239 -211 q 257 -222 256 -211 q 258 -236 258 -232 q 271 -290 258 -262 q 297 -339 283 -317 q 338 -386 314 -365 q 394 -407 363 -407 q 481 -371 442 -407 q 551 -276 519 -335 q 606 -145 582 -217 q 649 -3 631 -74 q 490 207 560 100 q 359 440 419 314 q 236 724 299 565 q 225 735 228 735 q 218 724 221 735 q 194 641 203 676 q 179 574 186 606 q 131 350 153 463 q 93 124 108 238 q 76 -8 83 60 q 75 -32 75 -19 q 72 -56 75 -44 q 65 -81 71 -65 q 44 -97 60 -97 q 35 -89 38 -97 q 32 -75 32 -81 l 32 -69 q 62 212 32 72 q 122 489 92 351 q 154 622 138 556 q 186 754 171 688 q 185 769 186 761 q 183 783 183 778 q 199 814 183 794 q 225 833 215 833 q 256 822 242 833 q 275 793 269 811 q 326 669 293 746 q 403 505 360 593 q 493 333 446 417 q 586 186 540 250 q 671 94 632 122 q 698 245 686 164 q 724 400 710 326 l 781 807 q 786 826 783 813 q 807 839 789 839 q 822 835 817 839 q 828 815 828 832 q 828 807 828 811 q 826 797 828 803 q 792 509 810 656 q 751 224 774 363 q 697 -33 728 86 q 623 -243 665 -153 q 524 -385 581 -333 q 393 -436 468 -436 z "},"Ę":{"ha":700,"x_min":69,"x_max":644,"o":"m 272 -21 q 155 -13 210 -21 q 82 8 100 -6 q 72 33 74 17 q 69 58 69 49 q 76 134 69 92 q 90 217 82 176 q 105 285 99 257 q 111 321 111 314 q 100 337 111 332 q 89 353 89 342 q 102 365 89 364 q 124 367 115 365 q 139 429 129 385 q 160 529 149 474 q 182 640 172 585 q 199 736 192 694 q 206 792 206 778 q 192 804 206 804 q 165 804 179 804 q 151 817 151 804 q 167 836 151 831 q 204 844 183 842 q 240 846 225 846 q 394 839 318 846 q 549 832 471 832 l 556 832 q 583 838 575 832 q 594 849 590 843 q 606 854 599 854 q 629 844 614 854 q 644 824 644 833 q 642 817 644 818 q 636 813 639 815 q 594 752 603 790 q 575 679 585 714 q 572 667 574 675 q 563 658 569 658 q 555 667 557 658 q 553 681 553 675 q 556 718 553 694 q 564 766 560 742 q 572 803 568 790 q 558 801 571 801 q 501 804 539 801 q 423 810 463 807 q 358 813 383 813 q 321 812 347 813 q 285 804 294 811 q 274 772 282 803 q 256 692 267 740 q 233 591 244 644 q 210 488 221 538 q 194 405 200 439 q 188 365 188 371 q 208 358 188 360 q 250 357 229 357 l 390 357 q 447 356 415 357 q 503 351 479 356 q 528 339 528 347 q 508 329 528 333 q 469 324 489 325 q 443 321 449 322 q 347 316 396 318 q 250 314 299 314 l 172 314 q 156 257 164 293 q 142 181 147 221 q 136 107 136 142 q 144 49 136 69 q 174 30 150 36 q 233 22 199 24 q 301 19 267 19 q 414 22 367 19 q 510 33 461 25 q 628 53 558 40 q 642 44 642 53 q 628 30 642 35 q 611 24 614 25 q 526 1 581 11 q 406 -15 472 -8 q 272 -21 340 -21 m 486 -204 q 433 -193 461 -204 q 404 -151 404 -182 q 414 -110 404 -136 q 439 -55 424 -83 q 472 -6 454 -26 q 506 14 489 14 l 521 10 q 483 -46 503 -8 q 464 -111 464 -83 q 480 -147 464 -135 q 515 -158 496 -158 q 568 -153 540 -158 q 618 -133 596 -147 q 620 -132 619 -132 q 621 -132 621 -132 q 628 -137 625 -132 q 631 -146 631 -142 q 606 -172 631 -158 q 547 -195 581 -186 q 486 -204 513 -204 z "},"Ð":{"ha":1106,"x_min":69,"x_max":1056,"o":"m 244 -103 q 204 -81 221 -103 q 178 -32 188 -60 q 167 14 169 -4 q 163 96 163 54 q 165 165 163 128 q 174 242 168 203 q 137 241 156 242 q 100 238 118 240 q 82 249 92 240 q 69 264 72 258 l 72 265 q 126 269 100 268 q 178 271 151 269 q 215 451 192 360 q 269 626 239 543 q 333 772 300 710 q 325 770 329 771 q 317 769 321 769 q 305 772 313 769 q 297 782 297 775 q 309 801 297 793 q 336 813 321 808 q 358 818 351 817 q 369 841 363 825 q 386 871 376 857 q 406 885 396 885 q 424 872 418 885 q 431 847 431 858 q 425 824 431 833 l 439 824 q 593 813 513 824 q 751 776 674 801 q 893 706 828 750 q 1001 594 958 661 q 1041 513 1026 556 q 1056 424 1056 469 q 1014 264 1056 336 q 903 137 972 192 q 749 44 833 82 q 578 -12 664 7 q 417 -32 492 -32 q 353 -28 389 -32 q 292 -10 317 -24 q 276 -1 289 -8 q 263 14 263 7 q 267 17 263 17 q 272 18 271 18 q 308 8 289 18 q 394 -4 353 -4 q 530 15 456 -4 q 679 66 604 33 q 817 142 754 99 q 917 235 879 185 q 979 341 953 282 q 1006 460 1006 400 q 974 576 1006 526 q 891 662 942 626 q 781 720 840 697 q 667 756 722 743 q 456 778 565 778 q 428 777 442 778 q 400 775 414 776 q 283 440 325 614 q 263 356 274 397 q 242 272 253 314 q 316 269 274 271 q 381 260 358 267 q 385 256 385 258 q 376 250 385 250 q 306 249 340 250 q 236 246 271 247 q 217 143 225 194 q 210 39 210 92 q 210 19 210 29 q 211 -3 210 8 q 217 -37 214 -21 q 233 -68 221 -53 q 250 -80 242 -78 q 264 -89 258 -82 q 265 -92 265 -89 q 257 -99 265 -96 q 244 -103 249 -103 z "},"Ẽ":{"ha":700,"x_min":69,"x_max":644,"o":"m 272 -21 q 155 -13 210 -21 q 82 8 100 -6 q 72 33 74 17 q 69 58 69 49 q 76 134 69 92 q 90 217 82 176 q 105 285 99 257 q 111 321 111 314 q 100 337 111 332 q 89 353 89 342 q 102 365 89 364 q 124 367 115 365 q 139 429 129 385 q 160 529 149 474 q 182 640 172 585 q 199 736 192 694 q 206 792 206 778 q 192 804 206 804 q 165 804 179 804 q 151 817 151 804 q 167 836 151 831 q 204 844 183 842 q 240 846 225 846 q 394 839 318 846 q 549 832 471 832 l 556 832 q 583 838 575 832 q 594 849 590 843 q 606 854 599 854 q 629 844 614 854 q 644 824 644 833 q 642 817 644 818 q 636 813 639 815 q 594 752 603 790 q 575 679 585 714 q 572 667 574 675 q 563 658 569 658 q 555 667 557 658 q 553 681 553 675 q 556 718 553 694 q 564 766 560 742 q 572 803 568 790 q 558 801 571 801 q 501 804 539 801 q 423 810 463 807 q 358 813 383 813 q 321 812 347 813 q 285 804 294 811 q 274 772 282 803 q 256 692 267 740 q 233 591 244 644 q 210 488 221 538 q 194 405 200 439 q 188 365 188 371 q 208 358 188 360 q 250 357 229 357 l 390 357 q 447 356 415 357 q 503 351 479 356 q 528 339 528 347 q 508 329 528 333 q 469 324 489 325 q 443 321 449 322 q 347 316 396 318 q 250 314 299 314 l 172 314 q 156 257 164 293 q 142 181 147 221 q 136 107 136 142 q 144 49 136 69 q 174 30 150 36 q 233 22 199 24 q 301 19 267 19 q 414 22 367 19 q 510 33 461 25 q 628 53 558 40 q 642 44 642 53 q 628 30 642 35 q 611 24 614 25 q 526 1 581 11 q 406 -15 472 -8 q 272 -21 340 -21 m 528 931 q 470 942 503 931 q 406 963 438 953 q 350 974 374 974 q 315 964 332 974 q 287 944 299 954 q 269 935 275 935 q 265 942 265 935 q 282 970 268 951 q 318 1006 296 989 q 364 1022 340 1022 q 418 1013 388 1022 q 482 993 449 1003 q 549 983 515 983 q 588 999 571 983 q 610 1015 604 1014 q 613 997 615 1015 q 578 953 600 975 q 528 931 557 931 z "},"F":{"ha":632,"x_min":69,"x_max":649,"o":"m 86 -46 q 72 -29 75 -46 q 69 1 69 -12 q 74 60 69 22 q 88 145 79 99 q 105 238 96 192 q 121 317 114 283 q 117 317 118 317 q 117 317 117 317 q 107 335 117 328 q 97 353 97 342 q 111 365 97 364 q 133 367 125 365 q 148 429 139 385 q 167 529 157 474 q 188 640 178 585 q 203 736 197 694 q 210 792 210 778 q 197 804 210 804 q 169 804 183 804 q 156 817 156 804 q 172 836 156 831 q 208 844 188 842 q 244 846 229 846 q 399 839 322 846 q 553 832 476 832 l 561 832 q 588 838 581 832 q 599 849 594 843 q 610 854 603 854 q 634 844 619 854 q 649 824 649 833 q 646 817 649 818 q 640 813 643 815 q 598 752 607 790 q 579 679 589 714 q 576 667 578 675 q 567 658 574 658 q 559 667 561 658 q 557 681 557 675 q 560 718 557 694 q 568 766 564 742 q 576 803 572 790 q 563 801 575 801 q 505 804 543 801 q 427 810 467 807 q 363 813 388 813 q 325 812 351 813 q 289 804 299 811 q 278 772 286 803 q 260 694 271 742 q 237 592 249 646 q 215 490 225 539 q 198 407 204 440 q 192 368 192 374 q 215 359 192 361 q 258 357 238 357 l 400 357 q 457 356 425 357 q 513 351 489 356 q 538 339 538 347 q 518 329 538 333 q 478 324 499 325 q 451 321 457 322 q 356 316 404 318 q 260 314 307 314 q 215 314 236 314 q 176 315 194 314 q 145 166 157 233 q 133 57 133 99 q 138 35 133 39 q 147 28 143 31 q 151 11 151 25 q 139 -12 151 1 q 111 -35 126 -25 q 86 -46 96 -46 z "},"G":{"ha":1015,"x_min":69,"x_max":1018,"o":"m 750 -65 q 740 -58 742 -65 q 739 -47 739 -51 q 746 5 739 -29 q 763 76 753 39 q 781 142 772 113 q 792 183 789 172 q 624 32 724 89 q 396 -25 525 -25 q 217 24 290 -25 q 107 152 144 74 q 69 318 69 231 q 104 507 69 413 q 206 680 139 601 q 371 806 274 758 q 594 853 468 853 q 712 836 651 853 q 828 778 772 819 q 833 806 832 793 q 833 828 833 818 q 833 844 833 838 q 832 857 833 851 l 832 858 q 844 867 832 867 q 860 853 856 867 q 865 818 865 839 q 863 785 865 803 q 858 753 861 768 q 877 724 868 740 q 886 690 886 708 q 885 681 886 688 q 879 675 885 675 q 863 691 869 675 q 849 713 856 707 q 842 675 847 700 q 832 621 838 650 q 820 567 826 592 q 808 533 814 543 q 788 522 803 522 q 767 526 778 522 q 756 542 756 529 q 764 586 756 558 q 778 629 772 614 q 798 686 785 651 q 815 742 811 721 q 703 801 769 782 q 585 821 638 821 q 417 786 497 821 q 274 685 336 751 q 176 525 213 619 q 140 313 140 431 q 172 164 140 232 q 267 54 204 96 q 426 13 331 13 q 558 40 492 13 q 681 113 624 67 q 779 217 739 158 q 835 339 819 276 q 743 330 792 336 q 651 319 694 324 q 579 314 608 314 q 556 319 567 314 q 544 336 544 324 q 560 367 544 353 q 582 378 576 381 q 610 372 590 375 q 656 369 629 369 q 756 372 694 369 q 884 378 817 375 q 1006 385 951 382 q 1013 384 1008 385 q 1018 381 1018 383 q 1001 367 1018 372 q 960 358 983 363 q 918 349 938 354 q 894 338 899 344 q 885 315 889 328 q 876 290 881 301 q 849 217 865 263 q 819 126 832 172 q 806 49 806 79 q 813 21 806 26 q 826 15 819 15 q 833 3 833 14 q 820 -26 833 -12 q 793 -46 807 -39 q 772 -58 786 -50 q 750 -65 757 -65 z "},"Ğ":{"ha":1015,"x_min":69,"x_max":1018,"o":"m 750 -65 q 740 -58 742 -65 q 739 -47 739 -51 q 746 5 739 -29 q 763 76 753 39 q 781 142 772 113 q 792 183 789 172 q 624 32 724 89 q 396 -25 525 -25 q 217 24 290 -25 q 107 152 144 74 q 69 318 69 231 q 104 507 69 413 q 206 680 139 601 q 371 806 274 758 q 594 853 468 853 q 712 836 651 853 q 828 778 772 819 q 833 806 832 793 q 833 828 833 818 q 833 844 833 838 q 832 857 833 851 l 832 858 q 844 867 832 867 q 860 853 856 867 q 865 818 865 839 q 863 785 865 803 q 858 753 861 768 q 877 724 868 740 q 886 690 886 708 q 885 681 886 688 q 879 675 885 675 q 863 691 869 675 q 849 713 856 707 q 842 675 847 700 q 832 621 838 650 q 820 567 826 592 q 808 533 814 543 q 788 522 803 522 q 767 526 778 522 q 756 542 756 529 q 764 586 756 558 q 778 629 772 614 q 798 686 785 651 q 815 742 811 721 q 703 801 769 782 q 585 821 638 821 q 417 786 497 821 q 274 685 336 751 q 176 525 213 619 q 140 313 140 431 q 172 164 140 232 q 267 54 204 96 q 426 13 331 13 q 558 40 492 13 q 681 113 624 67 q 779 217 739 158 q 835 339 819 276 q 743 330 792 336 q 651 319 694 324 q 579 314 608 314 q 556 319 567 314 q 544 336 544 324 q 560 367 544 353 q 582 378 576 381 q 610 372 590 375 q 656 369 629 369 q 756 372 694 369 q 884 378 817 375 q 1006 385 951 382 q 1013 384 1008 385 q 1018 381 1018 383 q 1001 367 1018 372 q 960 358 983 363 q 918 349 938 354 q 894 338 899 344 q 885 315 889 328 q 876 290 881 301 q 849 217 865 263 q 819 126 832 172 q 806 49 806 79 q 813 21 806 26 q 826 15 819 15 q 833 3 833 14 q 820 -26 833 -12 q 793 -46 807 -39 q 772 -58 786 -50 q 750 -65 757 -65 m 632 938 q 510 1021 514 938 q 510 1034 510 1028 q 511 1044 510 1040 q 519 1064 514 1060 q 531 1068 525 1068 q 544 1053 539 1068 q 572 1009 550 1029 q 644 989 594 989 q 715 1000 678 989 q 801 1054 751 1011 q 822 1063 810 1063 q 822 1050 833 1063 q 783 1008 810 1035 q 719 959 757 981 q 632 938 681 938 z "},"Ǧ":{"ha":1015,"x_min":69,"x_max":1018,"o":"m 865 1104 q 867 1103 865 1104 q 868 1101 868 1103 q 857 1088 867 1096 q 842 1078 847 1081 q 780 1038 814 1060 q 715 994 746 1015 q 667 958 685 974 q 622 938 646 938 q 590 958 600 938 q 556 1015 581 981 q 513 1078 531 1050 q 507 1088 511 1081 q 504 1101 503 1096 q 510 1104 507 1104 q 531 1091 515 1104 q 568 1059 547 1078 q 607 1023 589 1040 q 633 996 625 1006 q 698 1030 661 1011 q 770 1065 735 1049 q 832 1093 806 1082 q 865 1104 858 1104 m 750 -65 q 740 -58 742 -65 q 739 -47 739 -51 q 746 5 739 -29 q 763 76 753 39 q 781 142 772 113 q 792 183 789 172 q 624 32 724 89 q 396 -25 525 -25 q 217 24 290 -25 q 107 152 144 74 q 69 318 69 231 q 104 507 69 413 q 206 680 139 601 q 371 806 274 758 q 594 853 468 853 q 712 836 651 853 q 828 778 772 819 q 833 806 832 793 q 833 828 833 818 q 833 844 833 838 q 832 857 833 851 l 832 858 q 844 867 832 867 q 860 853 856 867 q 865 818 865 839 q 863 785 865 803 q 858 753 861 768 q 877 724 868 740 q 886 690 886 708 q 885 681 886 688 q 879 675 885 675 q 863 691 869 675 q 849 713 856 707 q 842 675 847 700 q 832 621 838 650 q 820 567 826 592 q 808 533 814 543 q 788 522 803 522 q 767 526 778 522 q 756 542 756 529 q 764 586 756 558 q 778 629 772 614 q 798 686 785 651 q 815 742 811 721 q 703 801 769 782 q 585 821 638 821 q 417 786 497 821 q 274 685 336 751 q 176 525 213 619 q 140 313 140 431 q 172 164 140 232 q 267 54 204 96 q 426 13 331 13 q 558 40 492 13 q 681 113 624 67 q 779 217 739 158 q 835 339 819 276 q 743 330 792 336 q 651 319 694 324 q 579 314 608 314 q 556 319 567 314 q 544 336 544 324 q 560 367 544 353 q 582 378 576 381 q 610 372 590 375 q 656 369 629 369 q 756 372 694 369 q 884 378 817 375 q 1006 385 951 382 q 1013 384 1008 385 q 1018 381 1018 383 q 1001 367 1018 372 q 960 358 983 363 q 918 349 938 354 q 894 338 899 344 q 885 315 889 328 q 876 290 881 301 q 849 217 865 263 q 819 126 832 172 q 806 49 806 79 q 813 21 806 26 q 826 15 819 15 q 833 3 833 14 q 820 -26 833 -12 q 793 -46 807 -39 q 772 -58 786 -50 q 750 -65 757 -65 z "},"Ĝ":{"ha":1015,"x_min":69,"x_max":1018,"o":"m 750 -65 q 740 -58 742 -65 q 739 -47 739 -51 q 746 5 739 -29 q 763 76 753 39 q 781 142 772 113 q 792 183 789 172 q 624 32 724 89 q 396 -25 525 -25 q 217 24 290 -25 q 107 152 144 74 q 69 318 69 231 q 104 507 69 413 q 206 680 139 601 q 371 806 274 758 q 594 853 468 853 q 712 836 651 853 q 828 778 772 819 q 833 806 832 793 q 833 828 833 818 q 833 844 833 838 q 832 857 833 851 l 832 858 q 844 867 832 867 q 860 853 856 867 q 865 818 865 839 q 863 785 865 803 q 858 753 861 768 q 877 724 868 740 q 886 690 886 708 q 885 681 886 688 q 879 675 885 675 q 863 691 869 675 q 849 713 856 707 q 842 675 847 700 q 832 621 838 650 q 820 567 826 592 q 808 533 814 543 q 788 522 803 522 q 767 526 778 522 q 756 542 756 529 q 764 586 756 558 q 778 629 772 614 q 798 686 785 651 q 815 742 811 721 q 703 801 769 782 q 585 821 638 821 q 417 786 497 821 q 274 685 336 751 q 176 525 213 619 q 140 313 140 431 q 172 164 140 232 q 267 54 204 96 q 426 13 331 13 q 558 40 492 13 q 681 113 624 67 q 779 217 739 158 q 835 339 819 276 q 743 330 792 336 q 651 319 694 324 q 579 314 608 314 q 556 319 567 314 q 544 336 544 324 q 560 367 544 353 q 582 378 576 381 q 610 372 590 375 q 656 369 629 369 q 756 372 694 369 q 884 378 817 375 q 1006 385 951 382 q 1013 384 1008 385 q 1018 381 1018 383 q 1001 367 1018 372 q 960 358 983 363 q 918 349 938 354 q 894 338 899 344 q 885 315 889 328 q 876 290 881 301 q 849 217 865 263 q 819 126 832 172 q 806 49 806 79 q 813 21 806 26 q 826 15 819 15 q 833 3 833 14 q 820 -26 833 -12 q 793 -46 807 -39 q 772 -58 786 -50 q 750 -65 757 -65 m 439 928 q 438 928 439 928 q 436 931 436 929 q 448 944 439 938 q 463 954 457 951 q 524 995 490 974 q 590 1038 558 1017 q 638 1074 621 1060 q 682 1094 658 1094 q 714 1074 704 1094 q 749 1017 725 1051 q 792 954 774 982 q 799 944 794 951 q 800 931 803 938 q 794 928 797 928 q 773 941 789 928 q 736 973 757 954 q 697 1009 715 992 q 671 1036 679 1026 q 606 1002 643 1021 q 534 967 569 983 q 472 939 499 950 q 439 928 446 928 z "},"Ģ":{"ha":1015,"x_min":69,"x_max":1018,"o":"m 750 -65 q 740 -58 742 -65 q 739 -47 739 -51 q 746 5 739 -29 q 763 76 753 39 q 781 142 772 113 q 792 183 789 172 q 624 32 724 89 q 396 -25 525 -25 q 217 24 290 -25 q 107 152 144 74 q 69 318 69 231 q 104 507 69 413 q 206 680 139 601 q 371 806 274 758 q 594 853 468 853 q 712 836 651 853 q 828 778 772 819 q 833 806 832 793 q 833 828 833 818 q 833 844 833 838 q 832 857 833 851 l 832 858 q 844 867 832 867 q 860 853 856 867 q 865 818 865 839 q 863 785 865 803 q 858 753 861 768 q 877 724 868 740 q 886 690 886 708 q 885 681 886 688 q 879 675 885 675 q 863 691 869 675 q 849 713 856 707 q 842 675 847 700 q 832 621 838 650 q 820 567 826 592 q 808 533 814 543 q 788 522 803 522 q 767 526 778 522 q 756 542 756 529 q 764 586 756 558 q 778 629 772 614 q 798 686 785 651 q 815 742 811 721 q 703 801 769 782 q 585 821 638 821 q 417 786 497 821 q 274 685 336 751 q 176 525 213 619 q 140 313 140 431 q 172 164 140 232 q 267 54 204 96 q 426 13 331 13 q 558 40 492 13 q 681 113 624 67 q 779 217 739 158 q 835 339 819 276 q 743 330 792 336 q 651 319 694 324 q 579 314 608 314 q 556 319 567 314 q 544 336 544 324 q 560 367 544 353 q 582 378 576 381 q 610 372 590 375 q 656 369 629 369 q 756 372 694 369 q 884 378 817 375 q 1006 385 951 382 q 1013 384 1008 385 q 1018 381 1018 383 q 1001 367 1018 372 q 960 358 983 363 q 918 349 938 354 q 894 338 899 344 q 885 315 889 328 q 876 290 881 301 q 849 217 865 263 q 819 126 832 172 q 806 49 806 79 q 813 21 806 26 q 826 15 819 15 q 833 3 833 14 q 820 -26 833 -12 q 793 -46 807 -39 q 772 -58 786 -50 q 750 -65 757 -65 m 286 -364 q 277 -358 279 -364 q 275 -349 275 -353 q 295 -322 286 -333 q 315 -293 304 -310 q 349 -236 335 -267 q 363 -185 363 -206 q 356 -164 361 -174 q 349 -144 350 -154 q 360 -122 349 -133 q 393 -110 372 -110 q 424 -119 417 -110 q 432 -149 432 -129 q 415 -206 432 -175 q 375 -267 399 -237 q 331 -319 351 -297 q 313 -338 325 -324 q 288 -364 300 -353 l 286 -364 z "},"Ġ":{"ha":1015,"x_min":69,"x_max":1018,"o":"m 750 -65 q 740 -58 742 -65 q 739 -47 739 -51 q 746 5 739 -29 q 763 76 753 39 q 781 142 772 113 q 792 183 789 172 q 624 32 724 89 q 396 -25 525 -25 q 217 24 290 -25 q 107 152 144 74 q 69 318 69 231 q 104 507 69 413 q 206 680 139 601 q 371 806 274 758 q 594 853 468 853 q 712 836 651 853 q 828 778 772 819 q 833 806 832 793 q 833 828 833 818 q 833 844 833 838 q 832 857 833 851 l 832 858 q 844 867 832 867 q 860 853 856 867 q 865 818 865 839 q 863 785 865 803 q 858 753 861 768 q 877 724 868 740 q 886 690 886 708 q 885 681 886 688 q 879 675 885 675 q 863 691 869 675 q 849 713 856 707 q 842 675 847 700 q 832 621 838 650 q 820 567 826 592 q 808 533 814 543 q 788 522 803 522 q 767 526 778 522 q 756 542 756 529 q 764 586 756 558 q 778 629 772 614 q 798 686 785 651 q 815 742 811 721 q 703 801 769 782 q 585 821 638 821 q 417 786 497 821 q 274 685 336 751 q 176 525 213 619 q 140 313 140 431 q 172 164 140 232 q 267 54 204 96 q 426 13 331 13 q 558 40 492 13 q 681 113 624 67 q 779 217 739 158 q 835 339 819 276 q 743 330 792 336 q 651 319 694 324 q 579 314 608 314 q 556 319 567 314 q 544 336 544 324 q 560 367 544 353 q 582 378 576 381 q 610 372 590 375 q 656 369 629 369 q 756 372 694 369 q 884 378 817 375 q 1006 385 951 382 q 1013 384 1008 385 q 1018 381 1018 383 q 1001 367 1018 372 q 960 358 983 363 q 918 349 938 354 q 894 338 899 344 q 885 315 889 328 q 876 290 881 301 q 849 217 865 263 q 819 126 832 172 q 806 49 806 79 q 813 21 806 26 q 826 15 819 15 q 833 3 833 14 q 820 -26 833 -12 q 793 -46 807 -39 q 772 -58 786 -50 q 750 -65 757 -65 m 615 938 q 598 951 606 938 q 590 974 590 964 q 605 999 590 986 q 638 1019 619 1011 q 667 1028 657 1028 q 676 1022 676 1028 q 658 985 676 1007 q 646 956 651 975 q 615 938 640 938 z "},"ẞ":{"ha":701,"x_min":-92,"x_max":613,"o":"m -31 -154 q -92 -139 -86 -154 q -46 -129 -92 -129 q 21 -92 -8 -129 q 72 7 50 -56 q 112 147 94 69 q 142 304 129 224 q 164 458 154 385 q 181 588 174 532 q 196 669 189 643 q 242 788 218 749 q 308 840 265 826 q 429 853 350 853 q 566 827 519 853 q 613 738 613 801 q 588 653 613 692 q 527 583 563 615 q 459 525 492 551 q 410 478 426 499 q 392 425 392 454 q 438 321 392 378 q 550 189 485 264 q 578 121 578 157 q 553 56 578 86 q 490 8 528 26 q 413 -12 451 -11 q 342 -1 378 -12 q 296 50 307 11 q 294 56 294 53 q 310 68 294 68 q 344 56 324 68 q 379 43 358 47 q 422 39 400 39 q 478 47 450 39 q 519 68 506 54 q 529 93 529 78 q 520 125 529 108 q 496 158 511 142 q 444 213 478 179 q 380 289 411 247 q 335 375 349 331 q 333 386 333 381 q 332 397 332 392 q 368 474 332 438 q 447 556 404 510 q 518 650 494 607 q 542 736 542 693 q 513 806 542 785 q 431 828 483 828 q 340 810 374 828 q 287 751 306 792 q 254 643 268 710 q 240 569 250 622 q 216 444 229 517 q 188 290 203 372 q 158 129 172 208 q 131 -15 143 50 q 76 -112 121 -69 q -31 -154 32 -154 z "},"H":{"ha":990,"x_min":69,"x_max":921,"o":"m 78 -31 q 69 -21 69 -31 l 69 -17 q 101 135 85 60 q 132 286 118 210 q 105 292 124 288 q 86 308 86 297 q 97 319 86 317 q 121 323 108 322 q 138 324 133 324 q 160 432 150 385 q 180 526 171 479 q 199 628 189 574 q 224 758 210 683 q 224 783 226 769 q 221 810 221 797 q 222 819 221 817 q 239 834 225 829 q 269 840 253 839 q 294 842 286 842 q 305 840 299 842 q 311 831 311 838 q 308 822 311 828 q 293 769 303 807 q 272 681 283 731 q 242 544 258 617 q 215 410 226 471 q 199 321 203 350 q 336 319 267 319 q 472 318 406 318 q 610 319 543 318 q 749 324 678 321 q 778 466 764 400 q 806 604 793 532 q 821 684 814 644 q 832 763 828 724 l 832 769 q 831 785 832 776 q 831 803 831 794 q 832 818 831 814 q 851 832 835 826 q 886 840 868 838 q 911 842 904 842 q 919 838 918 842 q 921 826 921 833 q 919 819 921 822 q 904 756 915 801 q 878 649 893 710 q 850 524 864 588 q 825 408 836 461 q 810 325 814 356 q 838 324 818 325 q 876 320 858 324 q 894 308 894 317 q 874 299 894 303 q 833 292 854 294 q 804 288 811 289 q 785 197 794 251 q 769 93 775 143 q 758 18 763 43 q 733 -13 757 4 q 697 -31 710 -31 q 686 -29 692 -31 q 681 -21 681 -28 q 685 8 681 -12 q 695 48 690 28 q 701 76 700 68 q 715 140 708 111 q 727 201 721 168 q 742 283 733 235 q 709 284 739 283 q 635 285 679 285 q 546 286 592 286 q 464 286 500 286 q 360 286 413 286 q 256 283 308 286 q 223 283 244 283 q 190 279 201 282 q 181 240 188 274 q 168 162 175 206 q 156 79 161 118 q 147 25 150 40 q 116 -17 142 -3 q 78 -31 90 -31 z "},"Ħ":{"ha":990,"x_min":69,"x_max":974,"o":"m 78 -31 q 69 -21 69 -31 l 69 -17 q 101 135 85 60 q 132 286 118 210 q 105 292 124 288 q 86 308 86 297 q 97 319 86 317 q 121 323 108 322 q 138 324 133 324 q 160 432 150 385 q 180 526 171 479 q 200 629 189 572 q 161 628 181 628 q 142 626 151 628 q 124 625 132 625 q 97 647 97 625 q 125 684 97 676 q 175 692 153 692 q 185 690 179 692 q 192 683 192 689 q 188 675 192 679 l 208 675 q 224 758 215 713 q 224 783 226 769 q 221 810 221 797 q 222 819 221 817 q 239 834 225 829 q 269 840 253 839 q 294 842 286 842 q 305 840 299 842 q 311 831 311 838 q 308 822 311 828 q 293 769 303 807 q 272 681 283 731 l 271 675 l 819 675 q 826 719 824 697 q 832 763 829 740 l 832 769 q 831 785 832 776 q 831 803 831 794 q 832 818 831 814 q 851 832 835 826 q 886 840 868 838 q 911 842 904 842 q 919 838 918 842 q 921 826 921 833 q 919 819 921 822 q 906 765 915 804 q 885 675 896 726 q 919 675 899 675 q 957 672 940 675 q 974 663 974 669 q 954 652 974 656 q 931 649 935 649 q 878 644 906 646 q 850 523 864 586 q 825 407 836 460 q 810 325 814 354 q 838 324 818 325 q 876 320 858 324 q 894 308 894 317 q 874 299 894 303 q 833 292 854 294 q 804 288 811 289 q 785 197 794 251 q 769 93 775 143 q 758 18 763 43 q 733 -13 757 4 q 697 -31 710 -31 q 686 -29 692 -31 q 681 -21 681 -28 q 685 8 681 -12 q 695 48 690 28 q 701 76 700 68 q 715 140 708 111 q 727 201 721 168 q 742 283 733 235 q 709 284 739 283 q 635 285 679 285 q 546 286 592 286 q 464 286 500 286 q 360 286 413 286 q 256 283 308 286 q 223 283 244 283 q 190 279 201 282 q 181 240 188 274 q 168 162 175 206 q 156 79 161 118 q 147 25 150 40 q 116 -17 142 -3 q 78 -31 90 -31 m 199 321 q 336 319 267 319 q 472 318 406 318 q 610 319 543 318 q 749 324 678 321 q 778 466 764 400 q 806 604 793 532 q 814 642 810 625 q 758 641 786 642 q 703 640 731 640 q 482 635 593 638 q 261 631 371 633 q 234 508 247 571 q 211 396 221 446 q 199 321 201 346 z "},"Ĥ":{"ha":990,"x_min":69,"x_max":921,"o":"m 78 -31 q 69 -21 69 -31 l 69 -17 q 101 135 85 60 q 132 286 118 210 q 105 292 124 288 q 86 308 86 297 q 97 319 86 317 q 121 323 108 322 q 138 324 133 324 q 160 432 150 385 q 180 526 171 479 q 199 628 189 574 q 224 758 210 683 q 224 783 226 769 q 221 810 221 797 q 222 819 221 817 q 239 834 225 829 q 269 840 253 839 q 294 842 286 842 q 305 840 299 842 q 311 831 311 838 q 308 822 311 828 q 293 769 303 807 q 272 681 283 731 q 242 544 258 617 q 215 410 226 471 q 199 321 203 350 q 336 319 267 319 q 472 318 406 318 q 610 319 543 318 q 749 324 678 321 q 778 466 764 400 q 806 604 793 532 q 821 684 814 644 q 832 763 828 724 l 832 769 q 831 785 832 776 q 831 803 831 794 q 832 818 831 814 q 851 832 835 826 q 886 840 868 838 q 911 842 904 842 q 919 838 918 842 q 921 826 921 833 q 919 819 921 822 q 904 756 915 801 q 878 649 893 710 q 850 524 864 588 q 825 408 836 461 q 810 325 814 356 q 838 324 818 325 q 876 320 858 324 q 894 308 894 317 q 874 299 894 303 q 833 292 854 294 q 804 288 811 289 q 785 197 794 251 q 769 93 775 143 q 758 18 763 43 q 733 -13 757 4 q 697 -31 710 -31 q 686 -29 692 -31 q 681 -21 681 -28 q 685 8 681 -12 q 695 48 690 28 q 701 76 700 68 q 715 140 708 111 q 727 201 721 168 q 742 283 733 235 q 709 284 739 283 q 635 285 679 285 q 546 286 592 286 q 464 286 500 286 q 360 286 413 286 q 256 283 308 286 q 223 283 244 283 q 190 279 201 282 q 181 240 188 274 q 168 162 175 206 q 156 79 161 118 q 147 25 150 40 q 116 -17 142 -3 q 78 -31 90 -31 m 417 928 q 415 928 417 928 q 414 931 414 929 q 426 944 417 938 q 440 954 435 951 q 502 995 468 974 q 567 1038 536 1017 q 615 1074 599 1060 q 660 1094 636 1094 q 692 1074 682 1094 q 727 1017 703 1051 q 769 954 751 982 q 776 944 772 951 q 778 931 781 938 q 772 928 775 928 q 751 941 767 928 q 714 973 735 954 q 675 1009 693 992 q 649 1036 657 1026 q 584 1002 621 1021 q 512 967 547 983 q 450 939 476 950 q 417 928 424 928 z "},"I":{"ha":511,"x_min":-19,"x_max":551,"o":"m 44 -19 q 24 -19 40 -19 q -6 -15 8 -18 q -19 -6 -19 -12 q -4 5 -19 1 q 33 10 11 8 q 72 13 54 13 q 96 14 90 14 q 122 16 100 14 q 149 25 143 18 q 164 94 153 43 q 189 215 175 144 q 218 360 203 285 q 247 506 233 436 q 271 624 261 575 q 283 690 281 674 q 294 774 292 756 q 294 803 297 793 q 176 794 243 803 l 169 794 q 147 797 160 794 q 135 807 135 800 q 143 815 135 813 q 153 818 151 817 q 206 831 176 826 q 261 838 236 835 q 294 842 286 840 q 331 857 307 850 q 367 864 354 864 q 381 855 379 864 q 382 843 382 846 l 418 843 q 460 842 431 843 q 516 834 489 840 q 549 815 543 828 q 551 806 551 810 q 544 801 551 801 q 521 803 533 801 q 496 804 508 804 q 458 805 478 804 q 418 806 438 806 q 390 803 408 806 q 368 793 371 801 q 328 620 349 717 q 288 425 307 524 q 252 240 268 326 q 227 97 236 154 q 218 25 218 39 q 236 19 218 21 q 257 18 254 18 q 321 13 285 15 q 383 1 357 10 q 387 0 383 1 q 390 -4 390 -1 q 377 -12 390 -10 q 349 -16 364 -15 q 331 -17 335 -17 q 270 -16 300 -17 q 211 -15 240 -15 q 128 -17 169 -15 q 44 -19 86 -19 z "},"Í":{"ha":511,"x_min":-19,"x_max":551,"o":"m 44 -19 q 24 -19 40 -19 q -6 -15 8 -18 q -19 -6 -19 -12 q -4 5 -19 1 q 33 10 11 8 q 72 13 54 13 q 96 14 90 14 q 122 16 100 14 q 149 25 143 18 q 164 94 153 43 q 189 215 175 144 q 218 360 203 285 q 247 506 233 436 q 271 624 261 575 q 283 690 281 674 q 294 774 292 756 q 294 803 297 793 q 176 794 243 803 l 169 794 q 147 797 160 794 q 135 807 135 800 q 143 815 135 813 q 153 818 151 817 q 206 831 176 826 q 261 838 236 835 q 294 842 286 840 q 331 857 307 850 q 367 864 354 864 q 381 855 379 864 q 382 843 382 846 l 418 843 q 460 842 431 843 q 516 834 489 840 q 549 815 543 828 q 551 806 551 810 q 544 801 551 801 q 521 803 533 801 q 496 804 508 804 q 458 805 478 804 q 418 806 438 806 q 390 803 408 806 q 368 793 371 801 q 328 620 349 717 q 288 425 307 524 q 252 240 268 326 q 227 97 236 154 q 218 25 218 39 q 236 19 218 21 q 257 18 254 18 q 321 13 285 15 q 383 1 357 10 q 387 0 383 1 q 390 -4 390 -1 q 377 -12 390 -10 q 349 -16 364 -15 q 331 -17 335 -17 q 270 -16 300 -17 q 211 -15 240 -15 q 128 -17 169 -15 q 44 -19 86 -19 m 246 936 q 243 938 244 936 q 243 940 242 939 q 252 951 244 946 q 265 960 260 957 q 310 990 279 971 q 373 1028 342 1008 q 418 1060 404 1049 q 433 1070 425 1067 q 451 1074 442 1074 q 478 1063 465 1074 q 488 1040 490 1051 q 459 1017 486 1031 q 397 989 432 1004 q 344 967 376 981 q 283 944 311 953 q 246 936 256 935 z "},"Ĭ":{"ha":511,"x_min":-19,"x_max":579,"o":"m 44 -19 q 24 -19 40 -19 q -6 -15 8 -18 q -19 -6 -19 -12 q -4 5 -19 1 q 33 10 11 8 q 72 13 54 13 q 96 14 90 14 q 122 16 100 14 q 149 25 143 18 q 164 94 153 43 q 189 215 175 144 q 218 360 203 285 q 247 506 233 436 q 271 624 261 575 q 283 690 281 674 q 294 774 292 756 q 294 803 297 793 q 176 794 243 803 l 169 794 q 147 797 160 794 q 135 807 135 800 q 143 815 135 813 q 153 818 151 817 q 206 831 176 826 q 261 838 236 835 q 294 842 286 840 q 331 857 307 850 q 367 864 354 864 q 381 855 379 864 q 382 843 382 846 l 418 843 q 460 842 431 843 q 516 834 489 840 q 549 815 543 828 q 551 806 551 810 q 544 801 551 801 q 521 803 533 801 q 496 804 508 804 q 458 805 478 804 q 418 806 438 806 q 390 803 408 806 q 368 793 371 801 q 328 620 349 717 q 288 425 307 524 q 252 240 268 326 q 227 97 236 154 q 218 25 218 39 q 236 19 218 21 q 257 18 254 18 q 321 13 285 15 q 383 1 357 10 q 387 0 383 1 q 390 -4 390 -1 q 377 -12 390 -10 q 349 -16 364 -15 q 331 -17 335 -17 q 270 -16 300 -17 q 211 -15 240 -15 q 128 -17 169 -15 q 44 -19 86 -19 m 378 938 q 256 1021 260 938 q 256 1034 256 1028 q 257 1044 256 1040 q 265 1064 260 1060 q 276 1068 271 1068 q 290 1053 285 1068 q 318 1009 296 1029 q 390 989 340 989 q 460 1000 424 989 q 547 1054 497 1011 q 568 1063 556 1063 q 568 1050 579 1063 q 529 1008 556 1035 q 465 959 503 981 q 378 938 426 938 z "},"Ǐ":{"ha":511,"x_min":-19,"x_max":614,"o":"m 611 1104 q 613 1103 611 1104 q 614 1101 614 1103 q 603 1088 613 1096 q 588 1078 593 1081 q 526 1038 560 1060 q 461 994 492 1015 q 413 958 431 974 q 368 938 392 938 q 336 958 346 938 q 301 1015 326 981 q 258 1078 276 1050 q 253 1088 257 1081 q 250 1101 249 1096 q 256 1104 253 1104 q 277 1091 261 1104 q 314 1059 293 1078 q 353 1023 335 1040 q 379 996 371 1006 q 444 1030 407 1011 q 516 1065 481 1049 q 578 1093 551 1082 q 611 1104 604 1104 m 44 -19 q 24 -19 40 -19 q -6 -15 8 -18 q -19 -6 -19 -12 q -4 5 -19 1 q 33 10 11 8 q 72 13 54 13 q 96 14 90 14 q 122 16 100 14 q 149 25 143 18 q 164 94 153 43 q 189 215 175 144 q 218 360 203 285 q 247 506 233 436 q 271 624 261 575 q 283 690 281 674 q 294 774 292 756 q 294 803 297 793 q 176 794 243 803 l 169 794 q 147 797 160 794 q 135 807 135 800 q 143 815 135 813 q 153 818 151 817 q 206 831 176 826 q 261 838 236 835 q 294 842 286 840 q 331 857 307 850 q 367 864 354 864 q 381 855 379 864 q 382 843 382 846 l 418 843 q 460 842 431 843 q 516 834 489 840 q 549 815 543 828 q 551 806 551 810 q 544 801 551 801 q 521 803 533 801 q 496 804 508 804 q 458 805 478 804 q 418 806 438 806 q 390 803 408 806 q 368 793 371 801 q 328 620 349 717 q 288 425 307 524 q 252 240 268 326 q 227 97 236 154 q 218 25 218 39 q 236 19 218 21 q 257 18 254 18 q 321 13 285 15 q 383 1 357 10 q 387 0 383 1 q 390 -4 390 -1 q 377 -12 390 -10 q 349 -16 364 -15 q 331 -17 335 -17 q 270 -16 300 -17 q 211 -15 240 -15 q 128 -17 169 -15 q 44 -19 86 -19 z "},"Î":{"ha":511,"x_min":-19,"x_max":551,"o":"m 44 -19 q 24 -19 40 -19 q -6 -15 8 -18 q -19 -6 -19 -12 q -4 5 -19 1 q 33 10 11 8 q 72 13 54 13 q 96 14 90 14 q 122 16 100 14 q 149 25 143 18 q 164 94 153 43 q 189 215 175 144 q 218 360 203 285 q 247 506 233 436 q 271 624 261 575 q 283 690 281 674 q 294 774 292 756 q 294 803 297 793 q 176 794 243 803 l 169 794 q 147 797 160 794 q 135 807 135 800 q 143 815 135 813 q 153 818 151 817 q 206 831 176 826 q 261 838 236 835 q 294 842 286 840 q 331 857 307 850 q 367 864 354 864 q 381 855 379 864 q 382 843 382 846 l 418 843 q 460 842 431 843 q 516 834 489 840 q 549 815 543 828 q 551 806 551 810 q 544 801 551 801 q 521 803 533 801 q 496 804 508 804 q 458 805 478 804 q 418 806 438 806 q 390 803 408 806 q 368 793 371 801 q 328 620 349 717 q 288 425 307 524 q 252 240 268 326 q 227 97 236 154 q 218 25 218 39 q 236 19 218 21 q 257 18 254 18 q 321 13 285 15 q 383 1 357 10 q 387 0 383 1 q 390 -4 390 -1 q 377 -12 390 -10 q 349 -16 364 -15 q 331 -17 335 -17 q 270 -16 300 -17 q 211 -15 240 -15 q 128 -17 169 -15 q 44 -19 86 -19 m 185 928 q 183 928 185 928 q 182 931 182 929 q 194 944 185 938 q 208 954 203 951 q 270 995 236 974 q 335 1038 304 1017 q 383 1074 367 1060 q 428 1094 404 1094 q 460 1074 450 1094 q 495 1017 471 1051 q 538 954 519 982 q 544 944 540 951 q 546 931 549 938 q 540 928 543 928 q 519 941 535 928 q 482 973 503 954 q 443 1009 461 992 q 417 1036 425 1026 q 352 1002 389 1021 q 280 967 315 983 q 218 939 244 950 q 185 928 192 928 z "},"Ȉ":{"ha":511,"x_min":-19,"x_max":551,"o":"m 303 938 q 269 953 294 938 q 215 988 243 968 q 165 1021 186 1008 q 130 1047 153 1031 q 107 1074 107 1064 q 120 1092 107 1085 q 143 1100 133 1100 q 164 1094 156 1100 q 179 1078 172 1088 q 213 1042 192 1064 q 256 999 235 1019 q 289 964 278 978 q 300 954 293 961 q 307 940 307 947 q 303 938 307 938 m 388 924 q 356 945 378 925 q 310 991 335 965 q 269 1033 286 1017 q 240 1065 260 1044 q 224 1097 221 1086 q 240 1113 226 1108 q 264 1115 254 1118 q 283 1105 276 1113 q 294 1086 290 1097 q 320 1044 304 1069 q 353 992 336 1018 q 379 951 369 967 q 388 939 382 947 q 392 925 393 931 q 388 924 390 922 m 44 -19 q 24 -19 40 -19 q -6 -15 8 -18 q -19 -6 -19 -12 q -4 5 -19 1 q 33 10 11 8 q 72 13 54 13 q 96 14 90 14 q 122 16 100 14 q 149 25 143 18 q 164 94 153 43 q 189 215 175 144 q 218 360 203 285 q 247 506 233 436 q 271 624 261 575 q 283 690 281 674 q 294 774 292 756 q 294 803 297 793 q 176 794 243 803 l 169 794 q 147 797 160 794 q 135 807 135 800 q 143 815 135 813 q 153 818 151 817 q 206 831 176 826 q 261 838 236 835 q 294 842 286 840 q 331 857 307 850 q 367 864 354 864 q 381 855 379 864 q 382 843 382 846 l 418 843 q 460 842 431 843 q 516 834 489 840 q 549 815 543 828 q 551 806 551 810 q 544 801 551 801 q 521 803 533 801 q 496 804 508 804 q 458 805 478 804 q 418 806 438 806 q 390 803 408 806 q 368 793 371 801 q 328 620 349 717 q 288 425 307 524 q 252 240 268 326 q 227 97 236 154 q 218 25 218 39 q 236 19 218 21 q 257 18 254 18 q 321 13 285 15 q 383 1 357 10 q 387 0 383 1 q 390 -4 390 -1 q 377 -12 390 -10 q 349 -16 364 -15 q 331 -17 335 -17 q 270 -16 300 -17 q 211 -15 240 -15 q 128 -17 169 -15 q 44 -19 86 -19 m 303 938 q 269 953 294 938 q 215 988 243 968 q 165 1021 186 1008 q 130 1047 153 1031 q 107 1074 107 1064 q 120 1092 107 1085 q 143 1100 133 1100 q 164 1094 156 1100 q 179 1078 172 1088 q 213 1042 192 1064 q 256 999 235 1019 q 289 964 278 978 q 300 954 293 961 q 307 940 307 947 q 303 938 307 938 z "},"Ï":{"ha":511,"x_min":-19,"x_max":551,"o":"m 442 938 q 422 952 431 938 q 414 978 414 967 q 431 1006 414 992 q 467 1028 447 1019 q 499 1038 488 1038 q 510 1032 510 1038 q 490 988 510 1015 q 476 958 482 978 q 442 938 469 938 m 276 939 q 257 953 265 939 q 249 979 249 968 q 265 1007 249 993 q 302 1030 282 1021 q 333 1039 322 1039 q 344 1033 344 1039 q 325 989 344 1017 q 310 959 317 979 q 276 939 304 939 m 44 -19 q 24 -19 40 -19 q -6 -15 8 -18 q -19 -6 -19 -12 q -4 5 -19 1 q 33 10 11 8 q 72 13 54 13 q 96 14 90 14 q 122 16 100 14 q 149 25 143 18 q 164 94 153 43 q 189 215 175 144 q 218 360 203 285 q 247 506 233 436 q 271 624 261 575 q 283 690 281 674 q 294 774 292 756 q 294 803 297 793 q 176 794 243 803 l 169 794 q 147 797 160 794 q 135 807 135 800 q 143 815 135 813 q 153 818 151 817 q 206 831 176 826 q 261 838 236 835 q 294 842 286 840 q 331 857 307 850 q 367 864 354 864 q 381 855 379 864 q 382 843 382 846 l 418 843 q 460 842 431 843 q 516 834 489 840 q 549 815 543 828 q 551 806 551 810 q 544 801 551 801 q 521 803 533 801 q 496 804 508 804 q 458 805 478 804 q 418 806 438 806 q 390 803 408 806 q 368 793 371 801 q 328 620 349 717 q 288 425 307 524 q 252 240 268 326 q 227 97 236 154 q 218 25 218 39 q 236 19 218 21 q 257 18 254 18 q 321 13 285 15 q 383 1 357 10 q 387 0 383 1 q 390 -4 390 -1 q 377 -12 390 -10 q 349 -16 364 -15 q 331 -17 335 -17 q 270 -16 300 -17 q 211 -15 240 -15 q 128 -17 169 -15 q 44 -19 86 -19 z "},"İ":{"ha":511,"x_min":-19,"x_max":551,"o":"m 44 -19 q 24 -19 40 -19 q -6 -15 8 -18 q -19 -6 -19 -12 q -4 5 -19 1 q 33 10 11 8 q 72 13 54 13 q 96 14 90 14 q 122 16 100 14 q 149 25 143 18 q 164 94 153 43 q 189 215 175 144 q 218 360 203 285 q 247 506 233 436 q 271 624 261 575 q 283 690 281 674 q 294 774 292 756 q 294 803 297 793 q 176 794 243 803 l 169 794 q 147 797 160 794 q 135 807 135 800 q 143 815 135 813 q 153 818 151 817 q 206 831 176 826 q 261 838 236 835 q 294 842 286 840 q 331 857 307 850 q 367 864 354 864 q 381 855 379 864 q 382 843 382 846 l 418 843 q 460 842 431 843 q 516 834 489 840 q 549 815 543 828 q 551 806 551 810 q 544 801 551 801 q 521 803 533 801 q 496 804 508 804 q 458 805 478 804 q 418 806 438 806 q 390 803 408 806 q 368 793 371 801 q 328 620 349 717 q 288 425 307 524 q 252 240 268 326 q 227 97 236 154 q 218 25 218 39 q 236 19 218 21 q 257 18 254 18 q 321 13 285 15 q 383 1 357 10 q 387 0 383 1 q 390 -4 390 -1 q 377 -12 390 -10 q 349 -16 364 -15 q 331 -17 335 -17 q 270 -16 300 -17 q 211 -15 240 -15 q 128 -17 169 -15 q 44 -19 86 -19 m 361 938 q 344 951 351 938 q 336 974 336 964 q 351 999 336 986 q 384 1019 365 1011 q 413 1028 403 1028 q 422 1022 422 1028 q 404 985 422 1007 q 392 956 397 975 q 361 938 386 938 z "},"Ị":{"ha":511,"x_min":-19,"x_max":551,"o":"m 44 -19 q 24 -19 40 -19 q -6 -15 8 -18 q -19 -6 -19 -12 q -4 5 -19 1 q 33 10 11 8 q 72 13 54 13 q 96 14 90 14 q 122 16 100 14 q 149 25 143 18 q 164 94 153 43 q 189 215 175 144 q 218 360 203 285 q 247 506 233 436 q 271 624 261 575 q 283 690 281 674 q 294 774 292 756 q 294 803 297 793 q 176 794 243 803 l 169 794 q 147 797 160 794 q 135 807 135 800 q 143 815 135 813 q 153 818 151 817 q 206 831 176 826 q 261 838 236 835 q 294 842 286 840 q 331 857 307 850 q 367 864 354 864 q 381 855 379 864 q 382 843 382 846 l 418 843 q 460 842 431 843 q 516 834 489 840 q 549 815 543 828 q 551 806 551 810 q 544 801 551 801 q 521 803 533 801 q 496 804 508 804 q 458 805 478 804 q 418 806 438 806 q 390 803 408 806 q 368 793 371 801 q 328 620 349 717 q 288 425 307 524 q 252 240 268 326 q 227 97 236 154 q 218 25 218 39 q 236 19 218 21 q 257 18 254 18 q 321 13 285 15 q 383 1 357 10 q 387 0 383 1 q 390 -4 390 -1 q 377 -12 390 -10 q 349 -16 364 -15 q 331 -17 335 -17 q 270 -16 300 -17 q 211 -15 240 -15 q 128 -17 169 -15 q 44 -19 86 -19 m 122 -211 q 100 -194 110 -211 q 90 -167 90 -176 q 109 -134 90 -150 q 151 -108 128 -118 q 186 -97 174 -97 q 197 -106 197 -97 q 176 -153 197 -121 q 166 -175 171 -161 q 152 -200 161 -189 q 122 -211 143 -211 z "},"Ì":{"ha":511,"x_min":-19,"x_max":551,"o":"m 44 -19 q 24 -19 40 -19 q -6 -15 8 -18 q -19 -6 -19 -12 q -4 5 -19 1 q 33 10 11 8 q 72 13 54 13 q 96 14 90 14 q 122 16 100 14 q 149 25 143 18 q 164 94 153 43 q 189 215 175 144 q 218 360 203 285 q 247 506 233 436 q 271 624 261 575 q 283 690 281 674 q 294 774 292 756 q 294 803 297 793 q 176 794 243 803 l 169 794 q 147 797 160 794 q 135 807 135 800 q 143 815 135 813 q 153 818 151 817 q 206 831 176 826 q 261 838 236 835 q 294 842 286 840 q 331 857 307 850 q 367 864 354 864 q 381 855 379 864 q 382 843 382 846 l 418 843 q 460 842 431 843 q 516 834 489 840 q 549 815 543 828 q 551 806 551 810 q 544 801 551 801 q 521 803 533 801 q 496 804 508 804 q 458 805 478 804 q 418 806 438 806 q 390 803 408 806 q 368 793 371 801 q 328 620 349 717 q 288 425 307 524 q 252 240 268 326 q 227 97 236 154 q 218 25 218 39 q 236 19 218 21 q 257 18 254 18 q 321 13 285 15 q 383 1 357 10 q 387 0 383 1 q 390 -4 390 -1 q 377 -12 390 -10 q 349 -16 364 -15 q 331 -17 335 -17 q 270 -16 300 -17 q 211 -15 240 -15 q 128 -17 169 -15 q 44 -19 86 -19 m 463 936 q 426 944 454 935 q 365 967 397 953 q 311 989 332 981 q 250 1017 276 1004 q 221 1040 224 1031 q 231 1063 219 1051 q 257 1074 243 1074 q 276 1070 268 1074 q 290 1060 283 1067 q 336 1028 306 1049 q 398 990 367 1008 q 443 960 429 971 q 456 951 449 957 q 465 940 464 946 q 465 938 467 939 q 463 936 464 936 z "},"Ỉ":{"ha":511,"x_min":-19,"x_max":551,"o":"m 44 -19 q 24 -19 40 -19 q -6 -15 8 -18 q -19 -6 -19 -12 q -4 5 -19 1 q 33 10 11 8 q 72 13 54 13 q 96 14 90 14 q 122 16 100 14 q 149 25 143 18 q 164 94 153 43 q 189 215 175 144 q 218 360 203 285 q 247 506 233 436 q 271 624 261 575 q 283 690 281 674 q 294 774 292 756 q 294 803 297 793 q 176 794 243 803 l 169 794 q 147 797 160 794 q 135 807 135 800 q 143 815 135 813 q 153 818 151 817 q 206 831 176 826 q 261 838 236 835 q 294 842 286 840 q 331 857 307 850 q 367 864 354 864 q 381 855 379 864 q 382 843 382 846 l 418 843 q 460 842 431 843 q 516 834 489 840 q 549 815 543 828 q 551 806 551 810 q 544 801 551 801 q 521 803 533 801 q 496 804 508 804 q 458 805 478 804 q 418 806 438 806 q 390 803 408 806 q 368 793 371 801 q 328 620 349 717 q 288 425 307 524 q 252 240 268 326 q 227 97 236 154 q 218 25 218 39 q 236 19 218 21 q 257 18 254 18 q 321 13 285 15 q 383 1 357 10 q 387 0 383 1 q 390 -4 390 -1 q 377 -12 390 -10 q 349 -16 364 -15 q 331 -17 335 -17 q 270 -16 300 -17 q 211 -15 240 -15 q 128 -17 169 -15 q 44 -19 86 -19 m 364 931 q 354 943 354 931 q 356 951 354 947 q 360 958 358 954 q 372 976 367 969 q 394 996 378 982 q 422 1027 414 1011 q 429 1057 429 1043 q 392 1079 429 1079 q 338 1066 361 1079 q 303 1044 315 1053 q 294 1050 292 1036 q 332 1099 300 1078 q 415 1119 364 1119 q 470 1101 451 1119 q 489 1068 489 1083 q 442 989 489 1022 q 403 960 415 971 q 379 940 390 950 q 364 931 372 931 z "},"Ȋ":{"ha":511,"x_min":-19,"x_max":551,"o":"m 396 1060 q 518 976 514 1060 q 518 963 518 969 q 517 953 518 957 q 508 934 514 939 q 497 929 503 929 q 483 944 489 929 q 456 988 478 968 q 383 1008 433 1008 q 313 998 350 1008 q 226 943 276 988 q 206 935 218 935 q 206 947 194 935 q 244 990 218 964 q 309 1038 271 1017 q 396 1060 347 1060 m 44 -19 q 24 -19 40 -19 q -6 -15 8 -18 q -19 -6 -19 -12 q -4 5 -19 1 q 33 10 11 8 q 72 13 54 13 q 96 14 90 14 q 122 16 100 14 q 149 25 143 18 q 164 94 153 43 q 189 215 175 144 q 218 360 203 285 q 247 506 233 436 q 271 624 261 575 q 283 690 281 674 q 294 774 292 756 q 294 803 297 793 q 176 794 243 803 l 169 794 q 147 797 160 794 q 135 807 135 800 q 143 815 135 813 q 153 818 151 817 q 206 831 176 826 q 261 838 236 835 q 294 842 286 840 q 331 857 307 850 q 367 864 354 864 q 381 855 379 864 q 382 843 382 846 l 418 843 q 460 842 431 843 q 516 834 489 840 q 549 815 543 828 q 551 806 551 810 q 544 801 551 801 q 521 803 533 801 q 496 804 508 804 q 458 805 478 804 q 418 806 438 806 q 390 803 408 806 q 368 793 371 801 q 328 620 349 717 q 288 425 307 524 q 252 240 268 326 q 227 97 236 154 q 218 25 218 39 q 236 19 218 21 q 257 18 254 18 q 321 13 285 15 q 383 1 357 10 q 387 0 383 1 q 390 -4 390 -1 q 377 -12 390 -10 q 349 -16 364 -15 q 331 -17 335 -17 q 270 -16 300 -17 q 211 -15 240 -15 q 128 -17 169 -15 q 44 -19 86 -19 z "},"Ī":{"ha":511,"x_min":-19,"x_max":551,"o":"m 44 -19 q 24 -19 40 -19 q -6 -15 8 -18 q -19 -6 -19 -12 q -4 5 -19 1 q 33 10 11 8 q 72 13 54 13 q 96 14 90 14 q 122 16 100 14 q 149 25 143 18 q 164 94 153 43 q 189 215 175 144 q 218 360 203 285 q 247 506 233 436 q 271 624 261 575 q 283 690 281 674 q 294 774 292 756 q 294 803 297 793 q 176 794 243 803 l 169 794 q 147 797 160 794 q 135 807 135 800 q 143 815 135 813 q 153 818 151 817 q 206 831 176 826 q 261 838 236 835 q 294 842 286 840 q 331 857 307 850 q 367 864 354 864 q 381 855 379 864 q 382 843 382 846 l 418 843 q 460 842 431 843 q 516 834 489 840 q 549 815 543 828 q 551 806 551 810 q 544 801 551 801 q 521 803 533 801 q 496 804 508 804 q 458 805 478 804 q 418 806 438 806 q 390 803 408 806 q 368 793 371 801 q 328 620 349 717 q 288 425 307 524 q 252 240 268 326 q 227 97 236 154 q 218 25 218 39 q 236 19 218 21 q 257 18 254 18 q 321 13 285 15 q 383 1 357 10 q 387 0 383 1 q 390 -4 390 -1 q 377 -12 390 -10 q 349 -16 364 -15 q 331 -17 335 -17 q 270 -16 300 -17 q 211 -15 240 -15 q 128 -17 169 -15 q 44 -19 86 -19 m 213 932 q 199 943 204 932 q 193 964 193 954 l 194 967 q 243 974 210 972 q 310 978 276 976 q 361 979 344 979 q 405 978 378 979 q 460 975 432 976 q 506 971 489 974 q 528 961 528 969 q 503 946 528 950 q 440 940 479 943 q 356 935 400 938 q 274 933 313 933 q 213 932 235 932 z "},"Į":{"ha":511,"x_min":-19,"x_max":551,"o":"m 44 -19 q 24 -19 40 -19 q -6 -15 8 -18 q -19 -6 -19 -12 q -4 5 -19 1 q 33 10 11 8 q 72 13 54 13 q 96 14 90 14 q 122 16 100 14 q 149 25 143 18 q 164 94 153 43 q 189 215 175 144 q 218 360 203 285 q 247 506 233 436 q 271 624 261 575 q 283 690 281 674 q 294 774 292 756 q 294 803 297 793 q 176 794 243 803 l 169 794 q 147 797 160 794 q 135 807 135 800 q 143 815 135 813 q 153 818 151 817 q 206 831 176 826 q 261 838 236 835 q 294 842 286 840 q 331 857 307 850 q 367 864 354 864 q 381 855 379 864 q 382 843 382 846 l 418 843 q 460 842 431 843 q 516 834 489 840 q 549 815 543 828 q 551 806 551 810 q 544 801 551 801 q 521 803 533 801 q 496 804 508 804 q 458 805 478 804 q 418 806 438 806 q 390 803 408 806 q 368 793 371 801 q 328 620 349 717 q 288 425 307 524 q 252 240 268 326 q 227 97 236 154 q 218 25 218 39 q 236 19 218 21 q 257 18 254 18 q 321 13 285 15 q 383 1 357 10 q 387 0 383 1 q 390 -4 390 -1 q 377 -12 390 -10 q 349 -16 364 -15 q 331 -17 335 -17 q 270 -16 300 -17 q 211 -15 240 -15 q 128 -17 169 -15 q 44 -19 86 -19 m 167 -218 q 113 -207 142 -218 q 85 -165 85 -196 q 94 -124 85 -150 q 119 -69 104 -97 q 152 -20 135 -40 q 186 0 169 0 l 201 -4 q 164 -60 183 -22 q 144 -125 144 -97 q 160 -160 144 -149 q 196 -172 176 -172 q 249 -167 221 -172 q 299 -147 276 -161 q 301 -146 300 -146 q 301 -146 301 -146 q 308 -151 306 -146 q 311 -160 311 -156 q 286 -186 311 -172 q 227 -209 261 -200 q 167 -218 193 -218 z "},"Ĩ":{"ha":511,"x_min":-19,"x_max":561,"o":"m 44 -19 q 24 -19 40 -19 q -6 -15 8 -18 q -19 -6 -19 -12 q -4 5 -19 1 q 33 10 11 8 q 72 13 54 13 q 96 14 90 14 q 122 16 100 14 q 149 25 143 18 q 164 94 153 43 q 189 215 175 144 q 218 360 203 285 q 247 506 233 436 q 271 624 261 575 q 283 690 281 674 q 294 774 292 756 q 294 803 297 793 q 176 794 243 803 l 169 794 q 147 797 160 794 q 135 807 135 800 q 143 815 135 813 q 153 818 151 817 q 206 831 176 826 q 261 838 236 835 q 294 842 286 840 q 331 857 307 850 q 367 864 354 864 q 381 855 379 864 q 382 843 382 846 l 418 843 q 460 842 431 843 q 516 834 489 840 q 549 815 543 828 q 551 806 551 810 q 544 801 551 801 q 521 803 533 801 q 496 804 508 804 q 458 805 478 804 q 418 806 438 806 q 390 803 408 806 q 368 793 371 801 q 328 620 349 717 q 288 425 307 524 q 252 240 268 326 q 227 97 236 154 q 218 25 218 39 q 236 19 218 21 q 257 18 254 18 q 321 13 285 15 q 383 1 357 10 q 387 0 383 1 q 390 -4 390 -1 q 377 -12 390 -10 q 349 -16 364 -15 q 331 -17 335 -17 q 270 -16 300 -17 q 211 -15 240 -15 q 128 -17 169 -15 q 44 -19 86 -19 m 474 931 q 416 942 449 931 q 351 963 383 953 q 296 974 319 974 q 261 964 278 974 q 233 944 244 954 q 215 935 221 935 q 211 942 211 935 q 228 970 214 951 q 264 1006 242 989 q 310 1022 286 1022 q 364 1013 333 1022 q 428 993 394 1003 q 494 983 461 983 q 533 999 517 983 q 556 1015 550 1014 q 558 997 561 1015 q 524 953 546 975 q 474 931 503 931 z "},"J":{"ha":515,"x_min":-246,"x_max":565,"o":"m -90 -285 q -204 -237 -162 -285 q -246 -112 -246 -190 q -233 -86 -246 -86 q -224 -103 -225 -86 q -201 -172 -218 -135 q -156 -234 -185 -208 q -85 -260 -126 -260 q 1 -229 -37 -260 q 72 -147 40 -199 q 130 -33 104 -96 q 174 96 156 31 q 198 198 185 133 q 227 343 211 263 q 258 508 243 424 q 289 669 274 593 q 317 803 304 746 q 185 794 251 803 l 175 793 q 155 797 164 793 q 146 807 146 801 q 158 816 146 813 q 171 821 169 819 q 218 831 190 828 q 272 838 246 835 q 310 842 297 840 q 342 857 318 850 q 378 864 367 864 q 392 856 393 864 q 397 846 392 847 q 415 844 401 844 q 443 842 428 843 q 476 840 451 842 q 527 832 501 838 q 560 815 553 826 q 565 806 565 811 q 558 801 565 801 q 522 803 547 801 q 453 804 496 804 q 410 803 433 804 q 382 793 386 801 q 340 609 360 707 q 302 413 321 511 q 265 226 283 315 q 225 69 246 138 q 155 -103 197 -22 q 52 -235 113 -185 q -90 -285 -8 -285 z "},"Ĵ":{"ha":515,"x_min":-246,"x_max":565,"o":"m -90 -285 q -204 -237 -162 -285 q -246 -112 -246 -190 q -233 -86 -246 -86 q -224 -103 -225 -86 q -201 -172 -218 -135 q -156 -234 -185 -208 q -85 -260 -126 -260 q 1 -229 -37 -260 q 72 -147 40 -199 q 130 -33 104 -96 q 174 96 156 31 q 198 198 185 133 q 227 343 211 263 q 258 508 243 424 q 289 669 274 593 q 317 803 304 746 q 185 794 251 803 l 175 793 q 155 797 164 793 q 146 807 146 801 q 158 816 146 813 q 171 821 169 819 q 218 831 190 828 q 272 838 246 835 q 310 842 297 840 q 342 857 318 850 q 378 864 367 864 q 392 856 393 864 q 397 846 392 847 q 415 844 401 844 q 443 842 428 843 q 476 840 451 842 q 527 832 501 838 q 560 815 553 826 q 565 806 565 811 q 558 801 565 801 q 522 803 547 801 q 453 804 496 804 q 410 803 433 804 q 382 793 386 801 q 340 609 360 707 q 302 413 321 511 q 265 226 283 315 q 225 69 246 138 q 155 -103 197 -22 q 52 -235 113 -185 q -90 -285 -8 -285 m 193 928 q 192 928 193 928 q 190 931 190 929 q 202 944 193 938 q 217 954 211 951 q 278 995 244 974 q 344 1038 313 1017 q 392 1074 375 1060 q 436 1094 413 1094 q 468 1074 458 1094 q 503 1017 479 1051 q 546 954 528 982 q 553 944 549 951 q 554 931 557 938 q 549 928 551 928 q 527 941 543 928 q 490 973 511 954 q 451 1009 469 992 q 425 1036 433 1026 q 360 1002 397 1021 q 288 967 324 983 q 226 939 253 950 q 193 928 200 928 z "},"K":{"ha":783,"x_min":69,"x_max":772,"o":"m 660 -56 q 558 -28 611 -56 q 453 44 506 -1 q 352 142 400 89 q 265 251 304 196 q 200 351 226 306 q 189 294 196 333 q 174 210 182 256 q 160 124 167 164 q 150 63 154 83 q 149 44 149 53 q 147 25 150 35 q 124 -10 144 8 q 83 -29 103 -29 q 69 -17 69 -29 q 77 21 69 -12 q 90 85 85 54 q 99 124 92 89 q 116 213 106 160 q 138 325 126 267 q 160 435 150 383 q 178 520 171 488 q 185 553 185 553 q 205 656 196 604 q 224 758 214 707 q 225 769 225 763 q 223 791 225 781 q 221 814 221 801 q 235 833 221 826 q 268 840 250 839 q 294 842 286 842 q 306 838 300 842 q 311 831 311 835 q 303 794 311 815 q 288 738 297 776 q 267 653 278 699 q 234 516 249 578 q 208 397 219 454 q 271 454 228 414 q 372 549 314 494 q 492 660 431 603 q 611 765 554 717 q 709 844 668 814 q 764 875 750 875 q 772 865 772 875 q 758 830 772 847 q 729 803 743 813 q 681 765 718 794 q 596 697 643 736 q 506 619 549 658 q 362 485 428 550 q 251 375 296 421 q 324 269 286 324 q 410 167 363 215 q 458 116 426 149 q 526 50 489 83 q 598 -6 563 17 q 660 -29 633 -29 q 683 -25 671 -29 q 707 -21 694 -21 q 715 -22 710 -21 q 719 -25 719 -22 q 707 -40 719 -33 q 681 -51 694 -47 q 660 -56 667 -56 z "},"Ķ":{"ha":783,"x_min":69,"x_max":772,"o":"m 660 -56 q 558 -28 611 -56 q 453 44 506 -1 q 352 142 400 89 q 265 251 304 196 q 200 351 226 306 q 189 294 196 333 q 174 210 182 256 q 160 124 167 164 q 150 63 154 83 q 149 44 149 53 q 147 25 150 35 q 124 -10 144 8 q 83 -29 103 -29 q 69 -17 69 -29 q 77 21 69 -12 q 90 85 85 54 q 99 124 92 89 q 116 213 106 160 q 138 325 126 267 q 160 435 150 383 q 178 520 171 488 q 185 553 185 553 q 205 656 196 604 q 224 758 214 707 q 225 769 225 763 q 223 791 225 781 q 221 814 221 801 q 235 833 221 826 q 268 840 250 839 q 294 842 286 842 q 306 838 300 842 q 311 831 311 835 q 303 794 311 815 q 288 738 297 776 q 267 653 278 699 q 234 516 249 578 q 208 397 219 454 q 271 454 228 414 q 372 549 314 494 q 492 660 431 603 q 611 765 554 717 q 709 844 668 814 q 764 875 750 875 q 772 865 772 875 q 758 830 772 847 q 729 803 743 813 q 681 765 718 794 q 596 697 643 736 q 506 619 549 658 q 362 485 428 550 q 251 375 296 421 q 324 269 286 324 q 410 167 363 215 q 458 116 426 149 q 526 50 489 83 q 598 -6 563 17 q 660 -29 633 -29 q 683 -25 671 -29 q 707 -21 694 -21 q 715 -22 710 -21 q 719 -25 719 -22 q 707 -40 719 -33 q 681 -51 694 -47 q 660 -56 667 -56 m 211 -351 q 202 -346 204 -351 q 200 -336 200 -340 q 220 -309 211 -321 q 240 -281 229 -297 q 274 -224 260 -254 q 288 -172 288 -193 q 281 -151 286 -161 q 274 -132 275 -142 q 285 -109 274 -121 q 318 -97 297 -97 q 349 -107 342 -97 q 357 -136 357 -117 q 340 -194 357 -162 q 300 -255 324 -225 q 256 -307 276 -285 q 238 -326 250 -311 q 213 -351 225 -340 l 211 -351 z "},"L":{"ha":621,"x_min":76,"x_max":599,"o":"m 267 -21 q 206 -19 242 -21 q 138 -12 171 -18 q 89 8 106 -6 q 78 31 81 17 q 76 51 76 44 q 86 138 76 81 q 110 270 96 196 q 142 423 125 344 q 173 574 158 501 q 197 701 188 646 q 207 779 207 756 q 203 788 207 786 q 185 792 199 790 q 163 794 172 793 q 154 804 154 794 q 190 829 154 824 q 268 835 226 835 q 286 832 276 835 q 296 818 296 829 q 293 805 296 811 q 289 792 290 799 q 265 707 279 764 q 236 582 251 650 q 207 449 221 514 q 185 340 193 385 q 160 213 171 278 q 149 94 149 147 q 149 71 149 82 q 151 49 150 60 q 173 31 153 38 q 220 23 193 25 q 272 20 247 21 q 308 19 297 19 q 386 22 344 19 q 474 29 428 24 q 540 43 510 33 q 585 57 571 53 l 588 57 q 599 47 599 57 q 567 23 599 35 q 483 1 535 11 q 374 -15 432 -10 q 267 -21 317 -21 z "},"Ǉ":{"ha":1136,"x_min":76,"x_max":1186,"o":"m 267 -21 q 206 -19 242 -21 q 138 -12 171 -18 q 89 8 106 -6 q 78 31 81 17 q 76 51 76 44 q 86 138 76 81 q 110 270 96 196 q 142 423 125 344 q 173 574 158 501 q 197 701 188 646 q 207 779 207 756 q 203 788 207 786 q 185 792 199 790 q 163 794 172 793 q 154 804 154 794 q 190 829 154 824 q 268 835 226 835 q 286 832 276 835 q 296 818 296 829 q 293 805 296 811 q 289 792 290 799 q 265 707 279 764 q 236 582 251 650 q 207 449 221 514 q 185 340 193 385 q 160 213 171 278 q 149 94 149 147 q 149 71 149 82 q 151 49 150 60 q 173 31 153 38 q 220 23 193 25 q 272 20 247 21 q 308 19 297 19 q 386 22 344 19 q 474 29 428 24 q 540 43 510 33 q 585 57 571 53 l 588 57 q 599 47 599 57 q 567 23 599 35 q 483 1 535 11 q 374 -15 432 -10 q 267 -21 317 -21 m 531 -285 q 417 -237 458 -285 q 375 -112 375 -190 q 388 -86 375 -86 q 397 -103 396 -86 q 419 -172 403 -135 q 465 -234 436 -208 q 536 -260 494 -260 q 622 -229 583 -260 q 693 -147 661 -199 q 751 -33 725 -96 q 794 96 776 31 q 819 198 806 133 q 848 343 832 263 q 879 508 864 424 q 910 669 894 593 q 938 803 925 746 q 806 794 872 803 l 796 793 q 776 797 785 793 q 767 807 767 801 q 778 816 767 813 q 792 821 790 819 q 839 831 811 828 q 892 838 867 835 q 931 842 918 840 q 963 857 939 850 q 999 864 988 864 q 1013 856 1014 864 q 1018 846 1013 847 q 1035 844 1022 844 q 1064 842 1049 843 q 1097 840 1072 842 q 1148 832 1122 838 q 1181 815 1174 826 q 1186 806 1186 811 q 1179 801 1186 801 q 1142 803 1168 801 q 1074 804 1117 804 q 1031 803 1054 804 q 1003 793 1007 801 q 961 609 981 707 q 923 413 942 511 q 885 226 904 315 q 846 69 867 138 q 776 -103 818 -22 q 673 -235 733 -185 q 531 -285 613 -285 z "},"Ĺ":{"ha":621,"x_min":76,"x_max":599,"o":"m 267 -21 q 206 -19 242 -21 q 138 -12 171 -18 q 89 8 106 -6 q 78 31 81 17 q 76 51 76 44 q 86 138 76 81 q 110 270 96 196 q 142 423 125 344 q 173 574 158 501 q 197 701 188 646 q 207 779 207 756 q 203 788 207 786 q 185 792 199 790 q 163 794 172 793 q 154 804 154 794 q 190 829 154 824 q 268 835 226 835 q 286 832 276 835 q 296 818 296 829 q 293 805 296 811 q 289 792 290 799 q 265 707 279 764 q 236 582 251 650 q 207 449 221 514 q 185 340 193 385 q 160 213 171 278 q 149 94 149 147 q 149 71 149 82 q 151 49 150 60 q 173 31 153 38 q 220 23 193 25 q 272 20 247 21 q 308 19 297 19 q 386 22 344 19 q 474 29 428 24 q 540 43 510 33 q 585 57 571 53 l 588 57 q 599 47 599 57 q 567 23 599 35 q 483 1 535 11 q 374 -15 432 -10 q 267 -21 317 -21 m 160 931 q 157 932 158 931 q 157 935 156 933 q 166 946 158 940 q 179 954 174 951 q 224 984 193 965 q 287 1023 256 1003 q 332 1054 318 1043 q 347 1065 339 1061 q 365 1068 356 1068 q 392 1057 379 1068 q 401 1035 404 1046 q 373 1012 400 1025 q 311 983 346 999 q 258 961 290 975 q 197 938 225 947 q 160 931 169 929 z "},"Ľ":{"ha":621,"x_min":76,"x_max":599,"o":"m 267 -21 q 206 -19 242 -21 q 138 -12 171 -18 q 89 8 106 -6 q 78 31 81 17 q 76 51 76 44 q 86 138 76 81 q 110 270 96 196 q 142 423 125 344 q 173 574 158 501 q 197 701 188 646 q 207 779 207 756 q 203 788 207 786 q 185 792 199 790 q 163 794 172 793 q 154 804 154 794 q 190 829 154 824 q 268 835 226 835 q 286 832 276 835 q 296 818 296 829 q 293 805 296 811 q 289 792 290 799 q 265 707 279 764 q 236 582 251 650 q 207 449 221 514 q 185 340 193 385 q 160 213 171 278 q 149 94 149 147 q 149 71 149 82 q 151 49 150 60 q 173 31 153 38 q 220 23 193 25 q 272 20 247 21 q 308 19 297 19 q 386 22 344 19 q 474 29 428 24 q 540 43 510 33 q 585 57 571 53 l 588 57 q 599 47 599 57 q 567 23 599 35 q 483 1 535 11 q 374 -15 432 -10 q 267 -21 317 -21 m 408 626 q 406 629 407 626 q 416 656 406 636 q 441 704 426 676 q 466 761 456 732 q 476 815 476 790 q 476 825 476 821 q 475 833 475 829 q 492 840 479 838 q 518 832 500 840 q 536 813 536 824 q 535 807 536 810 q 492 725 524 769 q 433 651 461 681 q 423 638 432 647 q 411 626 414 629 l 408 626 z "},"Ļ":{"ha":621,"x_min":76,"x_max":599,"o":"m 267 -21 q 206 -19 242 -21 q 138 -12 171 -18 q 89 8 106 -6 q 78 31 81 17 q 76 51 76 44 q 86 138 76 81 q 110 270 96 196 q 142 423 125 344 q 173 574 158 501 q 197 701 188 646 q 207 779 207 756 q 203 788 207 786 q 185 792 199 790 q 163 794 172 793 q 154 804 154 794 q 190 829 154 824 q 268 835 226 835 q 286 832 276 835 q 296 818 296 829 q 293 805 296 811 q 289 792 290 799 q 265 707 279 764 q 236 582 251 650 q 207 449 221 514 q 185 340 193 385 q 160 213 171 278 q 149 94 149 147 q 149 71 149 82 q 151 49 150 60 q 173 31 153 38 q 220 23 193 25 q 272 20 247 21 q 308 19 297 19 q 386 22 344 19 q 474 29 428 24 q 540 43 510 33 q 585 57 571 53 l 588 57 q 599 47 599 57 q 567 23 599 35 q 483 1 535 11 q 374 -15 432 -10 q 267 -21 317 -21 m 193 -351 q 184 -346 186 -351 q 182 -336 182 -340 q 202 -309 193 -321 q 222 -281 211 -297 q 256 -224 242 -254 q 269 -172 269 -193 q 263 -151 268 -161 q 256 -132 257 -142 q 267 -109 256 -121 q 300 -97 279 -97 q 331 -107 324 -97 q 339 -136 339 -117 q 322 -194 339 -162 q 282 -255 306 -225 q 238 -307 258 -285 q 219 -326 232 -311 q 194 -351 207 -340 l 193 -351 z "},"Ŀ":{"ha":621,"x_min":76,"x_max":599,"o":"m 464 365 q 439 382 450 365 q 428 408 428 399 q 458 443 428 433 q 485 460 465 450 q 527 478 506 469 q 560 486 549 486 q 565 483 561 486 q 552 472 560 478 q 539 458 544 465 q 520 424 528 446 q 500 383 513 401 q 464 365 488 365 m 267 -21 q 206 -19 242 -21 q 138 -12 171 -18 q 89 8 106 -6 q 78 31 81 17 q 76 51 76 44 q 86 138 76 81 q 110 270 96 196 q 142 423 125 344 q 173 574 158 501 q 197 701 188 646 q 207 779 207 756 q 203 788 207 786 q 185 792 199 790 q 163 794 172 793 q 154 804 154 794 q 190 829 154 824 q 268 835 226 835 q 286 832 276 835 q 296 818 296 829 q 293 805 296 811 q 289 792 290 799 q 265 707 279 764 q 236 582 251 650 q 207 449 221 514 q 185 340 193 385 q 160 213 171 278 q 149 94 149 147 q 149 71 149 82 q 151 49 150 60 q 173 31 153 38 q 220 23 193 25 q 272 20 247 21 q 308 19 297 19 q 386 22 344 19 q 474 29 428 24 q 540 43 510 33 q 585 57 571 53 l 588 57 q 599 47 599 57 q 567 23 599 35 q 483 1 535 11 q 374 -15 432 -10 q 267 -21 317 -21 z "},"ǈ":{"ha":824,"x_min":76,"x_max":874,"o":"m 797 453 q 789 462 793 453 q 783 481 785 471 q 781 497 781 492 q 781 502 781 499 q 785 507 782 506 q 821 514 804 510 q 857 524 838 518 q 864 525 858 525 q 874 514 874 525 q 851 478 874 492 q 826 461 839 469 q 797 453 814 453 m 428 -369 q 343 -346 381 -369 q 288 -278 306 -322 q 274 -237 281 -258 q 268 -196 268 -217 q 271 -172 268 -189 q 283 -156 274 -156 q 291 -166 290 -156 q 292 -181 292 -176 q 304 -234 292 -207 q 331 -283 317 -261 q 372 -331 347 -310 q 429 -351 396 -351 q 517 -315 476 -351 q 590 -217 557 -278 q 649 -83 624 -156 q 694 64 675 -10 q 726 199 714 138 q 743 299 738 261 q 733 303 740 303 q 726 310 726 303 q 732 322 726 311 q 744 348 738 333 q 758 374 751 363 q 764 388 764 386 q 779 400 769 397 q 799 403 789 403 q 813 401 804 403 q 821 392 821 400 l 819 388 q 792 307 803 349 q 774 224 782 265 q 745 97 760 165 q 710 -40 731 29 q 660 -171 690 -108 q 588 -282 631 -233 q 482 -358 544 -331 q 428 -369 458 -369 m 267 -21 q 206 -19 242 -21 q 138 -12 171 -18 q 89 8 106 -6 q 78 31 81 17 q 76 51 76 44 q 86 138 76 81 q 110 270 96 196 q 142 423 125 344 q 173 574 158 501 q 197 701 188 646 q 207 779 207 756 q 203 788 207 786 q 185 792 199 790 q 163 794 172 793 q 154 804 154 794 q 190 829 154 824 q 268 835 226 835 q 286 832 276 835 q 296 818 296 829 q 293 805 296 811 q 289 792 290 799 q 265 707 279 764 q 236 582 251 650 q 207 449 221 514 q 185 340 193 385 q 160 213 171 278 q 149 94 149 147 q 149 71 149 82 q 151 49 150 60 q 173 31 153 38 q 220 23 193 25 q 272 20 247 21 q 308 19 297 19 q 386 22 344 19 q 474 29 428 24 q 540 43 510 33 q 585 57 571 53 l 588 57 q 599 47 599 57 q 567 23 599 35 q 483 1 535 11 q 374 -15 432 -10 q 267 -21 317 -21 z "},"Ł":{"ha":575,"x_min":-64,"x_max":525,"o":"m 293 -10 q 251 -9 283 -10 q 178 -6 219 -8 q 99 -1 138 -4 q 33 8 60 3 q 4 22 7 14 q 3 37 3 29 q 3 51 3 44 q 13 162 3 104 q 35 271 24 219 l 36 283 q 8 283 22 283 q -22 282 -7 282 q -34 281 -28 282 q -47 281 -40 281 q -64 294 -64 281 q -46 319 -64 314 q -14 324 -28 324 q -7 322 -11 324 q -3 318 -3 321 q -6 313 -3 315 l 42 313 q 76 463 58 388 q 111 614 93 538 q 124 671 118 642 q 136 728 131 700 q 143 760 139 743 q 147 792 147 776 q 138 798 147 797 q 126 799 129 799 q 117 798 122 799 q 108 797 113 797 q 99 803 99 797 q 118 822 99 815 q 160 832 138 829 q 193 835 183 835 q 211 832 201 835 q 221 818 221 829 q 219 805 221 811 q 214 792 217 799 q 201 747 207 771 q 192 701 196 724 q 169 607 179 654 q 149 513 158 560 q 126 413 139 463 q 103 314 114 363 l 276 314 q 290 313 279 314 q 300 307 300 311 q 288 300 300 301 q 274 299 276 299 q 96 286 185 290 l 88 247 q 76 175 82 211 q 69 103 69 139 q 70 81 69 92 q 75 58 71 69 q 113 33 83 40 q 176 23 143 25 q 222 21 208 21 q 239 22 231 21 q 256 22 247 22 q 341 27 299 25 q 425 36 383 29 q 446 40 436 38 q 464 44 456 43 q 485 52 475 47 q 506 57 496 57 l 510 57 q 520 56 515 57 q 525 47 525 54 q 499 18 525 29 q 437 1 472 7 q 371 -7 401 -4 q 331 -10 340 -10 l 293 -10 z "},"M":{"ha":1103,"x_min":-7,"x_max":1010,"o":"m 14 -58 q -7 -35 -7 -58 q 2 6 -7 -22 q 22 61 11 33 q 38 101 32 89 q 76 194 49 131 q 140 339 104 257 q 215 508 176 421 q 290 671 254 594 q 351 797 325 747 l 351 807 q 382 835 351 835 q 418 819 403 835 q 421 807 421 817 q 421 794 421 797 q 419 767 421 781 q 417 742 418 754 q 405 585 410 661 q 400 443 400 510 q 423 215 400 303 q 497 126 446 126 q 555 158 522 126 q 623 241 588 189 q 694 353 658 293 q 762 474 731 414 q 816 581 793 533 q 850 654 839 629 l 889 742 q 918 813 910 789 q 938 847 926 838 q 978 857 949 857 l 983 857 q 1001 855 993 857 q 1007 843 1010 853 q 956 670 978 765 q 923 475 935 575 q 911 279 911 375 q 919 140 911 207 q 943 21 926 74 q 944 10 944 17 q 934 -10 944 -4 q 913 -15 924 -15 q 888 3 900 -15 q 868 56 875 21 q 858 140 863 82 q 854 286 854 199 q 890 638 854 464 q 778 422 835 525 q 666 240 721 319 q 560 115 611 161 q 464 69 510 69 q 392 126 419 69 q 353 276 365 183 q 340 476 340 369 q 344 606 340 540 q 356 731 349 671 q 312 628 342 697 q 244 469 282 558 q 166 286 206 381 q 93 108 126 192 q 40 -36 60 24 q 14 -58 35 -58 z "},"N":{"ha":922,"x_min":65,"x_max":856,"o":"m 78 -97 q 68 -89 71 -97 q 65 -75 65 -81 l 65 -69 q 79 103 65 6 q 115 313 93 201 q 165 537 138 424 q 218 754 192 650 q 219 760 219 756 q 218 772 219 765 q 217 783 217 778 q 233 814 217 794 q 258 833 249 833 q 282 819 265 833 q 314 764 299 806 q 362 647 332 715 q 430 502 392 579 q 513 347 468 425 q 604 200 557 269 q 699 81 651 131 q 702 206 699 132 q 713 364 706 279 q 733 533 721 449 q 765 689 746 617 q 807 808 783 761 q 826 833 815 825 q 843 842 836 842 q 856 825 856 842 q 853 808 856 818 q 846 788 850 799 q 803 637 821 725 q 774 452 786 549 q 757 266 763 356 q 751 110 751 176 q 753 77 751 96 q 758 54 754 58 q 764 51 763 51 q 765 42 765 50 q 760 15 765 33 q 744 -18 754 -3 q 724 -33 735 -33 q 675 -8 699 -33 q 624 57 651 18 q 544 172 589 101 q 453 325 500 242 q 365 492 407 408 q 290 644 322 575 q 265 692 274 678 q 250 706 256 706 q 239 691 243 706 q 231 657 235 676 q 219 605 229 647 q 197 503 210 563 q 171 386 183 444 q 135 157 149 275 q 122 -56 122 39 q 107 -81 122 -65 q 78 -97 92 -97 z "},"Ǌ":{"ha":1438,"x_min":65,"x_max":1488,"o":"m 78 -97 q 68 -89 71 -97 q 65 -75 65 -81 l 65 -69 q 79 103 65 6 q 115 313 93 201 q 165 537 138 424 q 218 754 192 650 q 219 760 219 756 q 218 772 219 765 q 217 783 217 778 q 233 814 217 794 q 258 833 249 833 q 282 819 265 833 q 314 764 299 806 q 362 647 332 715 q 430 502 392 579 q 513 347 468 425 q 604 200 557 269 q 699 81 651 131 q 702 206 699 132 q 713 364 706 279 q 733 533 721 449 q 765 689 746 617 q 807 808 783 761 q 826 833 815 825 q 843 842 836 842 q 856 825 856 842 q 853 808 856 818 q 846 788 850 799 q 803 637 821 725 q 774 452 786 549 q 757 266 763 356 q 751 110 751 176 q 753 77 751 96 q 758 54 754 58 q 764 51 763 51 q 765 42 765 50 q 760 15 765 33 q 744 -18 754 -3 q 724 -33 735 -33 q 675 -8 699 -33 q 624 57 651 18 q 544 172 589 101 q 453 325 500 242 q 365 492 407 408 q 290 644 322 575 q 265 692 274 678 q 250 706 256 706 q 239 691 243 706 q 231 657 235 676 q 219 605 229 647 q 197 503 210 563 q 171 386 183 444 q 135 157 149 275 q 122 -56 122 39 q 107 -81 122 -65 q 78 -97 92 -97 m 832 -285 q 718 -237 760 -285 q 676 -112 676 -190 q 689 -86 676 -86 q 699 -103 697 -86 q 721 -172 704 -135 q 767 -234 738 -208 q 838 -260 796 -260 q 924 -229 885 -260 q 994 -147 963 -199 q 1052 -33 1026 -96 q 1096 96 1078 31 q 1120 198 1107 133 q 1149 343 1133 263 q 1181 508 1165 424 q 1211 669 1196 593 q 1239 803 1226 746 q 1107 794 1174 803 l 1097 793 q 1077 797 1086 793 q 1068 807 1068 801 q 1080 816 1068 813 q 1093 821 1092 819 q 1140 831 1113 828 q 1194 838 1168 835 q 1232 842 1219 840 q 1265 857 1240 850 q 1300 864 1289 864 q 1315 856 1315 864 q 1319 846 1314 847 q 1337 844 1324 844 q 1365 842 1350 843 q 1399 840 1374 842 q 1449 832 1424 838 q 1482 815 1475 826 q 1488 806 1488 811 q 1481 801 1488 801 q 1444 803 1469 801 q 1375 804 1418 804 q 1332 803 1356 804 q 1304 793 1308 801 q 1263 609 1282 707 q 1224 413 1243 511 q 1187 226 1206 315 q 1147 69 1168 138 q 1077 -103 1119 -22 q 974 -235 1035 -185 q 832 -285 914 -285 z "},"Ń":{"ha":922,"x_min":65,"x_max":856,"o":"m 78 -97 q 68 -89 71 -97 q 65 -75 65 -81 l 65 -69 q 79 103 65 6 q 115 313 93 201 q 165 537 138 424 q 218 754 192 650 q 219 760 219 756 q 218 772 219 765 q 217 783 217 778 q 233 814 217 794 q 258 833 249 833 q 282 819 265 833 q 314 764 299 806 q 362 647 332 715 q 430 502 392 579 q 513 347 468 425 q 604 200 557 269 q 699 81 651 131 q 702 206 699 132 q 713 364 706 279 q 733 533 721 449 q 765 689 746 617 q 807 808 783 761 q 826 833 815 825 q 843 842 836 842 q 856 825 856 842 q 853 808 856 818 q 846 788 850 799 q 803 637 821 725 q 774 452 786 549 q 757 266 763 356 q 751 110 751 176 q 753 77 751 96 q 758 54 754 58 q 764 51 763 51 q 765 42 765 50 q 760 15 765 33 q 744 -18 754 -3 q 724 -33 735 -33 q 675 -8 699 -33 q 624 57 651 18 q 544 172 589 101 q 453 325 500 242 q 365 492 407 408 q 290 644 322 575 q 265 692 274 678 q 250 706 256 706 q 239 691 243 706 q 231 657 235 676 q 219 605 229 647 q 197 503 210 563 q 171 386 183 444 q 135 157 149 275 q 122 -56 122 39 q 107 -81 122 -65 q 78 -97 92 -97 m 453 936 q 450 938 451 936 q 450 940 449 939 q 459 951 451 946 q 472 960 467 957 q 517 990 486 971 q 580 1028 549 1008 q 625 1060 611 1049 q 640 1070 632 1067 q 658 1074 649 1074 q 685 1063 672 1074 q 694 1040 697 1051 q 666 1017 693 1031 q 604 989 639 1004 q 551 967 583 981 q 490 944 518 953 q 453 936 463 935 z "},"Ň":{"ha":922,"x_min":65,"x_max":856,"o":"m 818 1104 q 819 1103 818 1104 q 821 1101 821 1103 q 810 1088 819 1096 q 794 1078 800 1081 q 733 1038 767 1060 q 668 994 699 1015 q 619 958 638 974 q 575 938 599 938 q 543 958 553 938 q 508 1015 533 981 q 465 1078 483 1050 q 460 1088 464 1081 q 457 1101 456 1096 q 463 1104 460 1104 q 484 1091 468 1104 q 521 1059 500 1078 q 560 1023 542 1040 q 586 996 578 1006 q 651 1030 614 1011 q 723 1065 688 1049 q 785 1093 758 1082 q 818 1104 811 1104 m 78 -97 q 68 -89 71 -97 q 65 -75 65 -81 l 65 -69 q 79 103 65 6 q 115 313 93 201 q 165 537 138 424 q 218 754 192 650 q 219 760 219 756 q 218 772 219 765 q 217 783 217 778 q 233 814 217 794 q 258 833 249 833 q 282 819 265 833 q 314 764 299 806 q 362 647 332 715 q 430 502 392 579 q 513 347 468 425 q 604 200 557 269 q 699 81 651 131 q 702 206 699 132 q 713 364 706 279 q 733 533 721 449 q 765 689 746 617 q 807 808 783 761 q 826 833 815 825 q 843 842 836 842 q 856 825 856 842 q 853 808 856 818 q 846 788 850 799 q 803 637 821 725 q 774 452 786 549 q 757 266 763 356 q 751 110 751 176 q 753 77 751 96 q 758 54 754 58 q 764 51 763 51 q 765 42 765 50 q 760 15 765 33 q 744 -18 754 -3 q 724 -33 735 -33 q 675 -8 699 -33 q 624 57 651 18 q 544 172 589 101 q 453 325 500 242 q 365 492 407 408 q 290 644 322 575 q 265 692 274 678 q 250 706 256 706 q 239 691 243 706 q 231 657 235 676 q 219 605 229 647 q 197 503 210 563 q 171 386 183 444 q 135 157 149 275 q 122 -56 122 39 q 107 -81 122 -65 q 78 -97 92 -97 z "},"Ņ":{"ha":922,"x_min":65,"x_max":856,"o":"m 78 -97 q 68 -89 71 -97 q 65 -75 65 -81 l 65 -69 q 79 103 65 6 q 115 313 93 201 q 165 537 138 424 q 218 754 192 650 q 219 760 219 756 q 218 772 219 765 q 217 783 217 778 q 233 814 217 794 q 258 833 249 833 q 282 819 265 833 q 314 764 299 806 q 362 647 332 715 q 430 502 392 579 q 513 347 468 425 q 604 200 557 269 q 699 81 651 131 q 702 206 699 132 q 713 364 706 279 q 733 533 721 449 q 765 689 746 617 q 807 808 783 761 q 826 833 815 825 q 843 842 836 842 q 856 825 856 842 q 853 808 856 818 q 846 788 850 799 q 803 637 821 725 q 774 452 786 549 q 757 266 763 356 q 751 110 751 176 q 753 77 751 96 q 758 54 754 58 q 764 51 763 51 q 765 42 765 50 q 760 15 765 33 q 744 -18 754 -3 q 724 -33 735 -33 q 675 -8 699 -33 q 624 57 651 18 q 544 172 589 101 q 453 325 500 242 q 365 492 407 408 q 290 644 322 575 q 265 692 274 678 q 250 706 256 706 q 239 691 243 706 q 231 657 235 676 q 219 605 229 647 q 197 503 210 563 q 171 386 183 444 q 135 157 149 275 q 122 -56 122 39 q 107 -81 122 -65 q 78 -97 92 -97 m 307 -351 q 298 -346 300 -351 q 296 -336 296 -340 q 316 -309 307 -321 q 336 -281 325 -297 q 369 -224 356 -254 q 383 -172 383 -193 q 376 -151 382 -161 q 369 -132 371 -142 q 381 -109 369 -121 q 414 -97 393 -97 q 445 -107 438 -97 q 453 -136 453 -117 q 436 -194 453 -162 q 396 -255 419 -225 q 351 -307 372 -285 q 333 -326 346 -311 q 308 -351 321 -340 l 307 -351 z "},"ǋ":{"ha":1125,"x_min":65,"x_max":1175,"o":"m 1099 453 q 1090 462 1094 453 q 1084 481 1086 471 q 1082 497 1082 492 q 1083 502 1082 499 q 1086 507 1083 506 q 1122 514 1106 510 q 1158 524 1139 518 q 1165 525 1160 525 q 1175 514 1175 525 q 1153 478 1175 492 q 1128 461 1140 469 q 1099 453 1115 453 m 729 -369 q 644 -346 682 -369 q 589 -278 607 -322 q 576 -237 582 -258 q 569 -196 569 -217 q 572 -172 569 -189 q 585 -156 575 -156 q 592 -166 592 -156 q 593 -181 593 -176 q 606 -234 593 -207 q 632 -283 618 -261 q 673 -331 649 -310 q 731 -351 697 -351 q 818 -315 778 -351 q 892 -217 858 -278 q 951 -83 925 -156 q 996 64 976 -10 q 1027 199 1015 138 q 1044 299 1039 261 q 1035 303 1042 303 q 1028 310 1028 303 q 1033 322 1028 311 q 1046 348 1039 333 q 1059 374 1053 363 q 1065 388 1065 386 q 1081 400 1071 397 q 1100 403 1090 403 q 1114 401 1106 403 q 1122 392 1122 400 l 1121 388 q 1094 307 1104 349 q 1075 224 1083 265 q 1047 97 1061 165 q 1012 -40 1032 29 q 962 -171 992 -108 q 889 -282 932 -233 q 783 -358 846 -331 q 729 -369 760 -369 m 78 -97 q 68 -89 71 -97 q 65 -75 65 -81 l 65 -69 q 79 103 65 6 q 115 313 93 201 q 165 537 138 424 q 218 754 192 650 q 219 760 219 756 q 218 772 219 765 q 217 783 217 778 q 233 814 217 794 q 258 833 249 833 q 282 819 265 833 q 314 764 299 806 q 362 647 332 715 q 430 502 392 579 q 513 347 468 425 q 604 200 557 269 q 699 81 651 131 q 702 206 699 132 q 713 364 706 279 q 733 533 721 449 q 765 689 746 617 q 807 808 783 761 q 826 833 815 825 q 843 842 836 842 q 856 825 856 842 q 853 808 856 818 q 846 788 850 799 q 803 637 821 725 q 774 452 786 549 q 757 266 763 356 q 751 110 751 176 q 753 77 751 96 q 758 54 754 58 q 764 51 763 51 q 765 42 765 50 q 760 15 765 33 q 744 -18 754 -3 q 724 -33 735 -33 q 675 -8 699 -33 q 624 57 651 18 q 544 172 589 101 q 453 325 500 242 q 365 492 407 408 q 290 644 322 575 q 265 692 274 678 q 250 706 256 706 q 239 691 243 706 q 231 657 235 676 q 219 605 229 647 q 197 503 210 563 q 171 386 183 444 q 135 157 149 275 q 122 -56 122 39 q 107 -81 122 -65 q 78 -97 92 -97 z "},"Ñ":{"ha":922,"x_min":65,"x_max":856,"o":"m 78 -97 q 68 -89 71 -97 q 65 -75 65 -81 l 65 -69 q 79 103 65 6 q 115 313 93 201 q 165 537 138 424 q 218 754 192 650 q 219 760 219 756 q 218 772 219 765 q 217 783 217 778 q 233 814 217 794 q 258 833 249 833 q 282 819 265 833 q 314 764 299 806 q 362 647 332 715 q 430 502 392 579 q 513 347 468 425 q 604 200 557 269 q 699 81 651 131 q 702 206 699 132 q 713 364 706 279 q 733 533 721 449 q 765 689 746 617 q 807 808 783 761 q 826 833 815 825 q 843 842 836 842 q 856 825 856 842 q 853 808 856 818 q 846 788 850 799 q 803 637 821 725 q 774 452 786 549 q 757 266 763 356 q 751 110 751 176 q 753 77 751 96 q 758 54 754 58 q 764 51 763 51 q 765 42 765 50 q 760 15 765 33 q 744 -18 754 -3 q 724 -33 735 -33 q 675 -8 699 -33 q 624 57 651 18 q 544 172 589 101 q 453 325 500 242 q 365 492 407 408 q 290 644 322 575 q 265 692 274 678 q 250 706 256 706 q 239 691 243 706 q 231 657 235 676 q 219 605 229 647 q 197 503 210 563 q 171 386 183 444 q 135 157 149 275 q 122 -56 122 39 q 107 -81 122 -65 q 78 -97 92 -97 m 681 931 q 623 942 656 931 q 558 963 590 953 q 503 974 526 974 q 468 964 485 974 q 440 944 451 954 q 422 935 428 935 q 418 942 418 935 q 435 970 421 951 q 471 1006 449 989 q 517 1022 493 1022 q 571 1013 540 1022 q 635 993 601 1003 q 701 983 668 983 q 740 999 724 983 q 763 1015 757 1014 q 765 997 768 1015 q 731 953 753 975 q 681 931 710 931 z "},"O":{"ha":1014,"x_min":56,"x_max":953,"o":"m 422 -29 q 215 21 296 -29 q 94 153 133 71 q 56 331 56 236 q 91 515 56 422 q 194 685 126 607 q 359 809 261 763 q 583 856 457 856 q 792 806 711 856 q 913 674 874 756 q 953 499 953 593 q 917 313 953 407 q 814 142 882 219 q 647 18 746 65 q 422 -29 549 -29 m 429 0 q 620 44 536 0 q 763 162 704 89 q 851 323 821 235 q 882 497 882 411 q 849 659 882 585 q 747 778 817 733 q 569 824 678 824 q 382 779 464 824 q 243 663 300 735 q 157 503 186 590 q 128 331 128 417 q 160 167 128 243 q 258 46 192 92 q 429 0 325 0 z "},"Œ":{"ha":1415,"x_min":56,"x_max":1374,"o":"m 422 -29 q 215 21 296 -29 q 94 153 133 71 q 56 331 56 236 q 91 515 56 422 q 194 685 126 607 q 359 809 261 763 q 583 856 457 856 q 795 803 713 856 q 917 669 878 751 q 930 747 925 714 q 935 792 935 779 q 922 804 935 804 q 894 804 908 804 q 881 817 881 804 q 897 836 881 831 q 933 844 913 842 q 969 846 954 846 q 1124 839 1047 846 q 1278 832 1200 832 l 1285 832 q 1312 838 1304 832 q 1324 849 1319 843 q 1335 854 1328 854 q 1358 844 1343 854 q 1374 824 1374 833 q 1371 817 1374 818 q 1365 813 1368 815 q 1323 752 1332 790 q 1304 679 1314 714 q 1301 667 1303 675 q 1292 658 1299 658 q 1284 667 1286 658 q 1282 681 1282 675 q 1285 718 1282 694 q 1293 766 1289 742 q 1301 803 1297 790 q 1288 801 1300 801 q 1230 804 1268 801 q 1152 810 1192 807 q 1088 813 1113 813 q 1050 812 1076 813 q 1014 804 1024 811 q 1003 772 1011 803 q 985 692 996 740 q 962 591 974 644 q 940 488 950 538 q 923 405 929 439 q 917 365 917 371 q 938 358 917 360 q 979 357 958 357 l 1093 357 q 1127 357 1101 357 q 1183 356 1153 357 q 1235 351 1213 354 q 1257 339 1257 347 q 1238 329 1257 333 q 1198 324 1218 325 q 1172 321 1178 322 q 1076 316 1125 318 q 979 314 1028 314 l 901 314 q 885 257 893 293 q 871 181 876 221 q 865 107 865 142 q 874 49 865 69 q 903 30 879 36 q 962 22 928 24 q 1031 19 996 19 q 1143 22 1096 19 q 1239 33 1190 25 q 1357 53 1288 40 q 1371 44 1371 53 q 1357 30 1371 35 q 1340 24 1343 25 q 1256 1 1310 11 q 1135 -15 1201 -8 q 1001 -21 1069 -21 q 884 -13 939 -21 q 811 8 829 -6 q 801 33 803 17 q 799 58 799 49 q 801 94 799 75 q 806 133 803 114 q 641 16 738 61 q 422 -29 544 -29 m 429 0 q 603 36 525 0 q 738 134 681 72 q 831 269 796 196 q 838 303 835 289 q 840 321 840 317 q 829 337 840 332 q 818 353 818 342 q 831 365 818 364 q 853 367 844 365 q 865 416 857 382 q 882 493 872 450 l 882 497 q 849 659 882 585 q 747 778 817 733 q 569 824 678 824 q 382 779 464 824 q 243 663 300 735 q 157 503 186 590 q 128 331 128 417 q 160 167 128 243 q 258 46 192 92 q 429 0 325 0 z "},"Ó":{"ha":1014,"x_min":56,"x_max":953,"o":"m 422 -29 q 215 21 296 -29 q 94 153 133 71 q 56 331 56 236 q 91 515 56 422 q 194 685 126 607 q 359 809 261 763 q 583 856 457 856 q 792 806 711 856 q 913 674 874 756 q 953 499 953 593 q 917 313 953 407 q 814 142 882 219 q 647 18 746 65 q 422 -29 549 -29 m 429 0 q 620 44 536 0 q 763 162 704 89 q 851 323 821 235 q 882 497 882 411 q 849 659 882 585 q 747 778 817 733 q 569 824 678 824 q 382 779 464 824 q 243 663 300 735 q 157 503 186 590 q 128 331 128 417 q 160 167 128 243 q 258 46 192 92 q 429 0 325 0 m 500 936 q 497 938 499 936 q 497 940 496 939 q 506 951 499 946 q 519 960 514 957 q 565 990 533 971 q 627 1028 596 1008 q 672 1060 658 1049 q 688 1070 679 1067 q 706 1074 696 1074 q 732 1063 719 1074 q 742 1040 744 1051 q 713 1017 740 1031 q 651 989 686 1004 q 598 967 631 981 q 538 944 565 953 q 500 936 510 935 z "},"Ŏ":{"ha":1014,"x_min":56,"x_max":953,"o":"m 422 -29 q 215 21 296 -29 q 94 153 133 71 q 56 331 56 236 q 91 515 56 422 q 194 685 126 607 q 359 809 261 763 q 583 856 457 856 q 792 806 711 856 q 913 674 874 756 q 953 499 953 593 q 917 313 953 407 q 814 142 882 219 q 647 18 746 65 q 422 -29 549 -29 m 429 0 q 620 44 536 0 q 763 162 704 89 q 851 323 821 235 q 882 497 882 411 q 849 659 882 585 q 747 778 817 733 q 569 824 678 824 q 382 779 464 824 q 243 663 300 735 q 157 503 186 590 q 128 331 128 417 q 160 167 128 243 q 258 46 192 92 q 429 0 325 0 m 632 938 q 510 1021 514 938 q 510 1034 510 1028 q 511 1044 510 1040 q 519 1064 514 1060 q 531 1068 525 1068 q 544 1053 539 1068 q 572 1009 550 1029 q 644 989 594 989 q 715 1000 678 989 q 801 1054 751 1011 q 822 1063 810 1063 q 822 1050 833 1063 q 783 1008 810 1035 q 719 959 757 981 q 632 938 681 938 z "},"Ǒ":{"ha":1014,"x_min":56,"x_max":953,"o":"m 865 1104 q 867 1103 865 1104 q 868 1101 868 1103 q 857 1088 867 1096 q 842 1078 847 1081 q 780 1038 814 1060 q 715 994 746 1015 q 667 958 685 974 q 622 938 646 938 q 590 958 600 938 q 556 1015 581 981 q 513 1078 531 1050 q 507 1088 511 1081 q 504 1101 503 1096 q 510 1104 507 1104 q 531 1091 515 1104 q 568 1059 547 1078 q 607 1023 589 1040 q 633 996 625 1006 q 698 1030 661 1011 q 770 1065 735 1049 q 832 1093 806 1082 q 865 1104 858 1104 m 422 -29 q 215 21 296 -29 q 94 153 133 71 q 56 331 56 236 q 91 515 56 422 q 194 685 126 607 q 359 809 261 763 q 583 856 457 856 q 792 806 711 856 q 913 674 874 756 q 953 499 953 593 q 917 313 953 407 q 814 142 882 219 q 647 18 746 65 q 422 -29 549 -29 m 429 0 q 620 44 536 0 q 763 162 704 89 q 851 323 821 235 q 882 497 882 411 q 849 659 882 585 q 747 778 817 733 q 569 824 678 824 q 382 779 464 824 q 243 663 300 735 q 157 503 186 590 q 128 331 128 417 q 160 167 128 243 q 258 46 192 92 q 429 0 325 0 z "},"ǒ":{"ha":1014,"x_min":56,"x_max":953,"o":"m 865 1104 q 867 1103 865 1104 q 868 1101 868 1103 q 857 1088 867 1096 q 842 1078 847 1081 q 780 1038 814 1060 q 715 994 746 1015 q 667 958 685 974 q 622 938 646 938 q 590 958 600 938 q 556 1015 581 981 q 513 1078 531 1050 q 507 1088 511 1081 q 504 1101 503 1096 q 510 1104 507 1104 q 531 1091 515 1104 q 568 1059 547 1078 q 607 1023 589 1040 q 633 996 625 1006 q 698 1030 661 1011 q 770 1065 735 1049 q 832 1093 806 1082 q 865 1104 858 1104 m 422 -29 q 215 21 296 -29 q 94 153 133 71 q 56 331 56 236 q 91 515 56 422 q 194 685 126 607 q 359 809 261 763 q 583 856 457 856 q 792 806 711 856 q 913 674 874 756 q 953 499 953 593 q 917 313 953 407 q 814 142 882 219 q 647 18 746 65 q 422 -29 549 -29 m 429 0 q 620 44 536 0 q 763 162 704 89 q 851 323 821 235 q 882 497 882 411 q 849 659 882 585 q 747 778 817 733 q 569 824 678 824 q 382 779 464 824 q 243 663 300 735 q 157 503 186 590 q 128 331 128 417 q 160 167 128 243 q 258 46 192 92 q 429 0 325 0 z "},"Ô":{"ha":1014,"x_min":56,"x_max":953,"o":"m 422 -29 q 215 21 296 -29 q 94 153 133 71 q 56 331 56 236 q 91 515 56 422 q 194 685 126 607 q 359 809 261 763 q 583 856 457 856 q 792 806 711 856 q 913 674 874 756 q 953 499 953 593 q 917 313 953 407 q 814 142 882 219 q 647 18 746 65 q 422 -29 549 -29 m 429 0 q 620 44 536 0 q 763 162 704 89 q 851 323 821 235 q 882 497 882 411 q 849 659 882 585 q 747 778 817 733 q 569 824 678 824 q 382 779 464 824 q 243 663 300 735 q 157 503 186 590 q 128 331 128 417 q 160 167 128 243 q 258 46 192 92 q 429 0 325 0 m 439 928 q 438 928 439 928 q 436 931 436 929 q 448 944 439 938 q 463 954 457 951 q 524 995 490 974 q 590 1038 558 1017 q 638 1074 621 1060 q 682 1094 658 1094 q 714 1074 704 1094 q 749 1017 725 1051 q 792 954 774 982 q 799 944 794 951 q 800 931 803 938 q 794 928 797 928 q 773 941 789 928 q 736 973 757 954 q 697 1009 715 992 q 671 1036 679 1026 q 606 1002 643 1021 q 534 967 569 983 q 472 939 499 950 q 439 928 446 928 z "},"Ố":{"ha":1014,"x_min":56,"x_max":1075,"o":"m 422 -29 q 215 21 296 -29 q 94 153 133 71 q 56 331 56 236 q 91 515 56 422 q 194 685 126 607 q 359 809 261 763 q 583 856 457 856 q 792 806 711 856 q 913 674 874 756 q 953 499 953 593 q 917 313 953 407 q 814 142 882 219 q 647 18 746 65 q 422 -29 549 -29 m 429 0 q 620 44 536 0 q 763 162 704 89 q 851 323 821 235 q 882 497 882 411 q 849 659 882 585 q 747 778 817 733 q 569 824 678 824 q 382 779 464 824 q 243 663 300 735 q 157 503 186 590 q 128 331 128 417 q 160 167 128 243 q 258 46 192 92 q 429 0 325 0 m 439 928 q 438 928 439 928 q 436 931 436 929 q 448 944 439 938 q 463 954 457 951 q 524 995 490 974 q 590 1038 558 1017 q 638 1074 621 1060 q 682 1094 658 1094 q 714 1074 704 1094 q 749 1017 725 1051 q 792 954 774 982 q 799 944 794 951 q 800 931 803 938 q 794 928 797 928 q 773 941 789 928 q 736 973 757 954 q 697 1009 715 992 q 671 1036 679 1026 q 606 1002 643 1021 q 534 967 569 983 q 472 939 499 950 q 439 928 446 928 m 831 1029 q 828 1031 829 1029 q 828 1033 826 1032 q 837 1044 829 1039 q 850 1053 844 1050 q 895 1083 864 1064 q 958 1122 926 1101 q 1003 1153 989 1142 q 1018 1163 1010 1160 q 1036 1167 1026 1167 q 1063 1156 1050 1167 q 1072 1133 1075 1144 q 1044 1110 1071 1124 q 982 1082 1017 1097 q 928 1060 961 1074 q 868 1037 896 1046 q 831 1029 840 1028 z "}}}
